<?xml version="1.0" encoding="utf-8"?>
<!-- Generator: Adobe Illustrator 16.0.3, SVG Export Plug-In . SVG Version: 6.00 Build 0)  -->
<!DOCTYPE svg PUBLIC "-//W3C//DTD SVG 1.1//EN" "http://www.w3.org/Graphics/SVG/1.1/DTD/svg11.dtd">
<svg version="1.1" id="Layer_1" xmlns:svgjs="http://svgjs.com/svgjs"
	 xmlns="http://www.w3.org/2000/svg" xmlns:xlink="http://www.w3.org/1999/xlink" x="0px" y="0px" width="50.083px"
	 height="50.041px" viewBox="165.969 180.91 50.083 50.041" enable-background="new 165.969 180.91 50.083 50.041"
	 xml:space="preserve">
<rect x="185.969" y="192.95" display="none" fill="#51007C" width="35.094" height="35.002"/>
<g display="none">
	<g display="inline">
		<ellipse fill="#172A7D" cx="203.53" cy="210.874" rx="16.521" ry="16.344"/>
	</g>
	<g display="inline">
		<path fill="#4F66D0" d="M203.512,225.539c-0.279,0-0.505-0.224-0.505-0.5s0.226-0.5,0.505-0.5c7.619,0,13.816-6.131,13.816-13.667
			c0-6.178-4.214-11.608-10.249-13.206c-0.27-0.071-0.43-0.345-0.358-0.612c0.073-0.267,0.35-0.425,0.619-0.354
			c6.477,1.714,10.999,7.542,10.999,14.172C218.34,218.959,211.688,225.539,203.512,225.539L203.512,225.539z"/>
	</g>
	<g display="inline">
		<path fill="#4F66D0" d="M189.204,212.266c-0.011,0-0.049-0.003-0.063-0.045c-0.127-0.381-0.263-0.661-0.448-0.88
			c0.054,1.638,0.385,3.236,0.963,4.736c0.241-0.234,0.569-0.381,0.932-0.39c-0.525-1.374-0.828-2.835-0.882-4.333
			c-0.179,0.217-0.313,0.494-0.438,0.867C189.254,212.263,189.217,212.266,189.204,212.266z"/>
		<path fill="#4F66D0" d="M200.302,197.052c-0.072-0.267-0.349-0.425-0.619-0.354c-6.158,1.63-10.55,6.98-10.966,13.203
			c0.171-0.214,0.302-0.484,0.423-0.848c0.014-0.042,0.052-0.045,0.063-0.045c0.013,0,0.05,0.004,0.064,0.045
			c0.13,0.389,0.269,0.673,0.46,0.894c0.396-5.79,4.485-10.765,10.217-12.282C200.215,197.594,200.375,197.319,200.302,197.052z"/>
		<path fill="#4F66D0" d="M195.594,222.064c-1.604-1.113-2.927-2.533-3.911-4.147c-0.218,0.26-0.532,0.438-0.887,0.483
			c1.057,1.745,2.485,3.281,4.216,4.483c0.088,0.062,0.19,0.091,0.29,0.091c0.16,0,0.315-0.074,0.415-0.213
			C195.878,222.535,195.822,222.224,195.594,222.064L195.594,222.064z"/>
	</g>
	<g display="inline">
		<path fill="#6C7FD8" d="M197.517,202.138c2.497-1.675,5.69-2.302,8.82-1.453c0.27,0.073,0.547-0.083,0.621-0.351
			c0.074-0.267-0.084-0.542-0.354-0.614c-3.469-0.942-7.008-0.227-9.755,1.658C197.159,201.538,197.399,201.81,197.517,202.138
			L197.517,202.138z"/>
		<path fill="#6C7FD8" d="M214.07,209.317c0.189-0.231,0.328-0.527,0.463-0.932c0.014-0.043,0.052-0.047,0.064-0.047
			c0.011,0,0.05,0.004,0.064,0.047c0.125,0.377,0.255,0.66,0.425,0.883c-0.172-1.207-0.537-2.39-1.092-3.503
			c-0.124-0.248-0.427-0.35-0.677-0.228c-0.251,0.122-0.354,0.422-0.23,0.67C213.579,207.196,213.907,208.246,214.07,209.317
			L214.07,209.317z"/>
		<path fill="#6C7FD8" d="M197.178,219.376c-1.185-0.865-2.186-1.976-2.938-3.282c-1.413-2.455-1.776-5.302-1.022-8.018
			c0.456-1.644,1.284-3.091,2.368-4.277c-0.31-0.159-0.55-0.431-0.668-0.761c-1.228,1.315-2.164,2.931-2.675,4.773
			c-0.825,2.974-0.428,6.091,1.119,8.778c0.834,1.45,1.95,2.68,3.272,3.632C196.72,219.884,196.915,219.589,197.178,219.376z"/>
		<path fill="#6C7FD8" d="M209.91,219.319c-1.822,1.348-4.064,2.114-6.4,2.114c-0.932,0-1.88-0.122-2.822-0.377
			c-0.297-0.081-0.589-0.174-0.875-0.279c-0.036,0.352-0.187,0.668-0.416,0.916c0.334,0.124,0.675,0.233,1.022,0.328
			c1.031,0.28,2.068,0.413,3.089,0.413c2.639,0,5.167-0.892,7.195-2.455C210.511,219.686,210.267,219.485,209.91,219.319
			L209.91,219.319z"/>
		<path fill="#6C7FD8" d="M214.66,211.78c-0.014,0.043-0.053,0.047-0.064,0.047c-0.012,0-0.05-0.004-0.064-0.047
			c-0.104-0.317-0.214-0.566-0.346-0.771c-0.011,0.891-0.137,1.783-0.378,2.655c-0.458,1.652-1.291,3.104-2.381,4.292
			c0.171,0.331,0.382,0.556,0.689,0.737c1.225-1.313,2.156-2.926,2.667-4.763c0.288-1.041,0.425-2.105,0.415-3.166
			C214.97,211.006,214.812,211.324,214.66,211.78L214.66,211.78z"/>
	</g>
	<g display="inline">
		<path fill="#8795DE" d="M210.125,205.52c-0.139,0.319-0.397,0.575-0.717,0.713c1.026,1.273,1.64,2.885,1.64,4.637
			c0,4.109-3.38,7.454-7.535,7.454c-0.279,0-0.505,0.224-0.505,0.5c0,0.277,0.226,0.501,0.505,0.501
			c4.712,0,8.546-3.793,8.546-8.455C212.059,208.842,211.333,206.979,210.125,205.52z"/>
		<path fill="#8795DE" d="M207.543,204.575c0.107-0.333,0.339-0.612,0.642-0.78c-1.343-0.872-2.949-1.379-4.672-1.379
			c-4.712,0-8.546,3.792-8.546,8.455c0,0.276,0.227,0.5,0.506,0.5s0.506-0.224,0.506-0.5c0-4.11,3.38-7.454,7.534-7.454
			C204.994,203.417,206.377,203.842,207.543,204.575z"/>
	</g>
	<g display="inline">
		<ellipse fill="#FEA613" cx="203.512" cy="210.87" rx="4.741" ry="4.689"/>
	</g>
	<path display="inline" fill="#FE9901" d="M201.976,213.726c-0.9,0.202-1.799-0.351-2.011-1.242
		c-0.198-0.825,0.261-1.652,1.042-1.943c0.146-2.064,1.64-3.759,3.617-4.229c-0.357-0.084-0.728-0.13-1.111-0.13
		c-2.618,0-4.74,2.099-4.74,4.689c0,2.589,2.122,4.689,4.74,4.689c0.383,0,0.754-0.046,1.111-0.13
		C203.554,215.175,202.626,214.562,201.976,213.726L201.976,213.726z"/>
	<g display="inline">
		<ellipse fill="#97D729" cx="208.859" cy="204.983" rx="1.445" ry="1.43"/>
	</g>
	<g display="inline">
		<path fill="#8BC727" d="M208.519,204.983c0-0.596,0.369-1.106,0.893-1.321c-0.171-0.07-0.357-0.109-0.553-0.109
			c-0.798,0-1.446,0.64-1.446,1.43s0.648,1.43,1.446,1.43c0.196,0,0.382-0.039,0.553-0.109
			C208.888,206.089,208.519,205.579,208.519,204.983z"/>
	</g>
	<g display="inline">
		<ellipse fill="#97D729" cx="190.62" cy="217.049" rx="1.446" ry="1.43"/>
	</g>
	<g display="inline">
		<path fill="#8BC727" d="M190.313,217.05c0-0.59,0.361-1.097,0.876-1.315c-0.174-0.074-0.367-0.115-0.569-0.115
			c-0.798,0-1.445,0.641-1.445,1.431c0,0.79,0.647,1.43,1.445,1.43c0.202,0,0.396-0.042,0.569-0.115
			C190.675,218.145,190.313,217.64,190.313,217.05L190.313,217.05z"/>
	</g>
	<g display="inline">
		<ellipse fill="#925CB4" cx="203.512" cy="196.125" rx="2.353" ry="2.328"/>
	</g>
	<g display="inline">
		<path fill="#814BA2" d="M202.991,196.125c0-0.965,0.592-1.792,1.438-2.146c-0.282-0.118-0.591-0.183-0.916-0.183
			c-1.299,0-2.353,1.042-2.353,2.329c0,1.286,1.054,2.328,2.353,2.328c0.325,0,0.634-0.064,0.916-0.183
			C203.583,197.917,202.991,197.089,202.991,196.125L202.991,196.125z"/>
	</g>
	<g display="inline">
		<ellipse fill="#FED402" cx="198.202" cy="220.614" rx="1.687" ry="1.668"/>
	</g>
	<g display="inline">
		<path fill="#FAC600" d="M197.865,220.614c0-0.684,0.416-1.271,1.012-1.528c-0.207-0.09-0.435-0.14-0.675-0.14
			c-0.931,0-1.685,0.748-1.685,1.668c0,0.921,0.754,1.668,1.685,1.668c0.241,0,0.469-0.05,0.675-0.139
			C198.281,221.885,197.865,221.298,197.865,220.614z"/>
	</g>
	<g display="inline">
		<ellipse fill="#FED402" cx="204.936" cy="209.749" rx="1.812" ry="1.792"/>
	</g>
	<g display="inline">
		<ellipse fill="#FB8801" cx="201.605" cy="212.099" rx="1.686" ry="1.668"/>
	</g>
	<g display="inline">
		<ellipse fill="#FD4755" cx="196.217" cy="202.589" rx="1.445" ry="1.43"/>
	</g>
	<g display="inline">
		<path fill="#FB2B3A" d="M195.851,202.588c0-0.601,0.375-1.114,0.906-1.326c-0.167-0.066-0.349-0.104-0.54-0.104
			c-0.798,0-1.445,0.64-1.445,1.429c0,0.79,0.647,1.431,1.445,1.431c0.191,0,0.373-0.038,0.54-0.104
			C196.226,203.703,195.851,203.189,195.851,202.588L195.851,202.588z"/>
	</g>
	<g display="inline">
		<path fill="#FEA613" d="M216.601,198.799c-0.953,0.307-1.297,0.648-1.608,1.591c-0.041,0.124-0.216,0.124-0.257,0
			c-0.311-0.943-0.655-1.284-1.609-1.591c-0.125-0.04-0.125-0.214,0-0.254c0.954-0.308,1.298-0.648,1.609-1.591
			c0.041-0.124,0.216-0.124,0.257,0c0.311,0.943,0.656,1.284,1.608,1.591C216.727,198.585,216.727,198.759,216.601,198.799z"/>
	</g>
	<g display="inline">
		<path fill="#FE9901" d="M214.013,198.124c-0.223,0.17-0.505,0.298-0.886,0.421c-0.125,0.041-0.125,0.214,0,0.254
			c0.954,0.307,1.298,0.648,1.609,1.591c0.041,0.124,0.216,0.124,0.257,0c0.123-0.373,0.251-0.65,0.42-0.87
			C215.132,198.735,214.801,198.403,214.013,198.124z"/>
	</g>
	<g display="inline">
		<path fill="#FEA613" d="M199.193,215.076c-0.954,0.308-1.299,0.648-1.609,1.592c-0.041,0.123-0.216,0.123-0.256,0
			c-0.312-0.944-0.655-1.284-1.608-1.592c-0.125-0.04-0.125-0.213,0-0.254c0.953-0.307,1.296-0.648,1.608-1.592
			c0.04-0.123,0.216-0.123,0.256,0c0.311,0.944,0.655,1.285,1.609,1.592C199.317,214.863,199.317,215.037,199.193,215.076z"/>
	</g>
	<g display="inline">
		<path fill="#FE9901" d="M196.608,214.398c-0.224,0.171-0.507,0.301-0.889,0.424c-0.125,0.041-0.125,0.214,0,0.254
			c0.953,0.308,1.296,0.648,1.608,1.592c0.04,0.123,0.216,0.123,0.256,0c0.125-0.379,0.256-0.66,0.429-0.881
			C197.731,215.007,197.398,214.677,196.608,214.398L196.608,214.398z"/>
	</g>
	<g display="inline">
		<path fill="#FEA613" d="M216.334,210.209c-0.954,0.308-1.298,0.648-1.609,1.591c-0.041,0.124-0.216,0.124-0.257,0
			c-0.311-0.943-0.655-1.283-1.608-1.591c-0.125-0.04-0.125-0.213,0-0.254c0.953-0.307,1.298-0.647,1.608-1.59
			c0.041-0.124,0.216-0.124,0.257,0c0.311,0.943,0.655,1.283,1.609,1.59C216.459,209.996,216.459,210.169,216.334,210.209z"/>
	</g>
	<g display="inline">
		<path fill="#FEA613" d="M216.334,210.209c-0.954,0.308-1.298,0.648-1.609,1.591c-0.041,0.124-0.216,0.124-0.257,0
			c-0.311-0.943-0.655-1.283-1.608-1.591c-0.125-0.04-0.125-0.213,0-0.254c0.953-0.307,1.298-0.647,1.608-1.59
			c0.041-0.124,0.216-0.124,0.257,0c0.311,0.943,0.655,1.283,1.609,1.59C216.459,209.996,216.459,210.169,216.334,210.209z"/>
	</g>
	<g display="inline">
		<path fill="#FE9901" d="M213.748,209.533c-0.223,0.17-0.507,0.299-0.888,0.422c-0.125,0.041-0.125,0.214,0,0.254
			c0.953,0.308,1.298,0.648,1.608,1.592c0.041,0.124,0.216,0.124,0.257,0c0.122-0.372,0.251-0.65,0.42-0.87
			C214.864,210.146,214.534,209.812,213.748,209.533z"/>
	</g>
	<g display="inline">
		<path fill="#FEA613" d="M190.827,210.763c-0.88,0.287-1.205,0.608-1.495,1.478c-0.041,0.121-0.214,0.121-0.256,0
			c-0.29-0.87-0.614-1.191-1.494-1.478c-0.123-0.04-0.123-0.213,0-0.253c0.88-0.287,1.204-0.608,1.494-1.479
			c0.042-0.121,0.215-0.121,0.256,0c0.29,0.871,0.615,1.192,1.495,1.479C190.949,210.55,190.949,210.723,190.827,210.763z"/>
	</g>
	<g display="inline">
		<path fill="#FE9901" d="M188.445,210.084c-0.213,0.175-0.487,0.304-0.863,0.426c-0.123,0.04-0.123,0.213,0,0.253
			c0.88,0.287,1.204,0.608,1.494,1.478c0.042,0.121,0.215,0.121,0.256,0c0.124-0.372,0.254-0.642,0.431-0.854
			C189.499,210.657,189.185,210.346,188.445,210.084L188.445,210.084z"/>
	</g>
	<g display="inline">
		<path fill="#FFFFFF" d="M201.783,224.22c-0.543,0.192-0.774,0.421-0.969,0.958c-0.043,0.119-0.211,0.119-0.254,0
			c-0.194-0.537-0.425-0.765-0.968-0.958c-0.121-0.042-0.121-0.21,0-0.252c0.543-0.193,0.773-0.421,0.968-0.958
			c0.043-0.119,0.211-0.119,0.254,0c0.195,0.537,0.426,0.766,0.969,0.958C201.903,224.01,201.903,224.178,201.783,224.22z"/>
	</g>
	<g display="inline">
		<path fill="#F3F0F3" d="M201.076,224.667c-0.194-0.538-0.425-0.765-0.968-0.958c-0.001,0-0.002-0.001-0.004-0.002
			c-0.134,0.104-0.298,0.186-0.512,0.262c-0.121,0.042-0.121,0.209,0,0.252c0.543,0.192,0.773,0.421,0.967,0.958
			c0.044,0.119,0.212,0.119,0.255,0c0.077-0.212,0.16-0.375,0.265-0.507C201.077,224.669,201.077,224.668,201.076,224.667z"/>
	</g>
	<g display="inline">
		<path fill="#FFFFFF" d="M212.302,202.65c-0.543,0.192-0.774,0.421-0.968,0.958c-0.044,0.119-0.212,0.119-0.255,0
			c-0.195-0.538-0.425-0.766-0.968-0.958c-0.121-0.042-0.121-0.209,0-0.252c0.543-0.192,0.773-0.42,0.968-0.958
			c0.043-0.12,0.211-0.12,0.255,0c0.193,0.537,0.425,0.765,0.968,0.958C212.422,202.441,212.422,202.608,212.302,202.65z"/>
	</g>
	<g display="inline">
		<g>
			<path fill="#F3F0F3" d="M210.599,202.188c-0.011-0.003-0.018-0.009-0.027-0.014c-0.125,0.087-0.273,0.158-0.461,0.224
				c-0.121,0.043-0.121,0.209,0,0.252c0.543,0.192,0.773,0.421,0.968,0.958c0.043,0.119,0.211,0.119,0.255,0
				c0.069-0.19,0.143-0.341,0.232-0.466C211.372,202.608,211.141,202.381,210.599,202.188z"/>
		</g>
	</g>
	<g display="inline">
		<path fill="#FEA613" d="M199.516,226.383c-0.88,0.287-1.204,0.608-1.495,1.479c-0.04,0.121-0.215,0.121-0.255,0
			c-0.291-0.871-0.615-1.192-1.495-1.479c-0.123-0.04-0.123-0.212,0-0.253c0.88-0.287,1.204-0.607,1.495-1.479
			c0.04-0.121,0.215-0.121,0.255,0c0.291,0.871,0.615,1.191,1.495,1.479C199.639,226.17,199.639,226.343,199.516,226.383z"/>
	</g>
	<g display="inline">
		<path fill="#FE9901" d="M197.146,225.694c-0.215,0.18-0.492,0.311-0.874,0.436c-0.123,0.041-0.123,0.213,0,0.253
			c0.88,0.287,1.204,0.608,1.495,1.479c0.04,0.121,0.215,0.121,0.255,0c0.126-0.379,0.259-0.653,0.441-0.866
			C198.198,226.267,197.883,225.956,197.146,225.694z"/>
	</g>
	<g display="inline">
		<path fill="#FFFFFF" d="M212.859,219.19c-0.954,0.307-1.298,0.648-1.608,1.591c-0.042,0.123-0.217,0.123-0.257,0
			c-0.311-0.943-0.655-1.284-1.608-1.591c-0.125-0.041-0.125-0.214,0-0.254c0.954-0.308,1.297-0.648,1.608-1.591
			c0.04-0.124,0.216-0.124,0.257,0c0.311,0.943,0.654,1.283,1.608,1.591C212.983,218.976,212.983,219.149,212.859,219.19z"/>
	</g>
	<g display="inline">
		<path fill="#F3F0F3" d="M210.264,218.52c-0.223,0.167-0.503,0.294-0.88,0.416c-0.125,0.041-0.125,0.214,0,0.254
			c0.953,0.308,1.297,0.648,1.608,1.591c0.04,0.123,0.216,0.123,0.257,0c0.12-0.365,0.246-0.64,0.41-0.858
			C211.38,219.134,211.05,218.799,210.264,218.52z"/>
	</g>
	<g display="inline">
		<ellipse fill="#FED402" cx="203.26" cy="213.009" rx="1.003" ry="0.992"/>
	</g>
	<g display="inline">
		<path fill="#FED402" d="M196.147,212.966l-0.415,0.411c-0.036,0.035-0.093,0.035-0.128,0l-0.416-0.411
			c-0.035-0.034-0.035-0.092,0-0.126l0.416-0.411c0.035-0.035,0.093-0.035,0.128,0l0.415,0.411
			C196.183,212.875,196.183,212.932,196.147,212.966z"/>
	</g>
	<g display="inline">
		<path fill="#FED402" d="M200.469,216.708l-0.416,0.411c-0.036,0.036-0.093,0.036-0.128,0l-0.415-0.411
			c-0.036-0.035-0.036-0.091,0-0.126l0.415-0.411c0.036-0.035,0.093-0.035,0.128,0l0.416,0.411
			C200.504,216.616,200.504,216.673,200.469,216.708z"/>
	</g>
	<g display="inline">
		<path fill="#FED402" d="M213.618,204.167l-0.416,0.41c-0.035,0.035-0.093,0.035-0.128,0l-0.416-0.41
			c-0.035-0.035-0.035-0.092,0-0.127l0.416-0.411c0.035-0.035,0.093-0.035,0.128,0l0.416,0.411
			C213.654,204.075,213.654,204.132,213.618,204.167z"/>
	</g>
	<g display="inline">
		<path fill="#FED402" d="M209.235,201.298l-0.416,0.411c-0.035,0.035-0.092,0.035-0.128,0l-0.416-0.411
			c-0.035-0.035-0.035-0.092,0-0.127l0.416-0.411c0.036-0.035,0.093-0.035,0.128,0l0.416,0.411
			C209.271,201.207,209.271,201.263,209.235,201.298z"/>
	</g>
	<g display="inline">
		<path fill="#FFFFFF" d="M201.481,218.576l-0.415,0.411c-0.036,0.035-0.093,0.035-0.128,0l-0.415-0.411
			c-0.036-0.034-0.036-0.092,0-0.127l0.415-0.41c0.036-0.035,0.093-0.035,0.128,0l0.415,0.41
			C201.516,218.484,201.516,218.542,201.481,218.576z"/>
	</g>
</g>
<g>
	<path fill="#00AA79" d="M215.305,205.983c0.003,2.245-0.306,4.481-0.916,6.642l-0.699,0.07c-0.057,0.006-0.114,0.011-0.169,0.013
		l-0.591,0.027c-1.567,0.065-2.96,1.02-3.585,2.458l-0.151,0.346c-0.515,1.174-1.676,1.932-2.958,1.932h-2.513
		c-0.602,0.002-1.104-0.454-1.162-1.051l-0.101-1.004c-0.121-1.244-0.804-2.362-1.856-3.037c-0.412-0.264-0.66-0.721-0.66-1.21
		v-1.007c0-0.565,0.243-1.104,0.667-1.478l4.293-3.792c1.235-1.094,1.722-2.807,1.244-4.387c-0.495-1.632-1.904-2.819-3.597-3.027
		l-0.434-0.054c-0.517-0.063-0.993-0.315-1.335-0.707c-0.335-0.38-0.394-0.931-0.146-1.374l0.898-1.538
		c1.112-1.897,2.423-3.671,3.91-5.291l0.97-1.354C212.05,191.784,215.313,198.693,215.305,205.983z"/>
	<path fill="#7BFFFB" d="M213.69,212.695l0.699-0.07c-2.891,10.231-12.297,17.728-23.453,17.728c-13.458,0-24.37-10.911-24.37-24.37
		c0-0.767,0.035-1.525,0.104-2.274l0.294,0.028l0.332-0.065c1.614-0.315,3.251,0.428,4.076,1.85c0.189,0.325,0.426,0.621,0.7,0.879
		l1.732,1.631c0.31,0.291,0.687,0.502,1.096,0.614l0.202,0.057c1.193,0.326,2.127,1.256,2.46,2.448l0.929,3.351
		c0.111,0.402,0.3,0.78,0.553,1.113l2.814,3.689c0.35,0.46,0.584,1,0.68,1.571l0.766,4.589c0.024,0.165,0.108,0.314,0.235,0.42
		c0.188,0.151,0.44,0.186,0.662,0.094c0.441-0.185,0.745-0.601,0.789-1.078c0.093-0.938,0.468-1.826,1.077-2.546l0.814-0.98
		c0.145-0.173,0.253-0.374,0.319-0.589l0.839-2.718c0.247-0.802,0.738-1.509,1.404-2.021l2.493-1.914
		c0.181-0.136,0.305-0.335,0.344-0.556c0.042-0.247-0.03-0.499-0.191-0.689l-1.66-1.952c-0.1-0.116-0.194-0.238-0.283-0.361
		l-1.269-1.768c-0.702-0.979-1.823-1.627-3.029-1.597c-0.12,0.003-0.24-0.028-0.344-0.091l-2.592-1.555
		c-0.759-0.452-1.699-0.476-2.478-0.062l-1.366,0.733c-1.24,0.664-2.782,0.259-3.536-0.931l-1.327-2.094
		c-0.614-0.97-0.594-2.212,0.049-3.162c0.688-1.021,1.893-1.566,3.114-1.408l1.991,0.253c0.709,0.097,1.409-0.238,1.778-0.853
		c0.635-1.093,1.863-1.699,3.117-1.539l0.87,0.111c0.621,0.078,1.237-0.177,1.621-0.674l0.767-0.994
		c0.694-0.896,0.726-2.137,0.079-3.068l-1.655-2.384c-0.634-0.915-1.46-1.68-2.421-2.242c-0.253-0.148-0.497-0.31-0.73-0.485
		l-1.394-1.046l-1.763-1.329c8.673-4.538,19.221-3.448,26.784,2.769l-0.97,1.354c-1.487,1.62-2.798,3.394-3.91,5.291l-0.898,1.538
		c-0.248,0.443-0.189,0.994,0.146,1.374c0.343,0.392,0.819,0.645,1.335,0.707l0.434,0.054c1.693,0.208,3.102,1.396,3.597,3.027
		c0.478,1.58-0.009,3.292-1.244,4.387l-4.293,3.792c-0.423,0.374-0.666,0.913-0.667,1.478v1.007c0,0.49,0.248,0.946,0.66,1.21
		c1.052,0.674,1.735,1.793,1.856,3.037l0.101,1.004c0.058,0.598,0.561,1.053,1.162,1.051h2.513c1.282,0,2.443-0.758,2.958-1.932
		l0.151-0.346c0.625-1.438,2.018-2.393,3.585-2.458l0.591-0.027C213.576,212.706,213.633,212.701,213.69,212.695z"/>
	<path fill="#00AA79" d="M192.089,212.887c0.162,0.19,0.233,0.442,0.191,0.689c-0.04,0.221-0.163,0.42-0.344,0.556l-2.493,1.914
		c-0.667,0.511-1.157,1.218-1.404,2.021l-0.839,2.718c-0.066,0.216-0.175,0.417-0.319,0.589l-0.814,0.98
		c-0.609,0.72-0.984,1.608-1.077,2.546c-0.044,0.477-0.348,0.893-0.789,1.078c-0.222,0.092-0.475,0.057-0.662-0.094
		c-0.127-0.106-0.211-0.255-0.235-0.42l-0.766-4.589c-0.095-0.571-0.33-1.111-0.68-1.571l-2.814-3.689
		c-0.253-0.333-0.442-0.71-0.553-1.113l-0.929-3.351c-0.333-1.192-1.267-2.122-2.46-2.448l-0.202-0.057
		c-0.409-0.111-0.786-0.323-1.096-0.614l-1.732-1.631c-0.274-0.259-0.511-0.555-0.7-0.879c-0.825-1.422-2.461-2.166-4.076-1.85
		l-0.332,0.065l-0.294-0.028c0.77-8.218,5.646-15.488,12.958-19.318l1.763,1.329l1.394,1.046c0.233,0.175,0.477,0.337,0.73,0.485
		c0.961,0.562,1.787,1.327,2.421,2.242l1.655,2.384c0.647,0.931,0.616,2.172-0.079,3.068l-0.767,0.994
		c-0.383,0.497-1,0.752-1.621,0.674l-0.87-0.111c-1.254-0.161-2.482,0.446-3.117,1.539c-0.369,0.615-1.068,0.95-1.778,0.853
		l-1.991-0.253c-1.221-0.158-2.426,0.387-3.114,1.408c-0.643,0.95-0.663,2.192-0.049,3.162l1.327,2.094
		c0.753,1.189,2.296,1.595,3.536,0.931l1.366-0.733c0.779-0.415,1.719-0.391,2.478,0.062l2.592,1.555
		c0.104,0.063,0.224,0.094,0.344,0.091c1.206-0.031,2.327,0.617,3.029,1.597l1.269,1.768c0.088,0.123,0.183,0.245,0.283,0.361
		L192.089,212.887z"/>
	<path fill="#53D5D1" d="M190.936,181.614c-3.939-0.006-7.82,0.947-11.307,2.777l1.763,1.329l1.394,1.046
		c0.228,0.17,0.465,0.329,0.711,0.472l0.108-0.063c7.13-3.727,15.64-3.7,22.746,0.069l0.061-0.085
		C202.057,183.566,196.582,181.604,190.936,181.614z"/>
	<path fill="#53D5D1" d="M170.544,208.769c0-0.767,0.035-1.525,0.105-2.274l0.229-1.643c-0.906-0.992-2.263-1.439-3.582-1.18
		l-0.332,0.065l-0.294-0.028c-0.069,0.749-0.103,1.507-0.104,2.274c-0.003,8.824,4.766,16.96,12.465,21.268
		C173.638,222.625,170.537,215.873,170.544,208.769z"/>
	<path fill="#005933" d="M170.861,204.834c1.233-7.517,5.905-14.025,12.633-17.597c-0.245-0.144-0.481-0.301-0.708-0.471
		l-1.394-1.046l-1.763-1.329c-7.312,3.831-12.189,11.101-12.958,19.318l0.294,0.028l0.332-0.065
		C168.607,203.414,169.955,203.854,170.861,204.834z"/>
	<path fill="#280068" d="M190.936,181.017c-13.789,0-24.967,11.178-24.967,24.966c0,6.622,2.631,12.973,7.312,17.653
		c9.751,9.751,25.559,9.751,35.309,0c9.75-9.749,9.75-25.558,0-35.307C203.917,183.632,197.561,181,190.936,181.017z
		 M174.125,189.173c1.612-1.613,3.444-2.986,5.444-4.08l2.859,2.15c0.251,0.188,0.515,0.362,0.786,0.523
		c0.885,0.519,1.647,1.225,2.233,2.066l1.653,2.385c0.5,0.716,0.475,1.675-0.059,2.364l-0.768,0.996
		c-0.253,0.327-0.661,0.496-1.072,0.444l-0.87-0.111c-1.492-0.193-2.954,0.529-3.71,1.83c-0.247,0.41-0.714,0.63-1.186,0.561
		l-1.991-0.253c-1.444-0.188-2.871,0.457-3.684,1.665c-0.778,1.147-0.8,2.645-0.059,3.815l1.326,2.096
		c0.924,1.447,2.806,1.941,4.322,1.136l1.365-0.731c0.595-0.316,1.312-0.299,1.89,0.045l2.592,1.556
		c0.201,0.12,0.433,0.182,0.667,0.176c0.959-0.028,1.905,0.478,2.527,1.347l1.27,1.767c0.098,0.137,0.203,0.272,0.313,0.401
		l1.66,1.952c0.049,0.058,0.07,0.134,0.057,0.208c-0.016,0.072-0.059,0.136-0.119,0.177l-2.492,1.915
		c-0.766,0.585-1.329,1.396-1.611,2.318l-0.838,2.717c-0.043,0.141-0.114,0.271-0.208,0.385l-0.816,0.979
		c-0.687,0.813-1.11,1.815-1.211,2.874c-0.024,0.259-0.188,0.481-0.426,0.582c-0.02,0.008-0.042,0.004-0.059-0.011
		c-0.011-0.015-0.017-0.031-0.02-0.05l-0.763-4.589c-0.114-0.667-0.385-1.298-0.796-1.835l-2.814-3.69
		c-0.208-0.271-0.361-0.581-0.452-0.91l-0.928-3.351c-0.39-1.393-1.482-2.48-2.877-2.865l-0.202-0.055
		c-0.315-0.087-0.606-0.249-0.844-0.473l-1.733-1.631c-0.232-0.219-0.433-0.471-0.593-0.746c-0.925-1.59-2.731-2.45-4.548-2.164
		C167.979,197.799,170.369,192.908,174.125,189.173z M207.746,222.794c-9.284,9.283-24.335,9.283-33.621,0
		c-4.458-4.458-6.963-10.505-6.962-16.811c0-0.566,0.021-1.129,0.06-1.689l0.19-0.038c1.364-0.265,2.748,0.364,3.445,1.566
		c0.219,0.374,0.49,0.715,0.806,1.013l1.733,1.631c0.381,0.357,0.843,0.617,1.348,0.755l0.204,0.055
		c0.989,0.273,1.763,1.043,2.039,2.033l0.93,3.351c0.132,0.476,0.353,0.921,0.653,1.314l2.814,3.69
		c0.292,0.383,0.486,0.832,0.565,1.309l0.765,4.589c0.092,0.611,0.618,1.063,1.236,1.063c0.165,0,0.329-0.034,0.481-0.097
		c0.647-0.27,1.091-0.875,1.153-1.574c0.082-0.818,0.409-1.591,0.942-2.218l0.814-0.98c0.194-0.234,0.342-0.504,0.431-0.796
		l0.838-2.718c0.209-0.685,0.628-1.287,1.197-1.723l2.493-1.914c0.303-0.227,0.507-0.562,0.57-0.936
		c0.068-0.419-0.051-0.846-0.326-1.17l-1.661-1.951c-0.087-0.104-0.172-0.213-0.251-0.323l-1.269-1.768
		c-0.854-1.191-2.174-1.88-3.529-1.844c-0.008,0-0.015-0.002-0.021-0.005l-2.593-1.556c-0.939-0.561-2.102-0.588-3.067-0.075
		l-1.366,0.731c-0.965,0.513-2.162,0.197-2.75-0.723l-1.326-2.096c-0.488-0.77-0.473-1.753,0.038-2.506
		c0.562-0.835,1.547-1.281,2.544-1.151l1.991,0.252c0.948,0.13,1.881-0.319,2.369-1.143c0.515-0.887,1.511-1.379,2.526-1.248
		l0.87,0.111c0.833,0.104,1.656-0.238,2.169-0.9l0.766-0.994c0.854-1.101,0.893-2.63,0.096-3.773l-1.653-2.385
		c-0.686-0.986-1.577-1.81-2.611-2.417c-0.233-0.136-0.457-0.286-0.673-0.446l-2.393-1.8c8.144-3.842,17.757-2.767,24.85,2.78
		l-0.622,0.866c-1.506,1.643-2.834,3.443-3.958,5.368l-0.904,1.543c-0.374,0.663-0.289,1.49,0.215,2.063
		c0.439,0.503,1.05,0.827,1.713,0.907l0.434,0.053c1.458,0.181,2.671,1.203,3.099,2.608c0.408,1.357-0.009,2.828-1.07,3.767
		l-4.271,3.793c-0.545,0.49-0.854,1.19-0.845,1.923v1.007c-0.01,0.688,0.333,1.334,0.911,1.712c0.896,0.576,1.477,1.533,1.575,2.592
		l0.095,0.981c0.088,0.897,0.849,1.578,1.751,1.564h2.513c1.515,0.01,2.892-0.879,3.505-2.265l0.151-0.332
		c0.535-1.229,1.726-2.044,3.066-2.097l0.591-0.024l0.019-0.001C212.408,216.882,210.413,220.137,207.746,222.794z M213.924,212.072
		l-0.293,0.029c-0.046,0.004-0.093,0.008-0.138,0.01l-0.591,0.027c-1.795,0.075-3.388,1.168-4.104,2.816l-0.151,0.319
		c-0.424,0.952-1.372,1.561-2.413,1.552h-2.513c-0.289,0.012-0.538-0.203-0.569-0.489l-0.1-0.993
		c-0.131-1.419-0.906-2.699-2.104-3.472c-0.236-0.154-0.374-0.42-0.365-0.703v-1.007c-0.007-0.391,0.154-0.767,0.443-1.03
		l4.281-3.792c1.41-1.25,1.963-3.206,1.417-5.009c-0.565-1.857-2.17-3.208-4.098-3.445l-0.435-0.054
		c-0.372-0.045-0.714-0.227-0.961-0.509c-0.166-0.187-0.197-0.459-0.079-0.679l0.899-1.537c1.089-1.861,2.375-3.602,3.833-5.19
		c0.016-0.018,0.031-0.036,0.045-0.057l0.593-0.828c0.419,0.365,0.826,0.746,1.224,1.141c4.472,4.448,6.979,10.501,6.963,16.811
		C214.71,208.039,214.446,210.084,213.924,212.072L213.924,212.072z"/>
</g>
<g display="none">
	<g display="inline">
		<path fill="#97DE3D" d="M216.06,201.428h-8.593c-6.012,0-11.555,2.933-14.986,7.829v14.361h-2.933v-5.563
			c-3.431-4.896-8.974-7.83-14.986-7.83h-8.592c0.205-0.294,1.906-8.798,10.381-8.798c5.425,0,9.883,4.253,10.235,9.59
			c1.056,0.732,2.053,1.555,2.962,2.463V199.96c0-4.046-3.284-7.332-7.332-7.332h-7.331v-1.466c0-4.048,3.285-7.332,7.331-7.332
			c4.048,0,7.332,3.284,7.332,7.332c0,0.499-0.058,0.997-0.146,1.466c0.293,0.293,0.527,0.616,0.792,0.938
			c0.235-0.615,0.499-1.201,0.822-1.759c0.439-0.762,0.996-1.495,1.612-2.112c-0.088-0.468-0.147-0.967-0.147-1.465
			c0-4.047,3.286-7.332,7.332-7.332c4.048,0,7.332,3.285,7.332,7.332v1.465h-7.332c-4.046,0-7.332,3.285-7.332,7.333v7.653
			c0.909-0.909,1.907-1.73,2.962-2.462c0.411-5.426,4.839-9.59,10.236-9.59C214.182,192.629,215.824,201.076,216.06,201.428
			L216.06,201.428z"/>
		<g>
			<path fill="#59C36A" d="M216.06,201.428h-8.593c-6.012,0-11.555,2.933-14.986,7.829v14.361h-1.465v-31.811
				c0.439-0.762,0.996-1.495,1.612-2.112c-0.088-0.468-0.147-0.967-0.147-1.465c0-4.047,3.286-7.332,7.332-7.332
				c4.048,0,7.331,3.285,7.331,7.332v1.465h-7.331c-4.046,0-7.332,3.285-7.332,7.333v7.653c0.909-0.909,1.907-1.73,2.962-2.462
				c0.411-5.426,4.839-9.59,10.236-9.59C214.182,192.629,215.824,201.076,216.06,201.428L216.06,201.428z"/>
		</g>
		<path fill="#704C55" d="M208.611,228.017c-3.955,0-5.823-1.244-7.985-2.686c-2.234-1.491-4.768-3.179-9.61-3.179
			c-4.844,0-7.378,1.688-9.611,3.179c-2.163,1.442-4.032,2.686-7.986,2.686h-4.398v2.933h43.99v-2.933H208.611z"/>
		<path fill="#5A344B" d="M213.009,230.95v-2.933h-4.398c-3.955,0-5.823-1.244-7.985-2.686c-2.234-1.491-4.768-3.179-9.61-3.179
			v8.798C191.533,230.95,213.97,230.95,213.009,230.95z"/>
	</g>
</g>
<g display="none">
	<path display="inline" fill="#A79BA7" d="M210.764,204.894c-0.168,0-0.336-0.057-0.476-0.172c-0.315-0.262-0.358-0.731-0.097-1.046
		l3.442-4.137c0.547-0.658,0.849-1.491,0.849-2.346c0-2.022-1.646-3.668-3.668-3.668h-8.025c-3.467,0-6.287-2.82-6.287-6.286
		s2.82-6.287,6.287-6.287h12.437c0.41,0,0.743,0.333,0.743,0.743c0,0.411-0.333,0.743-0.743,0.743h-12.437
		c-2.646,0-4.8,2.153-4.8,4.8c0,2.647,2.153,4.8,4.8,4.8h8.025c2.842,0,5.154,2.313,5.154,5.155c0,1.202-0.424,2.373-1.192,3.296
		l-3.441,4.137C211.188,204.802,210.977,204.894,210.764,204.894z"/>
	<path display="inline" fill="#B5ADB6" d="M209.244,207.847l-2.102-2.101l2.5-2.498c0.58-0.58,1.521-0.58,2.101,0
		c0.581,0.58,0.581,1.521,0,2.102L209.244,207.847z"/>
	<path display="inline" fill="#B5ADB6" d="M180.088,216.152l-2.102,2.103l-2.498-2.5c-0.58-0.58-0.58-1.521,0-2.102
		c0.581-0.58,1.522-0.58,2.102,0L180.088,216.152z"/>
	<path display="inline" fill="#B5ADB6" d="M201.208,221.799h-8.17v-2.853c0-0.436,0.353-0.788,0.787-0.788h6.596
		c0.435,0,0.787,0.353,0.787,0.788V221.799z"/>
	<path display="inline" fill="#FEE97D" d="M215.192,222.589c-1.604-5.507-3.209-11.015-4.814-16.522
		c-0.313-1.074-1.334-1.782-2.451-1.701c-5.389,0.394-12.529,1.667-20.064,5.321c-2.93,1.421-5.473,2.985-7.646,4.527
		c-4.289,3.237-7.875,7.312-10.542,11.976l-0.752,1.316l-0.996,1.486l41.929-1.486l0.572-1.227c0.682-1.458,2.146-2.391,3.758-2.391
		C214.865,223.89,215.364,223.247,215.192,222.589z M206.854,220.583l-14.693,0.966c-2.06,0.136-3.805-1.498-3.805-3.562l0,0
		c0-1.297,0.703-2.493,1.838-3.121c1.666-0.922,3.554-1.849,5.66-2.702c3.143-1.273,6.072-2.103,8.625-2.651
		c0.836-0.18,1.664,0.336,1.865,1.166l1.937,7.961C208.512,219.591,207.83,220.519,206.854,220.583z"/>
	<path display="inline" fill="#FEDF30" d="M215.192,222.589c-1.604-5.507-3.209-11.015-4.814-16.522
		c-0.312-1.071-1.329-1.783-2.441-1.702c-0.194,0.014-0.391,0.03-0.588,0.046c0.02,0.055,0.04,0.111,0.057,0.169
		c1.604,5.507,3.209,11.014,4.814,16.522c0.17,0.658-0.325,1.299-1.004,1.301c-1.578,0.004-3.035,0.84-3.703,2.27
		c-0.385,0.822-1.209,1.347-2.117,1.347h-35.62c-0.033,0.058-0.068,0.114-0.101,0.171l-0.752,1.316l-0.996,1.486l41.929-1.486
		l0.629-1.348c0.693-1.379,2.125-2.266,3.703-2.27C214.867,223.888,215.363,223.247,215.192,222.589z"/>
	<path display="inline" fill="#B5ADB6" d="M210.117,230.95h-44.148c0-1.902,1.542-3.443,3.444-3.443h40.705
		c0.951,0,1.722,0.771,1.722,1.721C211.839,230.179,211.069,230.95,210.117,230.95z"/>
	<path display="inline" fill="#A79BA7" d="M210.117,227.507h-2.974c0.951,0,1.722,0.771,1.722,1.721
		c0,0.951-0.771,1.723-1.722,1.723h2.974c0.951,0,1.722-0.771,1.722-1.723C211.839,228.277,211.069,227.507,210.117,227.507z"/>
	<path display="inline" fill="#FEDF30" d="M191.445,221.524C191.445,221.524,191.445,221.524,191.445,221.524
		c-1.732-0.234-3.089-1.718-3.089-3.537l0,0c0-1.297,0.703-2.492,1.838-3.121c1.666-0.922,3.554-1.848,5.66-2.702
		c3.143-1.272,6.072-2.103,8.625-2.651c0.404-0.086,0.806-0.01,1.137,0.186l0,0c-1.242-1.63-2.271-1.813-2.745-1.824
		c-0.239-0.006-0.614,0.049-1.366,0.152c-2.042,0.283-3.095,0.41-8.623,2.651c-2.107,0.854-3.995,1.779-5.661,2.702
		c-1.135,0.628-1.838,1.824-1.838,3.121c0.108,0.633,0.371,1.606,1.076,2.553C188.166,221.347,190.994,221.506,191.445,221.524z"/>
</g>
</svg>
