<?xml version="1.0" encoding="utf-8"?>
<!-- Generator: Adobe Illustrator 16.0.3, SVG Export Plug-In . SVG Version: 6.00 Build 0)  -->
<!DOCTYPE svg PUBLIC "-//W3C//DTD SVG 1.1//EN" "http://www.w3.org/Graphics/SVG/1.1/DTD/svg11.dtd">
<svg version="1.1" id="Layer_1" xmlns="http://www.w3.org/2000/svg" xmlns:xlink="http://www.w3.org/1999/xlink" x="0px" y="0px"
	 width="50px" height="50px" viewBox="0 0 50 50" enable-background="new 0 0 50 50" xml:space="preserve">
<g display="none">
	<path display="inline" fill="#A79BA7" d="M44.795,23.943c-0.168,0-0.336-0.057-0.477-0.172c-0.314-0.262-0.357-0.731-0.096-1.046
		l3.441-4.137c0.547-0.658,0.85-1.491,0.85-2.346c0-2.022-1.646-3.668-3.668-3.668H36.82c-3.467,0-6.287-2.82-6.287-6.286
		S33.354,0,36.82,0h12.437C49.667,0,50,0.333,50,0.743c0,0.411-0.333,0.743-0.743,0.743H36.82c-2.646,0-4.801,2.153-4.801,4.8
		s2.153,4.8,4.801,4.8h8.025c2.842,0,5.153,2.313,5.153,5.155c0,1.202-0.424,2.373-1.192,3.296l-3.44,4.137
		C45.219,23.852,45.008,23.943,44.795,23.943z"/>
	<path display="inline" fill="#B5ADB6" d="M43.275,26.896l-2.103-2.102l2.5-2.498c0.58-0.58,1.521-0.58,2.101,0
		c0.582,0.58,0.582,1.521,0,2.102L43.275,26.896z"/>
	<path display="inline" fill="#B5ADB6" d="M14.119,35.202l-2.102,2.103l-2.498-2.5c-0.58-0.58-0.58-1.521,0-2.102
		c0.581-0.58,1.522-0.58,2.102,0L14.119,35.202z"/>
	<path display="inline" fill="#B5ADB6" d="M35.238,40.85h-8.17v-2.854c0-0.436,0.354-0.788,0.787-0.788h6.597
		c0.435,0,0.786,0.353,0.786,0.788V40.85z"/>
	<path display="inline" fill="#FEE97D" d="M49.223,41.639c-1.604-5.507-3.209-11.015-4.813-16.521
		c-0.313-1.074-1.334-1.782-2.451-1.701c-5.39,0.394-12.528,1.667-20.064,5.32c-2.93,1.422-5.473,2.986-7.646,4.527
		c-4.29,3.238-7.876,7.313-10.542,11.977l-0.752,1.316l-0.996,1.485l41.929-1.485l0.572-1.228c0.682-1.458,2.146-2.392,3.758-2.392
		C48.896,42.939,49.395,42.297,49.223,41.639z M40.885,39.633L26.191,40.6c-2.06,0.135-3.804-1.498-3.804-3.563l0,0
		c0-1.297,0.703-2.493,1.838-3.121c1.666-0.922,3.554-1.85,5.66-2.702c3.143-1.272,6.072-2.103,8.625-2.651
		c0.836-0.18,1.664,0.336,1.865,1.166l1.938,7.961C42.543,38.641,41.861,39.568,40.885,39.633z"/>
	<path display="inline" fill="#FEDF30" d="M49.223,41.639c-1.604-5.507-3.209-11.015-4.813-16.521
		c-0.312-1.071-1.329-1.783-2.441-1.702c-0.194,0.014-0.391,0.03-0.588,0.046c0.021,0.055,0.04,0.111,0.058,0.169
		c1.604,5.507,3.209,11.015,4.813,16.522c0.17,0.658-0.325,1.299-1.004,1.301c-1.578,0.004-3.035,0.84-3.703,2.27
		c-0.385,0.822-1.209,1.348-2.117,1.348H3.806c-0.033,0.058-0.068,0.113-0.101,0.171l-0.752,1.315l-0.996,1.486l41.93-1.486
		l0.629-1.348c0.692-1.379,2.125-2.266,3.702-2.27C48.898,42.938,49.395,42.297,49.223,41.639z"/>
	<path display="inline" fill="#B5ADB6" d="M44.148,50H0c0-1.902,1.542-3.443,3.444-3.443h40.705c0.951,0,1.723,0.771,1.723,1.721
		C45.87,49.229,45.1,50,44.148,50z"/>
	<path display="inline" fill="#A79BA7" d="M44.148,46.557h-2.975c0.951,0,1.723,0.771,1.723,1.721c0,0.951-0.771,1.724-1.723,1.724
		h2.975c0.951,0,1.722-0.771,1.722-1.724C45.87,47.327,45.1,46.557,44.148,46.557z"/>
	<path display="inline" fill="#FEDF30" d="M25.476,40.574L25.476,40.574c-1.732-0.234-3.089-1.719-3.089-3.537l0,0
		c0-1.297,0.703-2.492,1.838-3.121c1.666-0.922,3.554-1.848,5.66-2.702c3.143-1.272,6.072-2.103,8.625-2.651
		c0.404-0.086,0.807-0.01,1.137,0.187l0,0c-1.242-1.63-2.271-1.813-2.744-1.824c-0.239-0.006-0.614,0.05-1.366,0.152
		c-2.042,0.282-3.095,0.409-8.623,2.651c-2.107,0.854-3.995,1.778-5.661,2.701c-1.135,0.629-1.838,1.824-1.838,3.121
		c0.108,0.633,0.371,1.606,1.076,2.553C22.197,40.396,25.025,40.557,25.476,40.574z"/>
</g>
<g id="surface1" display="none">
	<path display="inline" fill="#0784FF" d="M29.548,42.53c0,2.604-2.034,4.717-4.545,4.717s-4.546-2.111-4.546-4.717
		c0-2.607,2.035-4.72,4.546-4.72C27.514,37.813,29.548,39.923,29.548,42.53z"/>
	<path display="inline" fill="#0784FF" d="M43.186,47.247l-18.184-2.358L6.819,47.247c-2.511,0-4.546-2.111-4.546-4.717V11.862
		c0-2.605,2.035-4.718,4.546-4.718l13.637-2.359c2.511,0,4.546,2.113,4.546,4.718c0-2.605,2.035-4.718,4.546-4.718l13.638,2.359
		c2.512,0,4.547,2.113,4.547,4.718V42.53C47.732,45.136,45.695,47.247,43.186,47.247z"/>
	<path display="inline" fill="#005EEE" d="M3.409,40.148c-0.627,0-1.136,0.528-1.136,1.181v1.201c0,2.604,2.035,4.717,4.546,4.717
		l14.565-1.89c0.853,1.187,2.193,1.888,3.619,1.89h0.05h0.005h0.014h0.006h0.002h0.009h0.014l0.005-0.002h0.004h0.006h0.008h0.006
		h0.004h0.004h0.006h0.003h0.005h0.004h0.006l0.004-0.002h0.008h0.002h0.008h0.004h0.004h0.005h0.005h0.004h0.006h0.003h0.005h0.004
		h0.005l0.005-0.002h0.005h0.003h0.008h0.002l0.009-0.002h0.003h0.005h0.005h0.005h0.004h0.005l0.004-0.003H25.3h0.004h0.005h0.003
		l0.005-0.002h0.004h0.006h0.004l0.008-0.002h0.002h0.008h0.003h0.006h0.004h0.004h0.005l0.005-0.002h0.004h0.005h0.004l0.004-0.002
		h0.005h0.006l0.01-0.002h0.002h0.009h0.003h0.009l0.006-0.002h0.004l0.004-0.002h0.005h0.006h0.003h0.005h0.005h0.004h0.004
		l0.006-0.002h0.004h0.006H25.5l0.008-0.003l0.004-0.002h0.006h0.004h0.004h0.004l0.006-0.002h0.005h0.005l0.003-0.002h0.007h0.004
		l0.004-0.002h0.004h0.006h0.004l0.008-0.002h0.002l0.01-0.002h0.002h0.006l0.004-0.002h0.004h0.005l0.006-0.002h0.003h0.006h0.003
		l0.005-0.002h0.006h0.004l0.004-0.002h0.008l0.002-0.002l0.009-0.003h0.002h0.007l0.012-0.002h0.008l0.003-0.002h0.005l0.004-0.002
		h0.006h0.004h0.006l0.004-0.002h0.004l0.004-0.002l0.008-0.002h0.002l0.008-0.002h0.003h0.007h0.004l0.006-0.002h0.002l0.006-0.002
		h0.004l0.006-0.002h0.004l0.005-0.002h0.003l0.006-0.003h0.004h0.006l0.002-0.002h0.01h0.002l0.012-0.002l0.004-0.002h0.004
		l0.006-0.002h0.004l0.005-0.002h0.004h0.005l0.004-0.002l0.006-0.002h0.004l0.004-0.002H25.9h0.004l0.004-0.003l0.008-0.002h0.004
		l0.005-0.002h0.005h0.004l0.006-0.002l0.004-0.002h0.004l0.006-0.002h0.004l0.004-0.002h0.004l0.004-0.002h0.004l0.006-0.002h0.004
		l0.006-0.002h0.004L26,47.129h0.004h0.006l0.004-0.002h0.004l0.01-0.002l0.004-0.002h0.005l0.003-0.002l0.005-0.003h0.005
		l0.006-0.002h0.004l0.004-0.002l0.013-0.002h0.001l0.007-0.003l0.003-0.002h0.006l0.004-0.002H26.1l0.006-0.002h0.004l0.006-0.002
		L26.12,47.1h0.003l0.004-0.002l0.004-0.002h0.004l0.01-0.002l0.004-0.002l0.01-0.002h0.003l0.006-0.002l0.004-0.002h0.005
		l0.004-0.002h0.004l0.004-0.002l0.004-0.002l0.006-0.002H26.2l0.005-0.002h0.005l0.013-0.004l0.006-0.002l0.004-0.002l0.006-0.004
		l0.022-0.006h0.005l0.004-0.002h0.004l0.004-0.002h0.006l0.003-0.002l0.004-0.002l0.004-0.002h0.004l0.007-0.002l0.002-0.002h0.01
		l0.004-0.002l0.005-0.002l0.004-0.002l0.004-0.002h0.005l0.003-0.002l0.004-0.002h0.005l0.004-0.002l0.022-0.008h0.003l0.005-0.002
		h0.001l0.012-0.006l0.004-0.002l0.006-0.002l0.007-0.002l0.005-0.002h0.004l0.003-0.002l0.005-0.002l0.026-0.008
		c0.008-0.004,0.013-0.004,0.019-0.008h0.004l0.006-0.002l0.004-0.002l0.004-0.002h0.003l0.006-0.002h0.002l0.005-0.002l0.014-0.006
		l0.004-0.002h0.004l0.005-0.002h0.002l0.013-0.008h0.001l0.005-0.002l0.002-0.002h0.006l0.004-0.002l0.006-0.002l0.003-0.002
		l0.005-0.002h0.004l0.005-0.002l0.003-0.002h0.004l0.004-0.002l0.006-0.002l0.002-0.002c0.006-0.002,0.014-0.004,0.021-0.008h0.001
		l0.006-0.002h0.002l0.006-0.002l0.002-0.002l0.006-0.002l0.002-0.003l0.006-0.002h0.003l0.005-0.002l0.003-0.002l0.006-0.003
		l0.002-0.002l0.007-0.002l0,0c0.008-0.004,0.016-0.006,0.021-0.01l0.007-0.002h0.002l0.004-0.002l0.005-0.002l0.004-0.002
		l0.004-0.002h0.004l0.004-0.002l0.006-0.002l0.002-0.002l0.006-0.003h0.001c0.011-0.004,0.021-0.01,0.028-0.014l0,0l0.007-0.002
		l0.002-0.002l0.005-0.003h0.003l0.005-0.004l0.002-0.002h0.006l0.002-0.002l0.006-0.002l0.004-0.002l0.006-0.002v-0.002
		c0.01-0.002,0.02-0.009,0.027-0.011l0.002-0.002l0.006-0.002l0.002-0.002l0.005-0.002h0.004l0.005-0.004l0.001-0.002l0.006-0.002
		h0.003l0.006-0.005h0.002c0.012-0.006,0.022-0.012,0.035-0.019l0,0l0.006-0.002l0.002-0.002l0.006-0.002h0.002l0.006-0.004h0.001
		l0.007-0.002l0.001-0.002l0.006-0.002l0.002-0.002c0.013-0.007,0.023-0.013,0.035-0.019l0,0l0.007-0.005l0.008-0.004h0.002
		L27,46.759l0.009-0.006c0.013-0.008,0.026-0.014,0.042-0.021h0.001l0.007-0.004l0,0l0.006-0.004h0.002l0.006-0.002l0.001-0.004
		l0.007-0.004c0.012-0.006,0.025-0.012,0.037-0.02l0.006-0.004l0,0l0.007-0.002h0.001l0.008-0.004v-0.002l0.006-0.004
		c0.021-0.011,0.039-0.021,0.059-0.033c0.021-0.014,0.045-0.027,0.068-0.041c0.541-0.33,0.72-1.055,0.4-1.615
		c-0.316-0.559-1.012-0.747-1.553-0.418c-0.338,0.207-0.722,0.313-1.114,0.313c-0.713-0.004-1.381-0.355-1.805-0.951
		c-0.488-0.674-1.289-1.023-2.095-0.918L6.702,44.885c-1.208-0.064-2.154-1.1-2.155-2.354V41.33
		C4.546,40.678,4.036,40.148,3.409,40.148z M31.457,43.357c-0.626,0.002-1.135,0.531-1.134,1.181
		c0.001,0.596,0.427,1.096,0.995,1.169l6.807,0.883l0.005,0.002l0.042,0.006h0.01l0.354,0.047l0.006,0.002h0.011l0.004,0.002h0.021
		l0.016,0.004l0.056,0.008h0.017l0.313,0.042l0.013,0.002l0.016,0.002h0.011l0.01,0.002h0.002l0.246,0.034h0.006l0.258,0.031h0.001
		l0.062,0.009l0.006,0.002l0.043,0.006h0.006l0.078,0.01l0.01,0.002h0.008l0.092,0.013h0.002l0.029,0.004h0.001l0.017,0.004h0.002
		l0.027,0.003l0.006,0.002l0.01,0.002h0.002l0.043,0.004l0.02,0.004l0.025,0.002l0.008,0.002l0.012,0.002h0.008l0.039,0.007H40.1
		l0.008,0.002l0.023,0.002l0.01,0.002h0.02l0.057,0.01h0.01h0.004l0.021,0.004l0.012,0.002l0.023,0.003l0.008,0.002h0.001
		l0.044,0.004l0.008,0.002h0.002l0.012,0.002l0.023,0.005l0.021,0.002l0.046,0.006l0.014,0.002l0.011,0.002l0.021,0.002h0.007
		l0.02,0.004h0.008l0.025,0.002l0.006,0.002l0.056,0.006l0.028,0.004h0.002l0.022,0.004l0.009,0.003l0.022,0.002h0.004l0.024,0.005
		h0.004l0.127,0.018l0,0h0.012l0.006,0.002l0.02,0.002l0.013,0.002l0.015,0.002h0.006l0.026,0.002l0.008,0.002l0.05,0.006
		l0.004,0.002l0.117,0.016l0.04,0.006h0.007l0.021,0.004h0.005l0.011,0.002l0.031,0.004l0.007,0.002h0.005h0.014l0.05,0.008
		l0.009,0.002l0.02,0.002h0.01h0.007l0.019,0.004l0.031,0.004l0.018,0.002h0.013l0.094,0.016h0.002l0.097,0.014h0.002l0.045,0.006
		h0.004h0.011l0.028,0.006h0.004h0.007l0.043,0.004h0.002l0.136,0.02l0.006,0.002l0.086,0.01l0.082,0.012l0.006,0.003h0.008h0.002
		c0.193,0.024,0.363,0.048,0.511,0.063l0.002,0.003l0.062,0.008h0.002l0.006,0.002l0,0c0.078,0.011,0.148,0.021,0.207,0.027h0.003
		l0.159,0.021l0,0l0.133,0.018h0.043h0.005h0.021l0.006-0.002h0.017h0.002h0.015h0.002h0.01h0.004h0.008l0.004-0.002h0.007h0.007
		h0.002h0.008l0,0h0.008h0.002h0.007h0.002h0.005h0.004l0.004-0.002h0.004h0.002H43.4h0.004h0.002h0.006h0.004h0.007h0.001h0.008
		h0.002h0.006h0.002h0.004l0.005-0.002h0.004h0.004h0.004h0.005l0.004-0.002h0.004h0.004h0.004h0.004h0.004h0.006h0.002l0.007-0.002
		h0.001h0.008h0.002H43.5l0.004-0.002h0.004h0.004h0.006h0.002h0.004l0.004-0.002h0.006h0.001h0.007h0.001h0.007h0.001l0.017-0.002
		h0.002h0.006h0.004l0.004-0.002h0.004h0.004h0.002h0.006l0.002-0.002h0.006h0.002h0.006h0.01h0.001l0.017-0.006l0,0h0.006h0.002
		h0.008h0.002h0.005h0.003h0.005h0.003l0.006-0.002h0.002h0.006l0.002-0.002h0.006l0,0l0.008-0.002h0.001h0.009h0.001h0.007h0.002
		l0.006-0.002h0.002l0.006-0.002h0.002h0.006h0.003h0.004l0.003-0.002h0.006h0.002h0.008l0,0l0.016-0.004h0.008h0.002l0.006-0.002
		h0.002H43.8h0.005l0.004-0.002h0.004h0.004h0.004l0.005-0.002h0.003h0.006l0.001-0.002c0.008,0,0.015-0.002,0.022-0.004h0.002
		h0.006h0.002l0.006-0.002h0.002h0.006h0.002l0.006-0.002h0.002l0.006-0.002h0.002h0.008h0.001c0.007-0.002,0.015-0.004,0.021-0.006
		h0.002h0.006l0.008-0.002h0.002h0.006l0.004-0.002h0.004h0.002l0.005-0.002h0.003l0.006-0.002h0.002h0.006l0.002-0.002L44,47.178
		h0.001l0.008-0.002h0.001h0.006h0.002l0.006-0.002h0.002h0.004l0.003-0.002h0.006l0.002-0.002h0.006l0.002-0.002h0.007l0,0
		l0.016-0.004l0,0l0.009-0.002h0.002h0.006h0.001l0.006-0.002h0.002l0.006-0.002h0.002l0.008-0.002l0,0h0.008l0,0l0.007-0.002l0,0
		l0.017-0.004l0,0l0.006-0.002h0.002l0.006-0.002h0.003l0.006-0.002h0.002l0.005-0.002h0.004l0.004-0.002h0.002l0.006-0.002h0.002
		h0.006l0.002-0.002l0.007-0.003l0,0l0.017-0.002l0,0l0.008-0.002h0.002l0.004-0.003h0.002l0.006-0.002h0.002l0.006-0.002h0.002
		l0.005-0.002h0.002h0.007h0.002c0.008-0.004,0.014-0.006,0.021-0.006h0.002l0.006-0.002l0.002-0.002l0.005-0.002h0.004l0.004-0.002
		h0.004L44.311,47.1h0.002h0.006l0.002-0.002l0.006-0.002h0.002l0.005-0.002l0,0l0.017-0.004l0,0l0.008-0.002l0,0l0.008-0.002h0.001
		l0.006-0.002l0.002-0.002h0.005h0.002l0.006-0.002h0.002l0.004-0.002h0.002l0.008-0.002v-0.002l0.017-0.006l0,0l0.007-0.002h0.002
		l0.006-0.002l0.002-0.002h0.004h0.004l0.004-0.002l0.003-0.002h0.005h0.002l0.007-0.002h0.002l0.007-0.004l0,0
		c0.008-0.002,0.016-0.004,0.021-0.004v-0.002l0.006-0.002h0.002l0.006-0.002l0.001-0.002h0.007l0.002-0.002l0.006-0.002h0.002
		h0.007v-0.002l0.008-0.002l0,0c0.007-0.004,0.013-0.006,0.021-0.008l0.01-0.002l0.005-0.004l0.002-0.002l0.005-0.002h0.003h0.005
		l0.002-0.002l0.006-0.002H44.6l0.004-0.002H44.6h0.008v-0.002h0.008h0.001l0.007-0.004h0.002l0.006-0.002L44.632,47l0.005-0.002
		h0.002l0.008-0.002l0.004-0.002l0.002-0.002h0.005h0.004l0.004-0.004h0.003l0.004-0.002h0.003l0.007-0.002l0.004-0.002l0.004-0.002
		l0.002-0.002l0.006-0.002H44.7h0.003l0.004-0.002l0.004-0.002l0.003-0.004l0.004-0.002h0.003l0.004-0.002h0.004l0.004-0.002h0.004
		l0.005-0.002l0.001-0.002l0.015-0.004l0.002-0.002l0.005-0.002h0.004l0.004-0.002h0.002l0.004-0.004h0.004h0.004l0.003-0.002
		l0.003-0.002l0.005-0.002l0.007-0.002l0.004-0.002h0.002l0.006-0.002l0.002-0.002l0.008-0.002l0.001-0.003l0.005-0.002h0.003
		l0.004-0.002h0.003l0.006-0.002l0.002-0.003l0.004-0.002l0.002-0.002l0.004-0.002h0.004l0.005-0.002l0.003-0.002l0.003-0.002
		l0.003-0.002h0.004l0.006-0.002h0.004l0.004-0.002l0.004-0.002l0.004-0.002l0.002-0.002H44.9l0.002-0.002l0.005-0.002l0.003-0.002
		h0.004l0.003-0.002l0.003-0.003l0.003-0.002h0.005l0.002-0.002l0.006-0.002l0,0c0.006-0.004,0.01-0.006,0.016-0.006l0.004-0.002
		l0.003-0.002l0.004-0.003h0.004l0.002-0.002l0.005-0.002l0.002-0.002h0.004l0.002-0.002l0.008-0.004l0.005-0.002h0.002L45,46.85
		l0,0c0.008-0.004,0.018-0.009,0.023-0.011l0.006-0.004h0.002l0.005-0.004h0.002l0.005-0.002h0.001l0.007-0.004l0,0l0.006-0.002
		h0.002c0.012-0.007,0.023-0.015,0.035-0.021l0,0L45.1,46.8l0.006-0.002l0.002-0.002l0.006-0.002h0.002
		c0.015-0.006,0.027-0.014,0.043-0.021l0.007-0.004l0,0l0.006-0.004l0,0c0.572-0.289,1.081-0.699,1.491-1.205
		c0.402-0.5,0.34-1.242-0.143-1.66c-0.479-0.418-1.191-0.354-1.598,0.141c-0.404,0.5-0.99,0.801-1.617,0.835L31.6,43.357
		C31.553,43.361,31.505,43.357,31.457,43.357z"/>
	<path display="inline" fill="#B8C2FF" d="M4.546,4.786h40.912c2.511,0,4.547,2.113,4.547,4.718v28.309
		c0,2.604-2.036,4.719-4.547,4.719H4.546C2.036,42.53,0,40.417,0,37.813V9.504C0,6.898,2.036,4.786,4.546,4.786z"/>
	<path display="inline" fill="#7388FF" d="M46.596,7.145c1.883,0,3.409,1.584,3.409,3.539v25.947c0,1.956-1.526,3.541-3.409,3.541
		s-3.41-1.585-3.41-3.541V10.684C43.186,8.729,44.713,7.145,46.596,7.145z"/>
	<path display="inline" fill="#DFE5FF" d="M25.003,42.53L6.366,40.595c-2.323-0.241-4.093-2.269-4.093-4.692V7.641
		c0-2.606,2.035-4.718,4.546-4.718c0.15,0,0.301,0.008,0.452,0.023l17.731,1.84L25.003,42.53L25.003,42.53z"/>
	<path display="inline" fill="#CCD4FF" d="M25.003,42.53l18.636-1.937c2.323-0.24,4.094-2.269,4.094-4.691V7.641
		c0-2.606-2.035-4.718-4.547-4.718c-0.15,0-0.302,0.008-0.451,0.023l-17.73,1.84L25.003,42.53L25.003,42.53z"/>
	<path display="inline" fill="#B8C2FF" d="M43.186,4.786c-1.254,0-2.271,1.056-2.271,2.358l0,0v28.308H31.82
		c-1.256,0-2.271,1.058-2.271,2.358c0,1.304,1.018,2.358,2.271,2.358h9.093c2.511,0,4.545-2.11,4.545-4.718V7.145
		C45.458,5.842,44.439,4.786,43.186,4.786L43.186,4.786z"/>
	<path display="inline" fill="#EFF2FF" d="M25.003,2.427L10.818,0.049C9.73-0.093,8.638,0.295,7.861,1.102
		C7.194,1.794,6.819,2.734,6.819,3.713V33.59c0,2.403,1.742,4.424,4.043,4.688l14.14,1.893L25.003,2.427L25.003,2.427z"/>
	<path display="inline" fill="#DFE5FF" d="M25.003,2.427l14.185-2.398c1.088-0.141,2.181,0.247,2.957,1.054
		c0.668,0.693,1.041,1.632,1.041,2.612v29.429c0,2.403-1.74,4.422-4.043,4.688l-14.14,2.359V2.427L25.003,2.427z"/>
	<path display="inline" fill="#CCD4FF" d="M27.275,2.427c1.254,0,2.271,1.057,2.271,2.359v33.026c0,1.303-1.018,2.357-2.271,2.357
		c-1.256,0-2.272-1.056-2.272-2.357V4.786C25.003,3.483,26.02,2.427,27.275,2.427z"/>
	<path display="inline" fill="#A4B1FF" d="M26.139,4.786c0.629,0,1.139,0.528,1.139,1.18v30.666c0,0.653-0.51,1.181-1.139,1.181
		c-0.627,0-1.136-0.526-1.136-1.181V5.965C25.003,5.313,25.512,4.786,26.139,4.786z"/>
	<path display="inline" fill="#A4B1FF" d="M31.82,2.427c1.256,0,2.273,1.057,2.273,2.359v18.872c0,1.303-1.019,2.359-2.273,2.359
		c-1.256,0-2.272-1.057-2.272-2.359V4.786C29.548,3.483,30.564,2.427,31.82,2.427z"/>
	<path display="inline" fill="#002755" d="M21.594,26.018c-0.075,0-0.15-0.009-0.224-0.023l-11.365-2.359
		c-0.615-0.127-1.014-0.748-0.891-1.387c0.124-0.639,0.722-1.053,1.338-0.924l11.364,2.358c0.616,0.127,1.015,0.75,0.893,1.387
		C22.601,25.62,22.135,26.018,21.594,26.018z"/>
	<path display="inline" fill="#002755" d="M21.594,18.942c-0.075,0-0.15-0.008-0.224-0.023L10.005,16.56
		c-0.615-0.127-1.014-0.75-0.891-1.388c0.124-0.639,0.722-1.053,1.338-0.925l11.364,2.359c0.616,0.127,1.015,0.75,0.893,1.388
		C22.601,18.544,22.135,18.941,21.594,18.942z"/>
	<path display="inline" fill="#002755" d="M21.594,11.862c-0.075,0-0.15-0.006-0.224-0.022l-5.682-1.18
		c-0.616-0.128-1.015-0.749-0.891-1.388c0.115-0.634,0.703-1.05,1.314-0.93c0.008,0.001,0.016,0.003,0.023,0.005l5.682,1.18
		c0.616,0.127,1.015,0.749,0.893,1.388C22.601,11.466,22.135,11.862,21.594,11.862z"/>
	<path display="inline" fill="#002755" d="M21.594,33.094c-0.075,0.002-0.15-0.006-0.224-0.021l-11.365-2.358
		c-0.615-0.129-1.013-0.751-0.889-1.39s0.722-1.051,1.336-0.924l11.364,2.358c0.616,0.128,1.015,0.749,0.893,1.39
		C22.601,32.699,22.135,33.094,21.594,33.094z"/>
	<path display="inline" fill="#002755" d="M28.411,26.018c-0.628,0-1.136-0.53-1.136-1.181c0-0.562,0.383-1.045,0.912-1.156
		l11.365-2.358c0.615-0.128,1.213,0.285,1.338,0.924c0.123,0.64-0.277,1.26-0.892,1.387l-11.365,2.359
		C28.563,26.009,28.484,26.018,28.411,26.018z"/>
	<path display="inline" fill="#002755" d="M28.411,18.942c-0.628-0.001-1.136-0.53-1.136-1.181c0-0.562,0.383-1.046,0.912-1.156
		l11.365-2.359c0.615-0.128,1.213,0.287,1.338,0.925c0.123,0.638-0.277,1.26-0.892,1.388l-11.365,2.359
		C28.563,18.935,28.484,18.942,28.411,18.942z"/>
	<path display="inline" fill="#002755" d="M28.411,11.862c-0.628,0-1.136-0.529-1.136-1.18c0-0.562,0.383-1.045,0.912-1.155
		l11.365-2.359c0.615-0.128,1.213,0.286,1.338,0.925c0.123,0.639-0.277,1.26-0.892,1.388L28.635,11.84
		C28.563,11.856,28.484,11.862,28.411,11.862z"/>
	<path display="inline" fill="#002755" d="M28.411,33.094c-0.628,0-1.136-0.527-1.136-1.18c0-0.563,0.383-1.046,0.912-1.155
		L39.555,28.4c0.614-0.127,1.213,0.287,1.336,0.927c0.121,0.638-0.277,1.257-0.891,1.386L28.635,33.07
		C28.563,33.088,28.484,33.096,28.411,33.094z"/>
	<path display="inline" fill="#FFD700" d="M29.548,0.068c1.255,0,2.272,1.056,2.272,2.358v18.872c0,1.303-1.019,2.359-2.272,2.359
		s-2.271-1.056-2.271-2.359V2.427C27.275,1.125,28.293,0.068,29.548,0.068z"/>
	<path display="inline" fill="#002755" d="M13.638,7.145c0,1.303-1.018,2.359-2.273,2.359c-1.255,0-2.273-1.056-2.273-2.359
		s1.018-2.359,2.273-2.359C12.62,4.786,13.638,5.842,13.638,7.145z"/>
</g>
<g display="none">
	<path display="inline" fill="#E9224C" d="M46.359,0H3.716c-2.007,0-3.64,1.633-3.64,3.64v5.201c0,2.007,1.633,3.64,3.64,3.64
		h42.643c2.008,0,3.641-1.633,3.641-3.64V3.64C50,1.633,48.367,0,46.359,0z"/>
	<path display="inline" fill="#ED5575" d="M25.038,0H3.716c-2.007,0-3.64,1.633-3.64,3.64v5.201c0,2.007,1.633,3.64,3.64,3.64
		h21.322V0z"/>
	<path display="inline" fill="#FF9B00" d="M29.719,16.641H3.716c-1.997,0-3.64,1.644-3.64,3.641v26.001
		c0,1.998,1.643,3.641,3.64,3.641h26.002c1.997,0,3.64-1.643,3.64-3.641V20.282C33.358,18.285,31.716,16.641,29.719,16.641z"/>
	<circle display="inline" fill="#E9224C" cx="16.717" cy="28.082" r="3.12"/>
	<path display="inline" fill="#E9224C" d="M22.958,37.963c0,0.853-0.707,1.561-1.56,1.561h-9.361c-0.853,0-1.56-0.708-1.56-1.561
		v-0.77c0-2.164,1.955-3.911,4.368-3.911h3.745c2.413,0,4.368,1.747,4.368,3.911V37.963z"/>
	<g display="inline">
		<circle fill="#E9244D" cx="43.76" cy="42.643" r="6.241"/>
		<path fill="#E9244D" d="M48.439,22.882h-9.36c-0.86,0-1.56,0.699-1.56,1.56c0,0.861,0.699,1.56,1.56,1.56h9.36
			c0.861,0,1.561-0.699,1.561-1.56C50,23.581,49.301,22.882,48.439,22.882z"/>
		<path fill="#E9244D" d="M48.439,16.641h-9.36c-0.86,0-1.56,0.699-1.56,1.56s0.699,1.561,1.56,1.561h9.36
			c0.861,0,1.561-0.699,1.561-1.561S49.301,16.641,48.439,16.641z"/>
		<path fill="#E9244D" d="M48.439,29.122h-9.36c-0.86,0-1.56,0.699-1.56,1.561c0,0.86,0.699,1.56,1.56,1.56h9.36
			c0.861,0,1.561-0.699,1.561-1.56C50,29.821,49.301,29.122,48.439,29.122z"/>
	</g>
	<g display="inline">
		<path fill="#FDB646" d="M16.717,16.641H3.716c-1.997,0-3.64,1.644-3.64,3.641v26.001c0,1.998,1.643,3.641,3.64,3.641h13.001v-10.4
			h-4.68c-0.853,0-1.56-0.708-1.56-1.561v-0.77c0-2.164,1.955-3.911,4.368-3.911h1.872v-2.08c-1.727,0-3.12-1.394-3.12-3.12
			s1.394-3.12,3.12-3.12V16.641z"/>
		<g>
			<path fill="#ED5575" d="M16.717,24.962c-1.727,0-3.12,1.394-3.12,3.12s1.394,3.12,3.12,3.12V24.962z"/>
			<path fill="#ED5575" d="M16.717,33.282h-1.872c-2.413,0-4.368,1.747-4.368,3.911v0.77c0,0.853,0.707,1.561,1.56,1.561h4.68
				V33.282z"/>
		</g>
	</g>
	<g display="inline">
		<path fill="#ED5575" d="M43.76,36.402c-3.44,0-6.24,2.801-6.24,6.241s2.8,6.24,6.24,6.24V36.402z"/>
		<path fill="#ED5575" d="M43.76,22.882h-4.681c-0.86,0-1.56,0.699-1.56,1.56c0,0.861,0.699,1.56,1.56,1.56h4.681V22.882z"/>
		<path fill="#ED5575" d="M43.76,16.641h-4.681c-0.86,0-1.56,0.699-1.56,1.56s0.699,1.561,1.56,1.561h4.681V16.641z"/>
		<path fill="#ED5575" d="M43.76,29.122h-4.681c-0.86,0-1.56,0.699-1.56,1.561c0,0.86,0.699,1.56,1.56,1.56h4.681V29.122z"/>
	</g>
</g>
<g display="none">
	<path display="inline" fill="#E6E7E8" d="M42.021,6.662h-5.573c-0.246-0.839-1.016-1.417-1.892-1.42H30.29
		c-0.49-2.131-2.614-3.461-4.745-2.971c-1.479,0.34-2.632,1.494-2.972,2.971h-4.268c-0.875,0.003-1.644,0.581-1.891,1.42H10.84
		C9.746,6.664,8.859,7.55,8.858,8.644v39.375C8.859,49.113,9.746,49.998,10.84,50h31.181c1.095-0.002,1.981-0.887,1.983-1.981V8.644
		C44.003,7.55,43.116,6.664,42.021,6.662L42.021,6.662z"/>
	<path display="inline" fill="#14334E" d="M9.255,5.473h31.183c0.875,0,1.586,0.71,1.586,1.586v39.374
		c0,0.875-0.711,1.586-1.586,1.586H9.255c-0.876,0-1.586-0.711-1.586-1.586V7.059C7.669,6.183,8.379,5.473,9.255,5.473z"/>
	<path display="inline" fill="#FFFFFF" d="M40.438,46.829H9.255c-0.876,0-1.586-0.711-1.586-1.586v1.189
		c0,0.875,0.71,1.586,1.586,1.586h31.183c0.875,0,1.584-0.711,1.584-1.586v-1.189C42.021,46.118,41.313,46.829,40.438,46.829z"/>
	<path display="inline" fill="#F7B267" d="M11.237,8.248h27.219c0.437,0,0.792,0.355,0.792,0.793v35.411
		c0,0.437-0.355,0.792-0.792,0.792H11.237c-0.438,0-0.792-0.355-0.792-0.792V9.041C10.444,8.603,10.799,8.248,11.237,8.248z"/>
	<path display="inline" fill="#FFD7E5" d="M34.342,34.608H15.349c-1.368,0-2.478,1.107-2.478,2.477l0,0
		c0,1.368,1.109,2.477,2.478,2.477l0,0h18.993c1.368,0,2.479-1.108,2.479-2.477l0,0C36.82,35.716,35.71,34.608,34.342,34.608
		L34.342,34.608z"/>
	<path display="inline" fill="#ED5575" d="M15.349,35.797c-0.711,0-1.288,0.577-1.288,1.288s0.577,1.287,1.288,1.287h13.543v-2.575
		H15.349z"/>
	<path display="inline" fill="#ED5575" d="M28.373,4.053c-0.271-1.949-2.07-3.309-4.02-3.037c-1.578,0.22-2.818,1.459-3.038,3.037
		H16.72c-0.875,0-1.585,0.709-1.585,1.585v3.369c0,0.438,0.355,0.793,0.793,0.793h17.837c0.437,0,0.792-0.355,0.792-0.793V5.638
		c0-0.876-0.709-1.585-1.584-1.585H28.373z"/>
	<circle display="inline" fill="#FFFFFF" cx="24.846" cy="4.548" r="1.189"/>
	<path display="inline" fill="#ED5575" d="M33.765,23.749v-1.871c0-0.288-0.234-0.521-0.521-0.521l0,0h-1.26
		c-0.185-0.914-0.546-1.783-1.062-2.56l0.892-0.891c0.204-0.204,0.204-0.534,0-0.738l-1.322-1.323c-0.203-0.204-0.534-0.204-0.737,0
		c0,0,0,0-0.001,0l-0.891,0.892c-0.777-0.516-1.646-0.876-2.56-1.062v-1.259c0-0.288-0.232-0.521-0.521-0.521l0,0H23.91
		c-0.288,0-0.521,0.233-0.521,0.521l0,0v1.259c-0.914,0.186-1.783,0.546-2.56,1.062l-0.891-0.892c-0.204-0.204-0.534-0.204-0.737,0
		v0l-1.323,1.323c-0.203,0.204-0.203,0.534,0,0.738l0,0l0.892,0.891c-0.516,0.777-0.876,1.646-1.062,2.56h-1.259
		c-0.288,0-0.521,0.232-0.521,0.521c0,0,0,0,0,0v1.871c0,0.288,0.233,0.521,0.521,0.521l0,0h1.259
		c0.186,0.914,0.546,1.783,1.062,2.56l-0.892,0.892c-0.203,0.203-0.203,0.533,0,0.735c0,0,0,0,0,0.002l1.323,1.322
		c0.204,0.204,0.533,0.204,0.737,0l0.891-0.891c0.777,0.514,1.646,0.875,2.56,1.061v1.259c0,0.288,0.232,0.522,0.52,0.522
		c0,0,0.001,0,0.001,0h1.871c0.288,0,0.521-0.232,0.521-0.521c0-0.002,0-0.002,0-0.002v-1.259c0.913-0.186,1.782-0.547,2.56-1.061
		l0.891,0.891c0.204,0.204,0.534,0.204,0.738,0l1.322-1.322c0.204-0.204,0.204-0.534,0-0.737l-0.892-0.892
		c0.516-0.777,0.877-1.646,1.062-2.56h1.26C33.53,24.271,33.765,24.038,33.765,23.749C33.765,23.75,33.765,23.75,33.765,23.749z
		 M24.846,27.075c-2.355,0-4.264-1.908-4.264-4.263s1.909-4.264,4.264-4.264s4.264,1.909,4.264,4.264c0,0,0,0.001,0,0.002
		C29.109,25.168,27.2,27.075,24.846,27.075L24.846,27.075z"/>
	<g display="inline">
		<path fill="#14334E" d="M40.438,5.077h-5.574c-0.248-0.84-1.018-1.417-1.891-1.421h-4.27c-0.488-2.131-2.613-3.461-4.744-2.971
			c-1.478,0.34-2.631,1.494-2.972,2.971H16.72c-0.875,0.003-1.645,0.581-1.891,1.421H9.255c-1.094,0.001-1.98,0.888-1.982,1.982
			v39.374c0.001,1.095,0.888,1.981,1.982,1.981h31.183c1.095,0,1.979-0.887,1.981-1.981v-8.984c0-0.22-0.178-0.396-0.396-0.396
			c-0.22,0-0.397,0.176-0.397,0.396v8.984c0,0.657-0.533,1.188-1.188,1.188H9.255c-0.657,0-1.189-0.531-1.189-1.188V7.059
			c0-0.657,0.533-1.189,1.189-1.189h5.483v1.982h-3.501c-0.657,0-1.189,0.532-1.189,1.189v35.411c0,0.655,0.533,1.188,1.189,1.188
			h27.219c0.655,0,1.188-0.533,1.188-1.188V9.041c0-0.657-0.533-1.189-1.188-1.189h-3.502V5.869h5.483
			c0.655,0,1.188,0.532,1.188,1.189v24.84c0,0.22,0.178,0.397,0.397,0.397c0.218,0,0.396-0.178,0.396-0.397V7.059
			C42.417,5.964,41.532,5.078,40.438,5.077z M15.531,5.638c0-0.657,0.532-1.189,1.188-1.189h4.598c0.198,0,0.365-0.146,0.393-0.342
			c0.24-1.732,1.84-2.941,3.572-2.701c1.403,0.195,2.506,1.298,2.702,2.701c0.027,0.196,0.193,0.342,0.393,0.342h4.596
			c0.656,0,1.188,0.532,1.188,1.189v3.369c0,0.219-0.176,0.396-0.396,0.396H15.927c-0.219,0-0.396-0.178-0.396-0.396V5.638z
			 M38.456,8.644c0.219,0,0.395,0.177,0.395,0.396v35.411c0,0.219-0.176,0.395-0.395,0.395H11.237c-0.219,0-0.396-0.176-0.396-0.395
			V9.041c0-0.219,0.178-0.396,0.396-0.396h3.501v0.363c0,0.657,0.533,1.189,1.189,1.189h17.837c0.656,0,1.189-0.532,1.189-1.189
			V8.644H38.456z"/>
		<path fill="#14334E" d="M42.023,32.938c-0.22,0-0.397,0.178-0.397,0.397v2.724c0,0.22,0.178,0.397,0.397,0.397
			c0.218,0,0.396-0.178,0.396-0.397v-2.724C42.419,33.116,42.241,32.938,42.023,32.938z"/>
		<path fill="#14334E" d="M15.349,34.211c-1.587,0-2.874,1.285-2.874,2.874c0,1.586,1.287,2.874,2.874,2.874h18.993
			c1.588,0,2.874-1.288,2.874-2.874c0-1.589-1.286-2.874-2.874-2.874H15.349z M36.423,37.085c0,1.147-0.932,2.079-2.081,2.081
			H15.349c-1.149,0-2.081-0.932-2.081-2.081s0.932-2.082,2.081-2.082h18.993C35.491,35.005,36.423,35.936,36.423,37.085z"/>
		<path fill="#14334E" d="M24.846,6.133c0.875,0,1.585-0.709,1.585-1.585s-0.711-1.585-1.585-1.585
			c-0.876,0-1.586,0.709-1.586,1.585S23.97,6.133,24.846,6.133z M24.846,3.755c0.438,0,0.792,0.354,0.792,0.793
			c0,0.438-0.355,0.792-0.792,0.792c-0.438,0-0.793-0.355-0.793-0.792C24.053,4.109,24.408,3.755,24.846,3.755z"/>
		<path fill="#14334E" d="M24.846,27.473c2.574,0,4.66-2.087,4.66-4.661c0-2.574-2.086-4.66-4.66-4.66s-4.661,2.086-4.661,4.66
			c0,0,0,0.001,0,0.002C20.189,25.385,22.274,27.469,24.846,27.473z M24.846,18.946c2.136,0,3.867,1.732,3.867,3.868
			c0,2.136-1.73,3.867-3.867,3.867s-3.868-1.731-3.868-3.867l0,0C20.981,20.679,22.711,18.948,24.846,18.946z"/>
		<path fill="#14334E" d="M16.448,24.667h0.942c0.183,0.742,0.478,1.453,0.872,2.106l-0.667,0.668c-0.358,0.359-0.358,0.939,0,1.299
			l1.323,1.323c0.358,0.357,0.939,0.357,1.297,0l0.667-0.667c0.654,0.395,1.364,0.689,2.107,0.873v0.941
			c0,0.507,0.411,0.917,0.917,0.919h1.874c0.507-0.002,0.917-0.412,0.918-0.919v-0.941c0.742-0.184,1.453-0.479,2.106-0.873
			l0.667,0.667c0.359,0.357,0.94,0.357,1.298,0l1.325-1.323c0.355-0.359,0.355-0.939,0-1.299l-0.67-0.668
			c0.396-0.653,0.69-1.363,0.874-2.106h0.943c0.507,0,0.917-0.41,0.917-0.917v-1.871c0-0.507-0.41-0.917-0.917-0.917h-0.941
			c-0.186-0.743-0.479-1.453-0.876-2.107l0.668-0.667c0.357-0.359,0.357-0.939,0-1.298l-1.323-1.323
			c-0.358-0.358-0.938-0.358-1.298,0l-0.667,0.667c-0.653-0.396-1.364-0.691-2.106-0.875v-0.942
			c-0.001-0.506-0.411-0.917-0.918-0.917H23.91c-0.507,0-0.917,0.411-0.917,0.917v0.942c-0.742,0.184-1.453,0.478-2.107,0.875
			l-0.667-0.667c-0.363-0.347-0.935-0.347-1.298,0l-1.323,1.323c-0.358,0.358-0.358,0.939,0,1.298l0.668,0.667
			c-0.396,0.654-0.691,1.364-0.875,2.107h-0.943c-0.506,0.001-0.917,0.411-0.917,0.917v1.871
			C15.531,24.255,15.942,24.666,16.448,24.667L16.448,24.667z M16.324,21.878c0-0.069,0.056-0.125,0.125-0.125h1.259
			c0.189,0,0.351-0.132,0.389-0.317c0.175-0.863,0.516-1.684,1.003-2.418c0.104-0.157,0.083-0.366-0.05-0.499l-0.892-0.892
			c-0.049-0.048-0.049-0.127,0-0.176l1.323-1.323c0.032-0.049,0.098-0.062,0.146-0.03c0.012,0.008,0.022,0.018,0.03,0.03
			l0.892,0.892c0.133,0.133,0.342,0.154,0.499,0.05c0.734-0.487,1.555-0.828,2.418-1.003c0.185-0.038,0.317-0.2,0.317-0.389v-1.261
			c0-0.069,0.056-0.125,0.125-0.125h1.874c0.068,0,0.125,0.056,0.125,0.125l0,0v1.259c0,0.188,0.133,0.351,0.316,0.388
			c0.863,0.175,1.686,0.516,2.418,1.004c0.157,0.104,0.366,0.083,0.5-0.05l0.891-0.892c0.035-0.049,0.104-0.06,0.152-0.024
			c0.01,0.006,0.018,0.015,0.024,0.024l1.324,1.323c0.049,0.049,0.049,0.127,0,0.176l0,0l-0.893,0.892
			c-0.133,0.133-0.153,0.342-0.05,0.499c0.487,0.734,0.829,1.555,1.004,2.418c0.036,0.185,0.199,0.317,0.388,0.317h1.26
			c0.068,0,0.125,0.056,0.125,0.125l0,0v1.872c0,0.069-0.057,0.125-0.125,0.125h-1.258c-0.188,0-0.351,0.132-0.388,0.317
			c-0.175,0.863-0.516,1.684-1.003,2.417c-0.104,0.157-0.084,0.367,0.05,0.499l0.892,0.893c0.049,0.047,0.049,0.127,0,0.176
			l-1.324,1.323c-0.049,0.048-0.127,0.048-0.177,0l-0.891-0.893c-0.134-0.132-0.343-0.152-0.5-0.051
			c-0.732,0.488-1.555,0.83-2.418,1.006c-0.184,0.036-0.316,0.199-0.316,0.388v1.26c0,0.069-0.056,0.124-0.125,0.124l0,0H23.91
			c-0.069,0-0.125-0.057-0.125-0.124v-1.256c0-0.188-0.132-0.35-0.316-0.388c-0.863-0.176-1.685-0.516-2.418-1.004
			c-0.157-0.104-0.366-0.083-0.499,0.049l-0.892,0.893c-0.048,0.05-0.127,0.05-0.177,0l0,0l-1.323-1.323
			c-0.049-0.049-0.049-0.129,0-0.176l0.891-0.893c0.133-0.132,0.155-0.342,0.05-0.499c-0.487-0.733-0.828-1.555-1.003-2.418
			c-0.038-0.185-0.2-0.317-0.389-0.317h-1.261c-0.069,0-0.125-0.056-0.125-0.125V21.878z"/>
	</g>
</g>
<g>
	<path fill="#EBEEF2" d="M31.115,5.538c-1.008-2.984-2.377-5.121-2.436-5.21c-0.15-0.233-0.422-0.359-0.697-0.321
		c-0.105,0.014-2.62,0.362-5.542,1.536c-3.934,1.581-6.706,3.921-8.016,6.767c-2.186,4.747-4.469,14.312-5.088,21.321
		c-0.027,0.302,0.139,0.588,0.414,0.715l7.729,3.559c0.096,0.044,0.198,0.066,0.3,0.066c0.189,0,0.375-0.075,0.513-0.216
		c4.923-5.027,10.708-12.98,12.893-17.727C32.494,13.182,32.471,9.555,31.115,5.538z"/>
	<path fill="#D1D6DE" d="M31.115,5.538c-1.008-2.984-2.377-5.121-2.436-5.21c-0.15-0.233-0.422-0.359-0.697-0.321
		C27.957,0.01,27.785,0.033,27.5,0.084c0.346,0.709,1.102,2.394,1.645,4.577c0.955,3.837,0.77,7.372-0.535,10.221
		c-2.178,4.751-7.676,12.831-12.257,18.01c-0.128,0.146-0.295,0.229-0.459,0.239c-0.035,0.003-0.069,0-0.103-0.004l1.688,0.777
		c0.096,0.044,0.199,0.066,0.3,0.066c0.189,0,0.375-0.075,0.513-0.216c4.923-5.027,10.708-12.98,12.893-17.727
		C32.494,13.182,32.471,9.555,31.115,5.538z"/>
	<path fill="#ED5575" d="M27.982,0.006c-0.105,0.014-2.62,0.362-5.542,1.536c-2.408,0.968-4.379,2.22-5.848,3.699l15.531,6.915
		c0.127-2.017-0.209-4.25-1.008-6.618c-1.008-2.984-2.377-5.121-2.436-5.21C28.529,0.094,28.258-0.031,27.982,0.006z"/>
	<path fill="#D93255" d="M27.5,0.084c0.346,0.709,1.102,2.394,1.645,4.577c0.563,2.263,0.729,4.419,0.504,6.393l2.475,1.102
		c0.24-3.809-1.457-8.752-3.443-11.828c-0.15-0.233-0.422-0.359-0.697-0.321c-0.004,0-0.01,0.001-0.018,0.002
		C27.912,0.016,27.75,0.04,27.5,0.084z"/>
	<circle fill="#8088A0" cx="21.993" cy="13.929" r="2.771"/>
	<path fill="#ED5575" d="M17.662,27.095c-0.206-0.558-0.616-1.001-1.156-1.249c-0.54-0.249-1.144-0.272-1.701-0.066
		s-1.001,0.616-1.25,1.156c-0.014,0.03-0.026,0.063-0.036,0.096l-2.182,7.342l0,0c-0.163,0.549,0.096,1.12,0.615,1.359
		c0.156,0.071,0.32,0.106,0.481,0.106c0.374,0,0.734-0.187,0.951-0.522l4.162-6.431c0.019-0.029,0.035-0.059,0.049-0.09
		C17.844,28.256,17.868,27.652,17.662,27.095z"/>
	<path fill="#F9C295" d="M37.051,11.223c-1.115-0.364-2.307-0.273-3.352,0.258c-1.047,0.531-1.824,1.438-2.188,2.553l-0.621,1.895
		c-0.752,2.302,0.51,4.788,2.813,5.54c0.451,0.147,0.91,0.218,1.361,0.218c1.848,0,3.572-1.178,4.178-3.028l0.619-1.895
		C40.613,14.461,39.354,11.976,37.051,11.223z"/>
	<path fill="#444966" d="M43.26,9.655c-0.17-0.19-0.428-0.277-0.678-0.227l-2.783,0.56c-0.035,0.007-0.072,0.005-0.107-0.006
		l-2.717-0.888c-1.918-0.626-3.988,0.423-4.613,2.34l-1.064,3.254c-0.123,0.376,0.082,0.782,0.459,0.905l2.17,0.708
		c0.072,0.024,0.146,0.036,0.223,0.036c0.111,0,0.223-0.026,0.324-0.078c0.17-0.086,0.299-0.236,0.357-0.417l0.037-0.116
		c0.152-0.462,0.65-0.716,1.113-0.564l1.314,0.43c2.191,0.716,4.557-0.484,5.271-2.674l0.838-2.563
		C43.484,10.112,43.428,9.846,43.26,9.655z"/>
	<path fill="#FFC742" d="M32.605,21.31c-1.67-1.236-4.033-0.883-5.27,0.787l-5.205,7.03c-0.12,0.162-0.167,0.367-0.127,0.565
		s0.16,0.37,0.333,0.475l5.244,3.171c0.117,0.069,0.244,0.104,0.371,0.104c0.221,0,0.438-0.102,0.578-0.291l4.863-6.569
		c0.484-0.655,0.74-1.43,0.74-2.239C34.133,23.151,33.563,22.018,32.605,21.31z"/>
	<g>
		<path fill="#FFB912" d="M32.605,21.31c-0.168-0.125-0.346-0.233-0.527-0.327c0.473,0.643,0.74,1.429,0.74,2.242
			c0,0.811-0.256,1.585-0.74,2.239l-4.865,6.57c-0.139,0.188-0.355,0.29-0.576,0.29c-0.127,0-0.254-0.033-0.371-0.104l-4.27-2.581
			c0.002,0.018,0.004,0.034,0.007,0.052c0.039,0.198,0.16,0.371,0.333,0.476l5.244,3.17c0.117,0.07,0.244,0.104,0.371,0.104
			c0.221,0,0.438-0.102,0.578-0.291l4.863-6.569c0.484-0.655,0.74-1.429,0.74-2.239C34.133,23.151,33.563,22.018,32.605,21.31z"/>
		<path fill="#FFB912" d="M31.605,22.962c-0.373-0.454-0.902-0.736-1.486-0.795l-11.496-1.284c-0.003,0-0.007-0.001-0.01-0.001
			c-1.212-0.119-2.294,0.772-2.412,1.984c-0.118,1.21,0.77,2.29,1.979,2.411l11.496,1.284c0.004,0,0.008,0.001,0.01,0.001
			c0.074,0.007,0.146,0.011,0.219,0.011c0.51,0,1-0.175,1.398-0.504c0.455-0.374,0.738-0.904,0.795-1.491
			S31.98,23.417,31.605,22.962z"/>
	</g>
	<g>
		<path fill="#DCE0E5" d="M11.957,47.34H4.827c-0.396,0-0.717-0.321-0.717-0.718c0-0.396,0.321-0.717,0.717-0.717h7.129
			c0.396,0,0.718,0.321,0.718,0.717C12.674,47.019,12.353,47.34,11.957,47.34z"/>
		<path fill="#DCE0E5" d="M11.957,43.222h-5.01c-0.396,0-0.717-0.321-0.717-0.718s0.321-0.717,0.717-0.717h5.01
			c0.396,0,0.718,0.32,0.718,0.717S12.353,43.222,11.957,43.222z"/>
		<path fill="#DCE0E5" d="M11.957,39.104h-2.12c-0.396,0-0.717-0.321-0.717-0.718s0.321-0.718,0.717-0.718h2.12
			c0.396,0,0.718,0.321,0.718,0.718S12.353,39.104,11.957,39.104z"/>
	</g>
	<path fill="#F9C295" d="M20.524,21.313c-0.119-0.152-0.294-0.25-0.486-0.271l-1.415-0.158c-0.003,0-0.007-0.001-0.01-0.001
		c-1.211-0.117-2.293,0.772-2.411,1.984c-0.058,0.587,0.117,1.161,0.492,1.616c0.374,0.455,0.901,0.736,1.486,0.795l1.296,0.145
		c0.027,0.003,0.054,0.005,0.081,0.005c0.354,0,0.661-0.262,0.71-0.621l0.403-2.954C20.695,21.659,20.643,21.466,20.524,21.313z"/>
	<path fill="#2E344C" d="M27.17,34.639c-0.027-0.19-0.129-0.361-0.285-0.476l-4.903-3.631c-0.218-0.161-0.508-0.186-0.75-0.063
		c-0.134,0.068-0.241,0.175-0.31,0.303L13.25,44.53c-0.188,0.337-0.076,0.761,0.253,0.962l3.29,2.007
		c0.116,0.071,0.245,0.104,0.373,0.104c0.217,0,0.43-0.098,0.57-0.281l9.294-12.147C27.145,35.022,27.195,34.829,27.17,34.639z"/>
	<path fill="#656D88" d="M33.348,35.147l-10.269-6.208c-0.317-0.191-0.728-0.11-0.948,0.188l-1.152,1.556
		c-0.023,0.031-0.043,0.064-0.061,0.099l-0.223,0.398c-0.908,1.628-0.376,3.67,1.209,4.649l6.612,4.083l-1.975,7.072
		c-0.105,0.379,0.113,0.771,0.49,0.882l3.697,1.082c0.066,0.02,0.135,0.029,0.203,0.029c0.119,0,0.24-0.03,0.348-0.09
		c0.166-0.093,0.291-0.249,0.342-0.434l2.896-10.302C34.854,37.003,34.373,35.768,33.348,35.147z"/>
</g>
</svg>
