<?xml version="1.0" encoding="utf-8"?>
<!-- Generator: Adobe Illustrator 16.0.3, SVG Export Plug-In . SVG Version: 6.00 Build 0)  -->
<!DOCTYPE svg PUBLIC "-//W3C//DTD SVG 1.1//EN" "http://www.w3.org/Graphics/SVG/1.1/DTD/svg11.dtd">
<svg version="1.1" id="Layer_1" xmlns:svgjs="http://svgjs.com/svgjs"
	 xmlns="http://www.w3.org/2000/svg" xmlns:xlink="http://www.w3.org/1999/xlink" x="0px" y="0px" width="35.094px"
	 height="35.002px" viewBox="185.969 192.95 35.094 35.002" enable-background="new 185.969 192.95 35.094 35.002"
	 xml:space="preserve">
<g display="none">
	<rect x="382.933" y="73.6" display="inline" fill="#B3B3B3" width="58.667" height="102.4"/>
	<rect x="360.532" y="21.333" display="inline" fill="#B3B3B3" width="103.468" height="55.467"/>
	<path display="inline" fill="#DBDBDB" d="M44.8,276.268V512h418.133V276.268c-82.133-82.134-128-128-209.066-209.067l0,0
		C172.8,149.333,126.933,195.2,44.8,276.268z"/>
	<path display="inline" fill="#C3C3C3" d="M464,276.268c-82.134-82.134-128-128-209.067-209.067
		c-41.6,40.533-73.6,72.533-105.6,104.533s-64,64-104.533,104.533v48c82.133-82.133,128-128,209.067-209.066
		c82.133,82.133,127.999,128,209.066,209.066v6.4l0,0v-54.4H464V276.268z"/>
	<path display="inline" fill="#C3C3C3" d="M216.533,512H90.667V388.268c0-35.201,28.8-62.934,62.933-62.934l0,0
		c35.2,0,62.934,28.8,62.934,62.934V512z"/>
	<rect x="253.867" y="325.333" display="inline" fill="#ABABAB" width="164.267" height="144"/>
	<g display="inline">
		<rect x="270.933" y="342.4" fill="#DDDDDD" width="56.533" height="109.866"/>
		<rect x="344.532" y="342.4" fill="#DDDDDD" width="56.533" height="109.866"/>
	</g>
	<path display="inline" fill="#B3B3B3" d="M502.4,232.533L279.467,9.6c-12.8-12.8-35.2-12.8-48,0L9.6,232.533
		c-12.8,12.8-12.8,35.199,0,48c12.8,12.8,35.2,12.8,48,0L256,82.133l198.399,198.4c12.8,12.8,35.2,12.8,48,0
		C515.199,266.667,515.199,245.333,502.4,232.533z"/>
</g>
<g>
	<rect x="212.205" y="198.126" fill="#B3B3B3" width="3.998" height="6.978"/>
	<rect x="210.68" y="194.564" fill="#B3B3B3" width="7.051" height="3.78"/>
	<path fill="#DBDBDB" d="M189.164,211.937V228h28.492v-16.063c-5.596-5.597-8.723-8.722-14.246-14.246l0,0
		C197.886,203.287,194.76,206.413,189.164,211.937z"/>
	<path fill="#C3C3C3" d="M217.731,211.937c-5.598-5.597-8.723-8.722-14.248-14.246c-2.833,2.762-5.014,4.942-7.195,7.123
		c-2.18,2.181-4.361,4.361-7.124,7.123v3.271c5.596-5.596,8.722-8.722,14.247-14.247c5.597,5.597,8.722,8.722,14.246,14.247v0.437
		l0,0v-3.707H217.731L217.731,211.937z"/>
	<path fill="#C3C3C3" d="M200.867,228h-8.577v-8.432c0-2.398,1.962-4.288,4.288-4.288l0,0c2.399,0,4.289,1.963,4.289,4.288V228z"/>
	<rect x="203.411" y="215.28" fill="#ABABAB" width="11.193" height="9.813"/>
	<g>
		<rect x="204.573" y="216.443" fill="#DDDDDD" width="3.854" height="7.486"/>
		<rect x="209.59" y="216.443" fill="#DDDDDD" width="3.852" height="7.486"/>
	</g>
	<path fill="#B3B3B3" d="M220.346,208.956l-15.191-15.191c-0.871-0.872-2.398-0.872-3.27,0l-15.12,15.191
		c-0.872,0.873-0.872,2.399,0,3.271c0.873,0.873,2.399,0.873,3.271,0l13.521-13.519l13.518,13.519c0.873,0.873,2.398,0.873,3.271,0
		C221.219,211.282,221.219,209.829,220.346,208.956z"/>
</g>
</svg>
