<?xml version="1.0" encoding="utf-8"?>
<!-- Generator: Adobe Illustrator 16.0.3, SVG Export Plug-In . SVG Version: 6.00 Build 0)  -->
<!DOCTYPE svg PUBLIC "-//W3C//DTD SVG 1.1//EN" "http://www.w3.org/Graphics/SVG/1.1/DTD/svg11.dtd">
<svg version="1.1" id="Layer_1" xmlns:svgjs="http://svgjs.com/svgjs"
	 xmlns="http://www.w3.org/2000/svg" xmlns:xlink="http://www.w3.org/1999/xlink" x="0px" y="0px" width="35.094px"
	 height="35.002px" viewBox="185.969 192.95 35.094 35.002" enable-background="new 185.969 192.95 35.094 35.002"
	 xml:space="preserve">
<g display="none">
	<rect x="382.933" y="73.6" display="inline" fill="#B3B3B3" width="58.667" height="102.4"/>
	<rect x="360.532" y="21.333" display="inline" fill="#B3B3B3" width="103.468" height="55.467"/>
	<path display="inline" fill="#DBDBDB" d="M44.8,276.268V512h418.133V276.268c-82.133-82.134-128-128-209.066-209.067l0,0
		C172.8,149.333,126.933,195.2,44.8,276.268z"/>
	<path display="inline" fill="#C3C3C3" d="M464,276.268c-82.134-82.134-128-128-209.067-209.067
		c-41.6,40.533-73.6,72.533-105.6,104.533s-64,64-104.533,104.533v48c82.133-82.133,128-128,209.067-209.066
		c82.133,82.133,127.999,128,209.066,209.066v6.4l0,0v-54.4H464V276.268z"/>
	<path display="inline" fill="#C3C3C3" d="M216.533,512H90.667V388.268c0-35.201,28.8-62.934,62.933-62.934l0,0
		c35.2,0,62.934,28.8,62.934,62.934V512z"/>
	<rect x="253.867" y="325.333" display="inline" fill="#ABABAB" width="164.267" height="144"/>
	<g display="inline">
		<rect x="270.933" y="342.4" fill="#DDDDDD" width="56.533" height="109.866"/>
		<rect x="344.532" y="342.4" fill="#DDDDDD" width="56.533" height="109.866"/>
	</g>
	<path display="inline" fill="#B3B3B3" d="M502.4,232.533L279.467,9.6c-12.8-12.8-35.2-12.8-48,0L9.6,232.533
		c-12.8,12.8-12.8,35.199,0,48c12.8,12.8,35.2,12.8,48,0L256,82.133l198.399,198.4c12.8,12.8,35.2,12.8,48,0
		C515.199,266.667,515.199,245.333,502.4,232.533z"/>
</g>
<g display="none">
	<rect x="212.205" y="198.126" display="inline" fill="#B3B3B3" width="3.998" height="6.978"/>
	<rect x="210.68" y="194.564" display="inline" fill="#B3B3B3" width="7.051" height="3.78"/>
	<path display="inline" fill="#DBDBDB" d="M189.164,211.937V228h28.492v-16.063c-5.596-5.597-8.723-8.722-14.246-14.246l0,0
		C197.886,203.287,194.76,206.413,189.164,211.937z"/>
	<path display="inline" fill="#C3C3C3" d="M217.731,211.937c-5.598-5.597-8.723-8.722-14.248-14.246
		c-2.833,2.762-5.014,4.942-7.195,7.123c-2.18,2.181-4.361,4.361-7.124,7.123v3.271c5.596-5.596,8.722-8.722,14.247-14.247
		c5.597,5.597,8.722,8.722,14.246,14.247v0.437l0,0v-3.707H217.731L217.731,211.937z"/>
	<path display="inline" fill="#C3C3C3" d="M200.867,228h-8.577v-8.432c0-2.398,1.962-4.288,4.288-4.288l0,0
		c2.399,0,4.289,1.963,4.289,4.288V228z"/>
	<rect x="203.411" y="215.28" display="inline" fill="#ABABAB" width="11.193" height="9.813"/>
	<g display="inline">
		<rect x="204.573" y="216.443" fill="#DDDDDD" width="3.854" height="7.486"/>
		<rect x="209.59" y="216.443" fill="#DDDDDD" width="3.852" height="7.486"/>
	</g>
	<path display="inline" fill="#B3B3B3" d="M220.346,208.956l-15.191-15.191c-0.871-0.872-2.398-0.872-3.27,0l-15.12,15.191
		c-0.872,0.873-0.872,2.399,0,3.271c0.873,0.873,2.399,0.873,3.271,0l13.521-13.519l13.518,13.519c0.873,0.873,2.398,0.873,3.271,0
		C221.219,211.282,221.219,209.829,220.346,208.956z"/>
</g>
<g display="none">
	<rect x="212.261" y="198.6" display="inline" fill="#F05540" width="4" height="6.856"/>
	<rect x="210.733" y="195.1" display="inline" fill="#F3705A" width="7.057" height="3.714"/>
	<path display="inline" fill="#FFD15C" d="M189.202,212.169v15.783h28.515v-15.783c-5.601-5.499-8.729-8.57-14.258-13.998l0,0
		C197.93,203.67,194.802,206.741,189.202,212.169z"/>
	<path display="inline" fill="#F7B64C" d="M217.79,212.169c-5.601-5.499-8.729-8.57-14.258-13.998
		c-2.836,2.714-5.019,4.856-7.202,6.999s-4.364,4.285-7.128,6.999v3.213c5.6-5.499,8.729-8.57,14.258-13.998
		c5.6,5.499,8.729,8.57,14.257,13.998v0.429l0,0v-3.642H217.79L217.79,212.169z"/>
	<path display="inline" fill="#415A6B" d="M200.913,227.952h-8.584v-8.285c0-2.356,1.964-4.213,4.292-4.213l0,0
		c2.4,0,4.292,1.928,4.292,4.213V227.952z"/>
	<rect x="203.46" y="215.454" display="inline" fill="#344A5E" width="11.202" height="9.642"/>
	<g display="inline">
		<rect x="204.624" y="216.597" fill="#8AD7F8" width="3.855" height="7.356"/>
		<rect x="209.643" y="216.597" fill="#8AD7F8" width="3.856" height="7.356"/>
	</g>
	<path display="inline" fill="#F3705A" d="M220.408,209.241l-15.204-14.926c-0.872-0.857-2.4-0.857-3.272,0l-15.131,14.926
		c-0.874,0.857-0.874,2.357,0,3.214s2.401,0.857,3.274,0l13.531-13.284l13.53,13.284c0.873,0.857,2.401,0.857,3.273,0
		C221.281,211.526,221.281,210.098,220.408,209.241z"/>
</g>
<g display="none">
	<path display="inline" fill="#A5A5A5" d="M196.669,211.155c-0.022,0-0.044,0-0.066-0.002l-9.632-0.602
		c-0.367-0.022-0.696-0.232-0.872-0.554c-0.176-0.322-0.174-0.711,0.005-1.032c0.051-0.09,1.265-2.23,3.577-4.098
		c3.124-2.523,6.756-3.341,10.502-2.366c0.311,0.081,0.569,0.298,0.702,0.589c0.134,0.293,0.128,0.63-0.015,0.917l-3.245,6.553
		C197.445,210.926,197.073,211.155,196.669,211.155z"/>
	<path display="inline" fill="#A5A5A5" d="M204.435,227.952c-0.176,0-0.351-0.044-0.51-0.131c-0.322-0.176-0.532-0.504-0.555-0.871
		l-0.601-9.632c-0.027-0.428,0.207-0.832,0.591-1.023l6.553-3.247c0.288-0.142,0.625-0.147,0.917-0.014
		c0.293,0.133,0.509,0.392,0.59,0.702c0.975,3.747,0.157,7.378-2.366,10.502c-1.867,2.313-4.007,3.526-4.098,3.576
		C204.795,227.906,204.615,227.952,204.435,227.952z"/>
	<path display="inline" fill="#D8DADB" d="M219.244,201.579l-6.902-6.902c-0.276-0.276-0.682-0.379-1.057-0.269
		c-4.621,1.366-8.413,3.51-11.274,6.371c-0.597,0.597-1.17,1.243-1.704,1.922c-1.551,1.971-2.846,4.303-3.85,6.929
		c-0.639,1.674-1.16,3.467-1.547,5.33c-0.676,3.253-0.712,5.585-0.714,5.684c-0.003,0.287,0.109,0.564,0.313,0.767
		c0.2,0.201,0.472,0.313,0.754,0.313h0.013c0.098-0.002,2.43-0.038,5.683-0.714c1.863-0.388,3.656-0.909,5.331-1.548
		c2.625-1.004,4.958-2.298,6.928-3.85c0.68-0.533,1.326-1.106,1.923-1.704c2.86-2.861,5.004-6.654,6.371-11.274
		C219.624,202.261,219.521,201.855,219.244,201.579z"/>
	<path display="inline" fill="#D8DADB" d="M199.69,219.402l-5.171-5.171c-0.382-0.381-0.989-0.418-1.414-0.085
		c-0.33,0.26-0.644,0.537-0.934,0.827c-3.597,3.598-3.709,9.173-3.712,9.409c-0.003,0.287,0.109,0.564,0.313,0.767
		c0.2,0.201,0.471,0.313,0.754,0.313c0.005,0,0.009,0,0.013,0c0.236-0.004,5.811-0.116,9.409-3.713
		c0.29-0.29,0.567-0.603,0.827-0.933C200.109,220.391,200.072,219.784,199.69,219.402z"/>
	<path display="inline" fill="#A5A5A5" d="M194.54,209.417l-3.172,3.172c-0.2,0.201-0.313,0.472-0.313,0.755
		c0,0.283,0.112,0.555,0.313,0.755l8.454,8.454c0.2,0.2,0.472,0.313,0.754,0.313c0.283,0,0.555-0.113,0.755-0.313l3.172-3.172
		L194.54,209.417z"/>
	<path display="inline" fill="#CDCDCD" d="M208.389,208.787c-0.869,0-1.687-0.338-2.302-0.954c-1.27-1.269-1.27-3.335,0-4.604
		c0.616-0.616,1.433-0.954,2.302-0.954c0.87,0,1.688,0.338,2.303,0.954c0.615,0.615,0.953,1.433,0.953,2.303
		c0,0.869-0.338,1.686-0.953,2.301C210.077,208.449,209.26,208.787,208.389,208.787z"/>
	<path display="inline" fill="#A5A5A5" d="M208.389,209.831c-1.148,0-2.228-0.447-3.041-1.258c-1.676-1.677-1.676-4.405,0-6.082
		c0.813-0.813,1.893-1.259,3.041-1.259c1.149,0,2.229,0.446,3.041,1.259s1.259,1.892,1.259,3.042c0,1.148-0.446,2.228-1.259,3.041
		C210.618,209.384,209.538,209.831,208.389,209.831z M208.389,203.366c-0.578,0-1.122,0.225-1.531,0.634
		c-0.844,0.844-0.844,2.218,0,3.062c0.409,0.409,0.953,0.634,1.531,0.634c0.579,0,1.123-0.225,1.531-0.634
		c0.409-0.409,0.634-0.953,0.634-1.53c0-0.58-0.225-1.123-0.634-1.532C209.512,203.591,208.969,203.366,208.389,203.366z"/>
	<path display="inline" fill="#A5A5A5" d="M220.645,193.277c-0.204-0.204-0.483-0.318-0.769-0.313
		c-0.159,0.002-3.931,0.065-8.59,1.444l8.228,8.228c1.378-4.659,1.442-8.432,1.443-8.59
		C220.96,193.757,220.847,193.481,220.645,193.277z"/>
	<path display="inline" fill="#D8DADB" d="M219.244,201.579l-3.451-3.451l-23.284,23.284c0.2,0.201,0.471,0.313,0.754,0.313h0.014
		c0.098-0.002,2.43-0.038,5.683-0.714c1.863-0.388,3.655-0.909,5.33-1.548c2.626-1.004,4.958-2.298,6.929-3.85
		c0.679-0.533,1.326-1.106,1.923-1.704c2.86-2.861,5.004-6.654,6.37-11.274C219.624,202.261,219.521,201.855,219.244,201.579z"/>
	<path display="inline" fill="#D8DADB" d="M199.69,219.402l-2.585-2.585l-8.333,8.332v0c0.2,0.201,0.472,0.313,0.754,0.313h0.013
		c0.236-0.004,5.811-0.116,9.409-3.713c0.29-0.29,0.567-0.603,0.826-0.933C200.109,220.391,200.072,219.784,199.69,219.402z"/>
	<path display="inline" fill="#A5A5A5" d="M199.523,214.398l-3.928,3.928l4.228,4.227c0.2,0.2,0.472,0.313,0.754,0.313
		c0.283,0,0.555-0.113,0.755-0.313l3.172-3.172L199.523,214.398z"/>
	<path display="inline" fill="#CDCDCD" d="M210.693,203.229C210.692,203.229,210.692,203.229,210.693,203.229l-4.605,4.604h0
		c0.615,0.615,1.433,0.954,2.302,0.954c0.87,0,1.688-0.338,2.303-0.954c0.615-0.615,0.953-1.433,0.953-2.301
		C211.646,204.662,211.307,203.844,210.693,203.229z"/>
	<path display="inline" fill="#A5A5A5" d="M211.43,202.491l-1.51,1.51c0.409,0.409,0.634,0.952,0.634,1.532
		c0,0.578-0.225,1.122-0.634,1.53c-0.409,0.409-0.952,0.634-1.531,0.634c-0.578,0-1.122-0.225-1.531-0.634c0,0,0,0,0,0l-1.51,1.51v0
		c0.813,0.812,1.892,1.258,3.041,1.258c1.149,0,2.229-0.447,3.041-1.258c0.812-0.813,1.259-1.893,1.259-3.041
		C212.689,204.383,212.242,203.303,211.43,202.491z"/>
	<path display="inline" fill="#A5A5A5" d="M220.644,193.276l-5.245,5.246l4.114,4.113c1.378-4.659,1.442-8.432,1.443-8.59
		C220.96,193.757,220.847,193.481,220.644,193.276z"/>
</g>
<path fill="#FF5B5B" d="M196.663,211.165c-0.022,0-0.044,0-0.067-0.002l-9.627-0.601c-0.366-0.023-0.695-0.232-0.87-0.554
	c-0.175-0.322-0.173-0.711,0.006-1.032c0.05-0.09,1.264-2.229,3.574-4.095c3.123-2.521,6.752-3.339,10.497-2.365
	c0.311,0.081,0.569,0.297,0.702,0.59c0.134,0.292,0.128,0.629-0.015,0.917l-3.244,6.55
	C197.438,210.937,197.066,211.165,196.663,211.165z"/>
<path fill="#FF193D" d="M204.424,227.952c-0.175,0-0.351-0.043-0.51-0.13c-0.322-0.176-0.531-0.504-0.554-0.87l-0.601-9.627
	c-0.026-0.429,0.207-0.832,0.591-1.022l6.55-3.245c0.288-0.143,0.624-0.148,0.917-0.015c0.292,0.134,0.509,0.391,0.589,0.702
	c0.975,3.745,0.157,7.375-2.365,10.497c-1.865,2.311-4.005,3.523-4.095,3.574C204.783,227.907,204.603,227.952,204.424,227.952z"/>
<path fill="#E1F1FA" d="M219.224,201.594l-6.897-6.897c-0.276-0.277-0.682-0.38-1.057-0.269c-4.618,1.366-8.409,3.508-11.268,6.367
	c-0.596,0.597-1.169,1.243-1.702,1.921c-1.55,1.971-2.845,4.301-3.848,6.925c-0.639,1.673-1.159,3.465-1.546,5.327
	c-0.676,3.251-0.712,5.583-0.713,5.68c-0.003,0.288,0.109,0.564,0.312,0.768c0.2,0.2,0.472,0.313,0.755,0.313h0.013
	c0.098-0.001,2.429-0.038,5.68-0.713c1.862-0.387,3.654-0.907,5.327-1.546c2.625-1.003,4.954-2.297,6.924-3.848
	c0.679-0.533,1.325-1.106,1.922-1.702c2.859-2.859,5.001-6.65,6.367-11.268C219.604,202.276,219.501,201.871,219.224,201.594z"/>
<path fill="#FFF261" d="M199.682,219.407l-5.168-5.168c-0.381-0.381-0.988-0.418-1.413-0.085c-0.33,0.258-0.644,0.537-0.933,0.826
	c-3.596,3.596-3.708,9.167-3.71,9.403c-0.004,0.288,0.109,0.564,0.313,0.768c0.2,0.201,0.472,0.313,0.754,0.313
	c0.005,0,0.009,0,0.014,0c0.235-0.002,5.807-0.114,9.402-3.71c0.289-0.289,0.567-0.603,0.826-0.933
	C200.1,220.395,200.063,219.789,199.682,219.407z"/>
<path fill="#1B3B6B" d="M194.535,209.428l-3.171,3.17c-0.2,0.2-0.313,0.471-0.313,0.754c0,0.283,0.113,0.554,0.313,0.754
	l8.449,8.449c0.2,0.2,0.471,0.312,0.754,0.312c0.283,0,0.554-0.112,0.754-0.312l3.17-3.17L194.535,209.428z"/>
<path fill="#06CCAB" d="M208.377,208.799c-0.869,0-1.687-0.339-2.301-0.953c-1.269-1.269-1.269-3.333,0-4.603
	c0.615-0.614,1.432-0.953,2.301-0.953c0.869,0,1.687,0.339,2.301,0.953c0.615,0.615,0.954,1.432,0.954,2.301
	c0,0.87-0.338,1.687-0.954,2.301C210.063,208.46,209.245,208.799,208.377,208.799z"/>
<path fill="#1B3B6B" d="M208.376,209.842c-1.148,0-2.227-0.447-3.039-1.259c-1.676-1.675-1.676-4.402,0-6.078
	c0.812-0.812,1.891-1.259,3.039-1.259c1.148,0,2.227,0.447,3.039,1.259c0.812,0.812,1.259,1.891,1.259,3.039
	c0,1.148-0.447,2.228-1.259,3.039S209.524,209.842,208.376,209.842z M208.376,203.38c-0.578,0-1.122,0.225-1.53,0.634
	c-0.844,0.844-0.844,2.217,0,3.061c0.409,0.409,0.952,0.634,1.53,0.634s1.122-0.225,1.53-0.634c0.409-0.408,0.634-0.952,0.634-1.53
	c0-0.578-0.225-1.122-0.634-1.53S208.954,203.38,208.376,203.38z"/>
<path fill="#FF5B5B" d="M220.624,193.297c-0.204-0.203-0.482-0.318-0.769-0.312c-0.158,0.001-3.929,0.065-8.585,1.442l8.223,8.223
	c1.377-4.657,1.44-8.427,1.442-8.585C220.939,193.778,220.827,193.501,220.624,193.297z"/>
<path fill="#CDEBFC" d="M219.224,201.594l-3.449-3.449l-23.271,23.271c0.2,0.2,0.472,0.313,0.754,0.313h0.013
	c0.098-0.001,2.429-0.038,5.68-0.713c1.862-0.387,3.654-0.907,5.327-1.546c2.625-1.003,4.954-2.297,6.924-3.848
	c0.679-0.533,1.325-1.106,1.921-1.702c2.859-2.859,5.002-6.65,6.367-11.268C219.604,202.276,219.501,201.871,219.224,201.594z"/>
<path fill="#FDBF00" d="M199.682,219.407l-2.584-2.584l-8.328,8.327v0c0.201,0.2,0.472,0.313,0.754,0.313h0.014
	c0.236-0.003,5.807-0.115,9.403-3.71c0.289-0.289,0.567-0.603,0.826-0.933C200.1,220.395,200.064,219.789,199.682,219.407z"/>
<path fill="#001035" d="M199.514,214.406l-3.925,3.925l4.225,4.225c0.2,0.2,0.471,0.313,0.754,0.313
	c0.283,0,0.554-0.113,0.754-0.313l3.17-3.171L199.514,214.406z"/>
<path fill="#1CADB5" d="M210.677,203.243L210.677,203.243l-4.602,4.603l0,0c0.615,0.614,1.432,0.953,2.301,0.953
	c0.869,0,1.687-0.339,2.301-0.953c0.615-0.615,0.954-1.432,0.954-2.301C211.631,204.675,211.293,203.858,210.677,203.243z"/>
<path fill="#001035" d="M211.415,202.506l-1.509,1.508c0.409,0.409,0.634,0.952,0.634,1.53c0,0.579-0.225,1.122-0.634,1.53
	c-0.409,0.409-0.952,0.634-1.53,0.634s-1.122-0.225-1.53-0.634l0,0l-1.509,1.509l0,0c0.812,0.812,1.891,1.259,3.039,1.259
	s2.227-0.447,3.039-1.259c0.811-0.812,1.259-1.891,1.259-3.039C212.674,204.397,212.226,203.318,211.415,202.506z"/>
<path fill="#FF193D" d="M220.623,193.297l-5.242,5.242l4.112,4.112c1.377-4.657,1.44-8.427,1.442-8.585
	C220.939,193.778,220.827,193.501,220.623,193.297z"/>
</svg>
