<?xml version="1.0" encoding="utf-8"?>
<!-- Generator: Adobe Illustrator 16.0.3, SVG Export Plug-In . SVG Version: 6.00 Build 0)  -->
<!DOCTYPE svg PUBLIC "-//W3C//DTD SVG 1.1//EN" "http://www.w3.org/Graphics/SVG/1.1/DTD/svg11.dtd">
<svg version="1.1" id="Layer_1" xmlns:svgjs="http://svgjs.com/svgjs"
	 xmlns="http://www.w3.org/2000/svg" xmlns:xlink="http://www.w3.org/1999/xlink" x="0px" y="0px" width="50.083px"
	 height="50.041px" viewBox="165.969 180.91 50.083 50.041" enable-background="new 165.969 180.91 50.083 50.041"
	 xml:space="preserve">
<rect x="185.969" y="192.95" display="none" fill="#51007C" width="35.094" height="35.002"/>
<g display="none">
	<g display="inline">
		<ellipse fill="#172A7D" cx="203.53" cy="210.874" rx="16.521" ry="16.344"/>
	</g>
	<g display="inline">
		<path fill="#4F66D0" d="M203.512,225.539c-0.279,0-0.505-0.224-0.505-0.5s0.226-0.5,0.505-0.5c7.619,0,13.816-6.131,13.816-13.667
			c0-6.178-4.214-11.608-10.249-13.206c-0.27-0.071-0.43-0.345-0.358-0.612c0.073-0.267,0.35-0.425,0.619-0.354
			c6.477,1.714,10.999,7.542,10.999,14.172C218.34,218.959,211.688,225.539,203.512,225.539L203.512,225.539z"/>
	</g>
	<g display="inline">
		<path fill="#4F66D0" d="M189.204,212.266c-0.011,0-0.049-0.003-0.063-0.045c-0.127-0.381-0.263-0.661-0.448-0.88
			c0.054,1.638,0.385,3.236,0.963,4.736c0.241-0.234,0.569-0.381,0.932-0.39c-0.525-1.374-0.828-2.835-0.882-4.333
			c-0.179,0.217-0.313,0.494-0.438,0.867C189.254,212.263,189.217,212.266,189.204,212.266z"/>
		<path fill="#4F66D0" d="M200.302,197.052c-0.072-0.267-0.349-0.425-0.619-0.354c-6.158,1.63-10.55,6.98-10.966,13.203
			c0.171-0.214,0.302-0.484,0.423-0.848c0.014-0.042,0.052-0.045,0.063-0.045c0.013,0,0.05,0.004,0.064,0.045
			c0.13,0.389,0.269,0.673,0.46,0.894c0.396-5.79,4.485-10.765,10.217-12.282C200.215,197.594,200.375,197.319,200.302,197.052z"/>
		<path fill="#4F66D0" d="M195.594,222.064c-1.604-1.113-2.927-2.533-3.911-4.147c-0.218,0.26-0.532,0.438-0.887,0.483
			c1.057,1.745,2.485,3.281,4.216,4.483c0.088,0.062,0.19,0.091,0.29,0.091c0.16,0,0.315-0.074,0.415-0.213
			C195.878,222.535,195.822,222.224,195.594,222.064L195.594,222.064z"/>
	</g>
	<g display="inline">
		<path fill="#6C7FD8" d="M197.517,202.138c2.497-1.675,5.69-2.302,8.82-1.453c0.27,0.073,0.547-0.083,0.621-0.351
			c0.074-0.267-0.084-0.542-0.354-0.614c-3.469-0.942-7.008-0.227-9.755,1.658C197.159,201.538,197.399,201.81,197.517,202.138
			L197.517,202.138z"/>
		<path fill="#6C7FD8" d="M214.07,209.317c0.189-0.231,0.328-0.527,0.463-0.932c0.014-0.043,0.052-0.047,0.064-0.047
			c0.011,0,0.05,0.004,0.064,0.047c0.125,0.377,0.255,0.66,0.425,0.883c-0.172-1.207-0.537-2.39-1.092-3.503
			c-0.124-0.248-0.427-0.35-0.677-0.228c-0.251,0.122-0.354,0.422-0.23,0.67C213.579,207.196,213.907,208.246,214.07,209.317
			L214.07,209.317z"/>
		<path fill="#6C7FD8" d="M197.178,219.376c-1.185-0.865-2.186-1.976-2.938-3.282c-1.413-2.455-1.776-5.302-1.022-8.018
			c0.456-1.644,1.284-3.091,2.368-4.277c-0.31-0.159-0.55-0.431-0.668-0.761c-1.228,1.315-2.164,2.931-2.675,4.773
			c-0.825,2.974-0.428,6.091,1.119,8.778c0.834,1.45,1.95,2.68,3.272,3.632C196.72,219.884,196.915,219.589,197.178,219.376z"/>
		<path fill="#6C7FD8" d="M209.91,219.319c-1.822,1.348-4.064,2.114-6.4,2.114c-0.932,0-1.88-0.122-2.822-0.377
			c-0.297-0.081-0.589-0.174-0.875-0.279c-0.036,0.352-0.187,0.668-0.416,0.916c0.334,0.124,0.675,0.233,1.022,0.328
			c1.031,0.28,2.068,0.413,3.089,0.413c2.639,0,5.167-0.892,7.195-2.455C210.511,219.686,210.267,219.485,209.91,219.319
			L209.91,219.319z"/>
		<path fill="#6C7FD8" d="M214.66,211.78c-0.014,0.043-0.053,0.047-0.064,0.047c-0.012,0-0.05-0.004-0.064-0.047
			c-0.104-0.317-0.214-0.566-0.346-0.771c-0.011,0.891-0.137,1.783-0.378,2.655c-0.458,1.652-1.291,3.104-2.381,4.292
			c0.171,0.331,0.382,0.556,0.689,0.737c1.225-1.313,2.156-2.926,2.667-4.763c0.288-1.041,0.425-2.105,0.415-3.166
			C214.97,211.006,214.812,211.324,214.66,211.78L214.66,211.78z"/>
	</g>
	<g display="inline">
		<path fill="#8795DE" d="M210.125,205.52c-0.139,0.319-0.397,0.575-0.717,0.713c1.026,1.273,1.64,2.885,1.64,4.637
			c0,4.109-3.38,7.454-7.535,7.454c-0.279,0-0.505,0.224-0.505,0.5c0,0.277,0.226,0.501,0.505,0.501
			c4.712,0,8.546-3.793,8.546-8.455C212.059,208.842,211.333,206.979,210.125,205.52z"/>
		<path fill="#8795DE" d="M207.543,204.575c0.107-0.333,0.339-0.612,0.642-0.78c-1.343-0.872-2.949-1.379-4.672-1.379
			c-4.712,0-8.546,3.792-8.546,8.455c0,0.276,0.227,0.5,0.506,0.5s0.506-0.224,0.506-0.5c0-4.11,3.38-7.454,7.534-7.454
			C204.994,203.417,206.377,203.842,207.543,204.575z"/>
	</g>
	<g display="inline">
		<ellipse fill="#FEA613" cx="203.512" cy="210.87" rx="4.741" ry="4.689"/>
	</g>
	<path display="inline" fill="#FE9901" d="M201.976,213.726c-0.9,0.202-1.799-0.351-2.011-1.242
		c-0.198-0.825,0.261-1.652,1.042-1.943c0.146-2.064,1.64-3.759,3.617-4.229c-0.357-0.084-0.728-0.13-1.111-0.13
		c-2.618,0-4.74,2.099-4.74,4.689c0,2.589,2.122,4.689,4.74,4.689c0.383,0,0.754-0.046,1.111-0.13
		C203.554,215.175,202.626,214.562,201.976,213.726L201.976,213.726z"/>
	<g display="inline">
		<ellipse fill="#97D729" cx="208.859" cy="204.983" rx="1.445" ry="1.43"/>
	</g>
	<g display="inline">
		<path fill="#8BC727" d="M208.519,204.983c0-0.596,0.369-1.106,0.893-1.321c-0.171-0.07-0.357-0.109-0.553-0.109
			c-0.798,0-1.446,0.64-1.446,1.43s0.648,1.43,1.446,1.43c0.196,0,0.382-0.039,0.553-0.109
			C208.888,206.089,208.519,205.579,208.519,204.983z"/>
	</g>
	<g display="inline">
		<ellipse fill="#97D729" cx="190.62" cy="217.049" rx="1.446" ry="1.43"/>
	</g>
	<g display="inline">
		<path fill="#8BC727" d="M190.313,217.05c0-0.59,0.361-1.097,0.876-1.315c-0.174-0.074-0.367-0.115-0.569-0.115
			c-0.798,0-1.445,0.641-1.445,1.431c0,0.79,0.647,1.43,1.445,1.43c0.202,0,0.396-0.042,0.569-0.115
			C190.675,218.145,190.313,217.64,190.313,217.05L190.313,217.05z"/>
	</g>
	<g display="inline">
		<ellipse fill="#925CB4" cx="203.512" cy="196.125" rx="2.353" ry="2.328"/>
	</g>
	<g display="inline">
		<path fill="#814BA2" d="M202.991,196.125c0-0.965,0.592-1.792,1.438-2.146c-0.282-0.118-0.591-0.183-0.916-0.183
			c-1.299,0-2.353,1.042-2.353,2.329c0,1.286,1.054,2.328,2.353,2.328c0.325,0,0.634-0.064,0.916-0.183
			C203.583,197.917,202.991,197.089,202.991,196.125L202.991,196.125z"/>
	</g>
	<g display="inline">
		<ellipse fill="#FED402" cx="198.202" cy="220.614" rx="1.687" ry="1.668"/>
	</g>
	<g display="inline">
		<path fill="#FAC600" d="M197.865,220.614c0-0.684,0.416-1.271,1.012-1.528c-0.207-0.09-0.435-0.14-0.675-0.14
			c-0.931,0-1.685,0.748-1.685,1.668c0,0.921,0.754,1.668,1.685,1.668c0.241,0,0.469-0.05,0.675-0.139
			C198.281,221.885,197.865,221.298,197.865,220.614z"/>
	</g>
	<g display="inline">
		<ellipse fill="#FED402" cx="204.936" cy="209.749" rx="1.812" ry="1.792"/>
	</g>
	<g display="inline">
		<ellipse fill="#FB8801" cx="201.605" cy="212.099" rx="1.686" ry="1.668"/>
	</g>
	<g display="inline">
		<ellipse fill="#FD4755" cx="196.217" cy="202.589" rx="1.445" ry="1.43"/>
	</g>
	<g display="inline">
		<path fill="#FB2B3A" d="M195.851,202.588c0-0.601,0.375-1.114,0.906-1.326c-0.167-0.066-0.349-0.104-0.54-0.104
			c-0.798,0-1.445,0.64-1.445,1.429c0,0.79,0.647,1.431,1.445,1.431c0.191,0,0.373-0.038,0.54-0.104
			C196.226,203.703,195.851,203.189,195.851,202.588L195.851,202.588z"/>
	</g>
	<g display="inline">
		<path fill="#FEA613" d="M216.601,198.799c-0.953,0.307-1.297,0.648-1.608,1.591c-0.041,0.124-0.216,0.124-0.257,0
			c-0.311-0.943-0.655-1.284-1.609-1.591c-0.125-0.04-0.125-0.214,0-0.254c0.954-0.308,1.298-0.648,1.609-1.591
			c0.041-0.124,0.216-0.124,0.257,0c0.311,0.943,0.656,1.284,1.608,1.591C216.727,198.585,216.727,198.759,216.601,198.799z"/>
	</g>
	<g display="inline">
		<path fill="#FE9901" d="M214.013,198.124c-0.223,0.17-0.505,0.298-0.886,0.421c-0.125,0.041-0.125,0.214,0,0.254
			c0.954,0.307,1.298,0.648,1.609,1.591c0.041,0.124,0.216,0.124,0.257,0c0.123-0.373,0.251-0.65,0.42-0.87
			C215.132,198.735,214.801,198.403,214.013,198.124z"/>
	</g>
	<g display="inline">
		<path fill="#FEA613" d="M199.193,215.076c-0.954,0.308-1.299,0.648-1.609,1.592c-0.041,0.123-0.216,0.123-0.256,0
			c-0.312-0.944-0.655-1.284-1.608-1.592c-0.125-0.04-0.125-0.213,0-0.254c0.953-0.307,1.296-0.648,1.608-1.592
			c0.04-0.123,0.216-0.123,0.256,0c0.311,0.944,0.655,1.285,1.609,1.592C199.317,214.863,199.317,215.037,199.193,215.076z"/>
	</g>
	<g display="inline">
		<path fill="#FE9901" d="M196.608,214.398c-0.224,0.171-0.507,0.301-0.889,0.424c-0.125,0.041-0.125,0.214,0,0.254
			c0.953,0.308,1.296,0.648,1.608,1.592c0.04,0.123,0.216,0.123,0.256,0c0.125-0.379,0.256-0.66,0.429-0.881
			C197.731,215.007,197.398,214.677,196.608,214.398L196.608,214.398z"/>
	</g>
	<g display="inline">
		<path fill="#FEA613" d="M216.334,210.209c-0.954,0.308-1.298,0.648-1.609,1.591c-0.041,0.124-0.216,0.124-0.257,0
			c-0.311-0.943-0.655-1.283-1.608-1.591c-0.125-0.04-0.125-0.213,0-0.254c0.953-0.307,1.298-0.647,1.608-1.59
			c0.041-0.124,0.216-0.124,0.257,0c0.311,0.943,0.655,1.283,1.609,1.59C216.459,209.996,216.459,210.169,216.334,210.209z"/>
	</g>
	<g display="inline">
		<path fill="#FEA613" d="M216.334,210.209c-0.954,0.308-1.298,0.648-1.609,1.591c-0.041,0.124-0.216,0.124-0.257,0
			c-0.311-0.943-0.655-1.283-1.608-1.591c-0.125-0.04-0.125-0.213,0-0.254c0.953-0.307,1.298-0.647,1.608-1.59
			c0.041-0.124,0.216-0.124,0.257,0c0.311,0.943,0.655,1.283,1.609,1.59C216.459,209.996,216.459,210.169,216.334,210.209z"/>
	</g>
	<g display="inline">
		<path fill="#FE9901" d="M213.748,209.533c-0.223,0.17-0.507,0.299-0.888,0.422c-0.125,0.041-0.125,0.214,0,0.254
			c0.953,0.308,1.298,0.648,1.608,1.592c0.041,0.124,0.216,0.124,0.257,0c0.122-0.372,0.251-0.65,0.42-0.87
			C214.864,210.146,214.534,209.812,213.748,209.533z"/>
	</g>
	<g display="inline">
		<path fill="#FEA613" d="M190.827,210.763c-0.88,0.287-1.205,0.608-1.495,1.478c-0.041,0.121-0.214,0.121-0.256,0
			c-0.29-0.87-0.614-1.191-1.494-1.478c-0.123-0.04-0.123-0.213,0-0.253c0.88-0.287,1.204-0.608,1.494-1.479
			c0.042-0.121,0.215-0.121,0.256,0c0.29,0.871,0.615,1.192,1.495,1.479C190.949,210.55,190.949,210.723,190.827,210.763z"/>
	</g>
	<g display="inline">
		<path fill="#FE9901" d="M188.445,210.084c-0.213,0.175-0.487,0.304-0.863,0.426c-0.123,0.04-0.123,0.213,0,0.253
			c0.88,0.287,1.204,0.608,1.494,1.478c0.042,0.121,0.215,0.121,0.256,0c0.124-0.372,0.254-0.642,0.431-0.854
			C189.499,210.657,189.185,210.346,188.445,210.084L188.445,210.084z"/>
	</g>
	<g display="inline">
		<path fill="#FFFFFF" d="M201.783,224.22c-0.543,0.192-0.774,0.421-0.969,0.958c-0.043,0.119-0.211,0.119-0.254,0
			c-0.194-0.537-0.425-0.765-0.968-0.958c-0.121-0.042-0.121-0.21,0-0.252c0.543-0.193,0.773-0.421,0.968-0.958
			c0.043-0.119,0.211-0.119,0.254,0c0.195,0.537,0.426,0.766,0.969,0.958C201.903,224.01,201.903,224.178,201.783,224.22z"/>
	</g>
	<g display="inline">
		<path fill="#F3F0F3" d="M201.076,224.667c-0.194-0.538-0.425-0.765-0.968-0.958c-0.001,0-0.002-0.001-0.004-0.002
			c-0.134,0.104-0.298,0.186-0.512,0.262c-0.121,0.042-0.121,0.209,0,0.252c0.543,0.192,0.773,0.421,0.967,0.958
			c0.044,0.119,0.212,0.119,0.255,0c0.077-0.212,0.16-0.375,0.265-0.507C201.077,224.669,201.077,224.668,201.076,224.667z"/>
	</g>
	<g display="inline">
		<path fill="#FFFFFF" d="M212.302,202.65c-0.543,0.192-0.774,0.421-0.968,0.958c-0.044,0.119-0.212,0.119-0.255,0
			c-0.195-0.538-0.425-0.766-0.968-0.958c-0.121-0.042-0.121-0.209,0-0.252c0.543-0.192,0.773-0.42,0.968-0.958
			c0.043-0.12,0.211-0.12,0.255,0c0.193,0.537,0.425,0.765,0.968,0.958C212.422,202.441,212.422,202.608,212.302,202.65z"/>
	</g>
	<g display="inline">
		<g>
			<path fill="#F3F0F3" d="M210.599,202.188c-0.011-0.003-0.018-0.009-0.027-0.014c-0.125,0.087-0.273,0.158-0.461,0.224
				c-0.121,0.043-0.121,0.209,0,0.252c0.543,0.192,0.773,0.421,0.968,0.958c0.043,0.119,0.211,0.119,0.255,0
				c0.069-0.19,0.143-0.341,0.232-0.466C211.372,202.608,211.141,202.381,210.599,202.188z"/>
		</g>
	</g>
	<g display="inline">
		<path fill="#FEA613" d="M199.516,226.383c-0.88,0.287-1.204,0.608-1.495,1.479c-0.04,0.121-0.215,0.121-0.255,0
			c-0.291-0.871-0.615-1.192-1.495-1.479c-0.123-0.04-0.123-0.212,0-0.253c0.88-0.287,1.204-0.607,1.495-1.479
			c0.04-0.121,0.215-0.121,0.255,0c0.291,0.871,0.615,1.191,1.495,1.479C199.639,226.17,199.639,226.343,199.516,226.383z"/>
	</g>
	<g display="inline">
		<path fill="#FE9901" d="M197.146,225.694c-0.215,0.18-0.492,0.311-0.874,0.436c-0.123,0.041-0.123,0.213,0,0.253
			c0.88,0.287,1.204,0.608,1.495,1.479c0.04,0.121,0.215,0.121,0.255,0c0.126-0.379,0.259-0.653,0.441-0.866
			C198.198,226.267,197.883,225.956,197.146,225.694z"/>
	</g>
	<g display="inline">
		<path fill="#FFFFFF" d="M212.859,219.19c-0.954,0.307-1.298,0.648-1.608,1.591c-0.042,0.123-0.217,0.123-0.257,0
			c-0.311-0.943-0.655-1.284-1.608-1.591c-0.125-0.041-0.125-0.214,0-0.254c0.954-0.308,1.297-0.648,1.608-1.591
			c0.04-0.124,0.216-0.124,0.257,0c0.311,0.943,0.654,1.283,1.608,1.591C212.983,218.976,212.983,219.149,212.859,219.19z"/>
	</g>
	<g display="inline">
		<path fill="#F3F0F3" d="M210.264,218.52c-0.223,0.167-0.503,0.294-0.88,0.416c-0.125,0.041-0.125,0.214,0,0.254
			c0.953,0.308,1.297,0.648,1.608,1.591c0.04,0.123,0.216,0.123,0.257,0c0.12-0.365,0.246-0.64,0.41-0.858
			C211.38,219.134,211.05,218.799,210.264,218.52z"/>
	</g>
	<g display="inline">
		<ellipse fill="#FED402" cx="203.26" cy="213.009" rx="1.003" ry="0.992"/>
	</g>
	<g display="inline">
		<path fill="#FED402" d="M196.147,212.966l-0.415,0.411c-0.036,0.035-0.093,0.035-0.128,0l-0.416-0.411
			c-0.035-0.034-0.035-0.092,0-0.126l0.416-0.411c0.035-0.035,0.093-0.035,0.128,0l0.415,0.411
			C196.183,212.875,196.183,212.932,196.147,212.966z"/>
	</g>
	<g display="inline">
		<path fill="#FED402" d="M200.469,216.708l-0.416,0.411c-0.036,0.036-0.093,0.036-0.128,0l-0.415-0.411
			c-0.036-0.035-0.036-0.091,0-0.126l0.415-0.411c0.036-0.035,0.093-0.035,0.128,0l0.416,0.411
			C200.504,216.616,200.504,216.673,200.469,216.708z"/>
	</g>
	<g display="inline">
		<path fill="#FED402" d="M213.618,204.167l-0.416,0.41c-0.035,0.035-0.093,0.035-0.128,0l-0.416-0.41
			c-0.035-0.035-0.035-0.092,0-0.127l0.416-0.411c0.035-0.035,0.093-0.035,0.128,0l0.416,0.411
			C213.654,204.075,213.654,204.132,213.618,204.167z"/>
	</g>
	<g display="inline">
		<path fill="#FED402" d="M209.235,201.298l-0.416,0.411c-0.035,0.035-0.092,0.035-0.128,0l-0.416-0.411
			c-0.035-0.035-0.035-0.092,0-0.127l0.416-0.411c0.036-0.035,0.093-0.035,0.128,0l0.416,0.411
			C209.271,201.207,209.271,201.263,209.235,201.298z"/>
	</g>
	<g display="inline">
		<path fill="#FFFFFF" d="M201.481,218.576l-0.415,0.411c-0.036,0.035-0.093,0.035-0.128,0l-0.415-0.411
			c-0.036-0.034-0.036-0.092,0-0.127l0.415-0.41c0.036-0.035,0.093-0.035,0.128,0l0.415,0.41
			C201.516,218.484,201.516,218.542,201.481,218.576z"/>
	</g>
</g>
<g display="none">
	<path display="inline" fill="#00AA79" d="M220.548,210.453c0.002,1.573-0.214,3.141-0.642,4.655l-0.49,0.049
		c-0.04,0.004-0.08,0.007-0.119,0.009l-0.414,0.019c-1.099,0.045-2.075,0.715-2.513,1.723l-0.106,0.242
		c-0.361,0.823-1.175,1.354-2.073,1.354h-1.761c-0.421,0.001-0.774-0.318-0.814-0.737l-0.071-0.704
		c-0.084-0.872-0.563-1.656-1.301-2.128c-0.289-0.185-0.462-0.505-0.462-0.848v-0.706c0-0.396,0.17-0.773,0.467-1.036l3.009-2.658
		c0.866-0.767,1.207-1.967,0.872-3.075c-0.347-1.144-1.334-1.976-2.521-2.122l-0.304-0.038c-0.362-0.044-0.696-0.221-0.936-0.496
		c-0.235-0.267-0.276-0.652-0.103-0.963l0.63-1.078c0.779-1.33,1.698-2.573,2.74-3.708l0.68-0.949
		C218.266,200.501,220.553,205.344,220.548,210.453z"/>
	<path display="inline" fill="#7BFFFB" d="M219.416,215.157l0.49-0.049c-2.026,7.171-8.619,12.425-16.438,12.425
		c-9.433,0-17.081-7.647-17.081-17.081c0-0.537,0.024-1.069,0.073-1.594l0.206,0.02l0.233-0.046c1.131-0.221,2.278,0.3,2.856,1.297
		c0.133,0.228,0.298,0.435,0.491,0.616l1.214,1.143c0.217,0.204,0.481,0.352,0.768,0.43l0.142,0.04
		c0.836,0.229,1.491,0.88,1.724,1.716l0.651,2.349c0.078,0.282,0.21,0.546,0.388,0.78l1.972,2.585
		c0.246,0.323,0.41,0.701,0.477,1.102l0.537,3.216c0.017,0.116,0.076,0.22,0.165,0.294c0.131,0.106,0.309,0.13,0.464,0.066
		c0.31-0.13,0.522-0.421,0.553-0.755c0.065-0.658,0.328-1.28,0.754-1.785l0.571-0.687c0.101-0.121,0.177-0.262,0.224-0.413
		l0.588-1.905c0.173-0.562,0.517-1.058,0.984-1.416l1.747-1.341c0.127-0.095,0.213-0.235,0.241-0.39
		c0.029-0.173-0.021-0.35-0.134-0.483l-1.163-1.368c-0.07-0.082-0.136-0.167-0.198-0.253l-0.889-1.239
		c-0.492-0.687-1.278-1.141-2.123-1.119c-0.084,0.002-0.168-0.02-0.241-0.063l-1.817-1.09c-0.532-0.317-1.19-0.333-1.736-0.043
		l-0.958,0.514c-0.869,0.465-1.95,0.181-2.478-0.652l-0.93-1.468c-0.43-0.68-0.417-1.55,0.034-2.216
		c0.482-0.716,1.327-1.098,2.183-0.987l1.396,0.177c0.498,0.068,0.988-0.167,1.246-0.598c0.445-0.766,1.306-1.191,2.185-1.079
		l0.61,0.078c0.435,0.055,0.867-0.124,1.136-0.472l0.537-0.697c0.487-0.628,0.509-1.498,0.055-2.15l-1.16-1.671
		c-0.444-0.641-1.023-1.178-1.697-1.571c-0.177-0.104-0.348-0.217-0.512-0.34l-0.977-0.733l-1.236-0.932
		c6.079-3.18,13.472-2.417,18.772,1.94l-0.68,0.949c-1.042,1.135-1.961,2.379-2.74,3.708l-0.63,1.078
		c-0.173,0.311-0.133,0.696,0.103,0.963c0.24,0.275,0.574,0.452,0.936,0.496l0.304,0.038c1.187,0.146,2.174,0.978,2.521,2.122
		c0.334,1.107-0.006,2.308-0.872,3.075l-3.009,2.658c-0.297,0.262-0.467,0.64-0.467,1.036v0.706c0,0.343,0.174,0.663,0.462,0.848
		c0.737,0.473,1.216,1.257,1.301,2.128l0.071,0.704c0.041,0.419,0.393,0.738,0.814,0.737h1.761c0.898,0,1.712-0.531,2.073-1.354
		l0.106-0.242c0.438-1.008,1.415-1.677,2.513-1.723l0.414-0.019C219.336,215.165,219.376,215.162,219.416,215.157z"/>
	<path display="inline" fill="#00AA79" d="M204.276,215.292c0.113,0.133,0.164,0.31,0.134,0.483
		c-0.028,0.155-0.114,0.294-0.241,0.39l-1.747,1.341c-0.467,0.358-0.811,0.854-0.984,1.416l-0.588,1.905
		c-0.046,0.151-0.123,0.292-0.224,0.413l-0.571,0.687c-0.427,0.505-0.689,1.127-0.754,1.785c-0.031,0.334-0.244,0.625-0.553,0.755
		c-0.155,0.064-0.333,0.04-0.464-0.066c-0.089-0.074-0.148-0.179-0.165-0.294l-0.537-3.216c-0.067-0.4-0.231-0.779-0.477-1.102
		l-1.972-2.585c-0.178-0.233-0.31-0.498-0.388-0.78l-0.651-2.349c-0.233-0.835-0.888-1.487-1.724-1.716l-0.142-0.04
		c-0.287-0.078-0.551-0.226-0.768-0.43l-1.214-1.143c-0.192-0.181-0.358-0.389-0.491-0.616c-0.578-0.997-1.725-1.518-2.856-1.297
		l-0.233,0.046l-0.206-0.02c0.54-5.76,3.958-10.855,9.083-13.54l1.236,0.932l0.977,0.733c0.164,0.123,0.334,0.236,0.512,0.34
		c0.673,0.394,1.252,0.93,1.697,1.571l1.16,1.671c0.454,0.652,0.432,1.522-0.055,2.15l-0.537,0.697
		c-0.269,0.348-0.701,0.527-1.136,0.472l-0.61-0.078c-0.879-0.112-1.74,0.313-2.185,1.079c-0.258,0.431-0.749,0.666-1.246,0.598
		l-1.396-0.177c-0.856-0.111-1.701,0.271-2.183,0.987c-0.451,0.666-0.464,1.537-0.034,2.216l0.93,1.468
		c0.528,0.833,1.609,1.118,2.478,0.652l0.958-0.514c0.546-0.291,1.205-0.274,1.736,0.043l1.817,1.09
		c0.073,0.044,0.157,0.066,0.241,0.063c0.845-0.021,1.631,0.433,2.123,1.119l0.889,1.239c0.062,0.086,0.128,0.172,0.198,0.253
		L204.276,215.292z"/>
	<path display="inline" fill="#53D5D1" d="M203.468,193.373c-2.761-0.004-5.481,0.664-7.925,1.946l1.236,0.932l0.977,0.733
		c0.16,0.12,0.326,0.23,0.499,0.331l0.076-0.044c4.998-2.612,10.961-2.593,15.942,0.049l0.043-0.06
		C211.263,194.741,207.426,193.366,203.468,193.373z"/>
	<path display="inline" fill="#53D5D1" d="M189.176,212.405c0-0.537,0.025-1.069,0.074-1.594l0.161-1.151
		c-0.635-0.695-1.586-1.009-2.51-0.827l-0.233,0.046l-0.206-0.02c-0.048,0.525-0.072,1.057-0.073,1.594
		c-0.002,6.185,3.34,11.887,8.737,14.906C191.344,222.117,189.171,217.385,189.176,212.405z"/>
	<path display="inline" fill="#005933" d="M189.398,209.647c0.864-5.268,4.139-9.83,8.854-12.333
		c-0.171-0.101-0.337-0.211-0.496-0.33l-0.977-0.733l-1.236-0.932c-5.125,2.685-8.543,7.78-9.083,13.54l0.206,0.02l0.233-0.046
		C187.818,208.652,188.763,208.961,189.398,209.647z"/>
	<path display="inline" fill="#280068" d="M203.468,192.955c-9.665,0-17.499,7.834-17.499,17.499c0,4.641,1.844,9.092,5.125,12.373
		c6.834,6.834,17.914,6.834,24.748,0c6.833-6.833,6.833-17.913,0-24.746C212.567,194.787,208.112,192.942,203.468,192.955z
		 M191.686,198.671c1.129-1.13,2.414-2.093,3.815-2.859l2.004,1.507c0.176,0.132,0.361,0.254,0.551,0.367
		c0.62,0.364,1.154,0.858,1.565,1.448l1.159,1.671c0.35,0.502,0.333,1.174-0.042,1.657l-0.538,0.698
		c-0.178,0.229-0.463,0.348-0.751,0.312l-0.609-0.078c-1.046-0.135-2.07,0.371-2.6,1.283c-0.173,0.287-0.501,0.441-0.831,0.393
		l-1.396-0.177c-1.012-0.132-2.012,0.32-2.582,1.167c-0.545,0.804-0.561,1.854-0.041,2.674l0.93,1.469
		c0.647,1.014,1.966,1.361,3.029,0.796l0.957-0.513c0.417-0.222,0.919-0.209,1.324,0.032l1.817,1.091
		c0.141,0.084,0.303,0.127,0.467,0.123c0.672-0.02,1.335,0.335,1.771,0.944l0.89,1.239c0.069,0.096,0.143,0.191,0.219,0.281
		l1.164,1.368c0.034,0.041,0.049,0.094,0.04,0.146c-0.011,0.051-0.041,0.095-0.083,0.125l-1.747,1.342
		c-0.537,0.41-0.932,0.978-1.129,1.625l-0.587,1.904c-0.03,0.099-0.08,0.19-0.146,0.27l-0.572,0.686
		c-0.481,0.569-0.778,1.272-0.849,2.014c-0.017,0.181-0.131,0.337-0.298,0.408c-0.014,0.006-0.03,0.003-0.042-0.007
		c-0.007-0.01-0.012-0.022-0.014-0.035l-0.535-3.216c-0.08-0.468-0.27-0.91-0.558-1.287l-1.972-2.586
		c-0.146-0.19-0.253-0.407-0.317-0.638l-0.651-2.349c-0.273-0.977-1.039-1.738-2.017-2.008l-0.142-0.039
		c-0.221-0.061-0.425-0.174-0.592-0.332l-1.215-1.143c-0.163-0.154-0.303-0.33-0.416-0.523c-0.648-1.114-1.914-1.717-3.188-1.517
		C187.378,204.717,189.053,201.289,191.686,198.671z M215.25,222.235c-6.507,6.507-17.056,6.507-23.564,0
		c-3.125-3.124-4.881-7.363-4.88-11.782c0-0.397,0.014-0.792,0.042-1.184l0.133-0.026c0.956-0.186,1.926,0.255,2.415,1.098
		c0.153,0.262,0.344,0.501,0.565,0.71l1.214,1.143c0.267,0.25,0.591,0.433,0.945,0.529l0.143,0.039
		c0.693,0.192,1.236,0.731,1.429,1.425l0.652,2.349c0.092,0.333,0.247,0.646,0.458,0.921l1.973,2.586
		c0.204,0.269,0.34,0.583,0.396,0.917l0.536,3.216c0.065,0.428,0.433,0.745,0.867,0.745c0.116,0,0.23-0.023,0.337-0.068
		c0.454-0.189,0.765-0.614,0.808-1.103c0.057-0.574,0.287-1.115,0.66-1.555l0.571-0.688c0.136-0.164,0.24-0.353,0.302-0.558
		l0.587-1.905c0.146-0.48,0.44-0.902,0.839-1.208l1.747-1.341c0.212-0.159,0.355-0.394,0.399-0.656
		c0.048-0.294-0.036-0.593-0.228-0.82l-1.164-1.368c-0.061-0.073-0.121-0.149-0.176-0.227l-0.889-1.239
		c-0.599-0.834-1.523-1.317-2.473-1.292c-0.005,0-0.01-0.001-0.015-0.004l-1.817-1.09c-0.658-0.393-1.473-0.412-2.15-0.052
		l-0.957,0.513c-0.676,0.359-1.515,0.138-1.927-0.507l-0.929-1.469c-0.342-0.54-0.331-1.229,0.027-1.757
		c0.394-0.585,1.084-0.898,1.783-0.807l1.396,0.177c0.665,0.091,1.318-0.224,1.66-0.801c0.361-0.622,1.059-0.967,1.771-0.875
		l0.609,0.078c0.583,0.073,1.161-0.167,1.521-0.631l0.537-0.697c0.598-0.772,0.625-1.844,0.067-2.645l-1.159-1.671
		c-0.48-0.691-1.105-1.269-1.83-1.694c-0.163-0.095-0.32-0.2-0.472-0.313l-1.677-1.262c5.708-2.693,12.445-1.939,17.417,1.949
		l-0.436,0.607c-1.055,1.152-1.986,2.414-2.774,3.762l-0.633,1.082c-0.262,0.464-0.202,1.044,0.15,1.445
		c0.308,0.353,0.736,0.58,1.201,0.636l0.304,0.037c1.021,0.127,1.873,0.843,2.172,1.828c0.286,0.951-0.006,1.982-0.75,2.64
		l-2.994,2.659c-0.382,0.343-0.598,0.834-0.592,1.348v0.706c-0.007,0.482,0.233,0.936,0.638,1.2
		c0.627,0.404,1.035,1.074,1.104,1.817l0.066,0.688c0.062,0.629,0.595,1.106,1.227,1.097h1.761c1.062,0.007,2.027-0.616,2.457-1.587
		l0.105-0.233c0.375-0.861,1.21-1.433,2.149-1.47l0.414-0.017l0.013-0.001C218.518,218.092,217.119,220.373,215.25,222.235z
		 M219.58,214.721l-0.206,0.021c-0.032,0.003-0.065,0.006-0.097,0.007l-0.414,0.019c-1.258,0.052-2.375,0.819-2.876,1.974
		l-0.106,0.224c-0.297,0.667-0.961,1.094-1.691,1.088h-1.761c-0.202,0.008-0.377-0.142-0.398-0.343l-0.07-0.696
		c-0.092-0.995-0.635-1.892-1.475-2.434c-0.165-0.108-0.262-0.295-0.255-0.493v-0.706c-0.005-0.274,0.108-0.538,0.311-0.722l3-2.658
		c0.988-0.876,1.375-2.247,0.993-3.51c-0.396-1.302-1.521-2.249-2.872-2.415l-0.305-0.038c-0.261-0.031-0.5-0.159-0.674-0.357
		c-0.116-0.131-0.138-0.322-0.055-0.476l0.63-1.077c0.763-1.305,1.664-2.524,2.687-3.638c0.011-0.013,0.022-0.025,0.032-0.04
		l0.416-0.58c0.293,0.255,0.579,0.522,0.857,0.799c3.135,3.118,4.892,7.36,4.881,11.782
		C220.131,211.894,219.946,213.327,219.58,214.721L219.58,214.721z"/>
</g>
<g>
	<g>
		<path fill="#97DE3D" d="M216.06,201.428h-8.593c-6.012,0-11.555,2.933-14.986,7.829v14.361h-2.933v-5.563
			c-3.431-4.896-8.974-7.83-14.986-7.83h-8.592c0.205-0.294,1.906-8.798,10.381-8.798c5.425,0,9.883,4.253,10.235,9.59
			c1.056,0.732,2.053,1.555,2.962,2.463V199.96c0-4.046-3.284-7.332-7.332-7.332h-7.331v-1.466c0-4.048,3.285-7.332,7.331-7.332
			c4.048,0,7.332,3.284,7.332,7.332c0,0.499-0.058,0.997-0.146,1.466c0.293,0.293,0.527,0.616,0.792,0.938
			c0.235-0.615,0.499-1.201,0.822-1.759c0.439-0.762,0.996-1.495,1.612-2.112c-0.088-0.468-0.147-0.967-0.147-1.465
			c0-4.047,3.286-7.332,7.332-7.332c4.048,0,7.332,3.285,7.332,7.332v1.465h-7.332c-4.046,0-7.332,3.285-7.332,7.333v7.653
			c0.909-0.909,1.907-1.73,2.962-2.462c0.411-5.426,4.839-9.59,10.236-9.59C214.182,192.629,215.824,201.076,216.06,201.428
			L216.06,201.428z"/>
		<g>
			<path fill="#59C36A" d="M216.06,201.428h-8.593c-6.012,0-11.555,2.933-14.986,7.829v14.361h-1.465v-31.811
				c0.439-0.762,0.996-1.495,1.612-2.112c-0.088-0.468-0.147-0.967-0.147-1.465c0-4.047,3.286-7.332,7.332-7.332
				c4.048,0,7.331,3.285,7.331,7.332v1.465h-7.331c-4.046,0-7.332,3.285-7.332,7.333v7.653c0.909-0.909,1.907-1.73,2.962-2.462
				c0.411-5.426,4.839-9.59,10.236-9.59C214.182,192.629,215.824,201.076,216.06,201.428L216.06,201.428z"/>
		</g>
		<path fill="#704C55" d="M208.611,228.017c-3.955,0-5.823-1.244-7.985-2.686c-2.234-1.491-4.768-3.179-9.61-3.179
			c-4.844,0-7.378,1.688-9.611,3.179c-2.163,1.442-4.032,2.686-7.986,2.686h-4.398v2.933h43.99v-2.933H208.611z"/>
		<path fill="#5A344B" d="M213.009,230.95v-2.933h-4.398c-3.955,0-5.823-1.244-7.985-2.686c-2.234-1.491-4.768-3.179-9.61-3.179
			v8.798C191.533,230.95,213.97,230.95,213.009,230.95z"/>
	</g>
</g>
<g display="none">
	<path display="inline" fill="#A79BA7" d="M210.764,204.894c-0.168,0-0.336-0.057-0.476-0.172c-0.315-0.262-0.358-0.731-0.097-1.046
		l3.442-4.137c0.547-0.658,0.849-1.491,0.849-2.346c0-2.022-1.646-3.668-3.668-3.668h-8.025c-3.467,0-6.287-2.82-6.287-6.286
		s2.82-6.287,6.287-6.287h12.437c0.41,0,0.743,0.333,0.743,0.743c0,0.411-0.333,0.743-0.743,0.743h-12.437
		c-2.646,0-4.8,2.153-4.8,4.8c0,2.647,2.153,4.8,4.8,4.8h8.025c2.842,0,5.154,2.313,5.154,5.155c0,1.202-0.424,2.373-1.192,3.296
		l-3.441,4.137C211.188,204.802,210.977,204.894,210.764,204.894z"/>
	<path display="inline" fill="#B5ADB6" d="M209.244,207.847l-2.102-2.101l2.5-2.498c0.58-0.58,1.521-0.58,2.101,0
		c0.581,0.58,0.581,1.521,0,2.102L209.244,207.847z"/>
	<path display="inline" fill="#B5ADB6" d="M180.088,216.152l-2.102,2.103l-2.498-2.5c-0.58-0.58-0.58-1.521,0-2.102
		c0.581-0.58,1.522-0.58,2.102,0L180.088,216.152z"/>
	<path display="inline" fill="#B5ADB6" d="M201.208,221.799h-8.17v-2.853c0-0.436,0.353-0.788,0.787-0.788h6.596
		c0.435,0,0.787,0.353,0.787,0.788V221.799z"/>
	<path display="inline" fill="#FEE97D" d="M215.192,222.589c-1.604-5.507-3.209-11.015-4.814-16.522
		c-0.313-1.074-1.334-1.782-2.451-1.701c-5.389,0.394-12.529,1.667-20.064,5.321c-2.93,1.421-5.473,2.985-7.646,4.527
		c-4.289,3.237-7.875,7.312-10.542,11.976l-0.752,1.316l-0.996,1.486l41.929-1.486l0.572-1.227c0.682-1.458,2.146-2.391,3.758-2.391
		C214.865,223.89,215.364,223.247,215.192,222.589z M206.854,220.583l-14.693,0.966c-2.06,0.136-3.805-1.498-3.805-3.562l0,0
		c0-1.297,0.703-2.493,1.838-3.121c1.666-0.922,3.554-1.849,5.66-2.702c3.143-1.273,6.072-2.103,8.625-2.651
		c0.836-0.18,1.664,0.336,1.865,1.166l1.937,7.961C208.512,219.591,207.83,220.519,206.854,220.583z"/>
	<path display="inline" fill="#FEDF30" d="M215.192,222.589c-1.604-5.507-3.209-11.015-4.814-16.522
		c-0.312-1.071-1.329-1.783-2.441-1.702c-0.194,0.014-0.391,0.03-0.588,0.046c0.02,0.055,0.04,0.111,0.057,0.169
		c1.604,5.507,3.209,11.014,4.814,16.522c0.17,0.658-0.325,1.299-1.004,1.301c-1.578,0.004-3.035,0.84-3.703,2.27
		c-0.385,0.822-1.209,1.347-2.117,1.347h-35.62c-0.033,0.058-0.068,0.114-0.101,0.171l-0.752,1.316l-0.996,1.486l41.929-1.486
		l0.629-1.348c0.693-1.379,2.125-2.266,3.703-2.27C214.867,223.888,215.363,223.247,215.192,222.589z"/>
	<path display="inline" fill="#B5ADB6" d="M210.117,230.95h-44.148c0-1.902,1.542-3.443,3.444-3.443h40.705
		c0.951,0,1.722,0.771,1.722,1.721C211.839,230.179,211.069,230.95,210.117,230.95z"/>
	<path display="inline" fill="#A79BA7" d="M210.117,227.507h-2.974c0.951,0,1.722,0.771,1.722,1.721
		c0,0.951-0.771,1.723-1.722,1.723h2.974c0.951,0,1.722-0.771,1.722-1.723C211.839,228.277,211.069,227.507,210.117,227.507z"/>
	<path display="inline" fill="#FEDF30" d="M191.445,221.524C191.445,221.524,191.445,221.524,191.445,221.524
		c-1.732-0.234-3.089-1.718-3.089-3.537l0,0c0-1.297,0.703-2.492,1.838-3.121c1.666-0.922,3.554-1.848,5.66-2.702
		c3.143-1.272,6.072-2.103,8.625-2.651c0.404-0.086,0.806-0.01,1.137,0.186l0,0c-1.242-1.63-2.271-1.813-2.745-1.824
		c-0.239-0.006-0.614,0.049-1.366,0.152c-2.042,0.283-3.095,0.41-8.623,2.651c-2.107,0.854-3.995,1.779-5.661,2.702
		c-1.135,0.628-1.838,1.824-1.838,3.121c0.108,0.633,0.371,1.606,1.076,2.553C188.166,221.347,190.994,221.506,191.445,221.524z"/>
</g>
</svg>
