<?xml version="1.0" encoding="utf-8"?>
<!-- Generator: Adobe Illustrator 16.0.3, SVG Export Plug-In . SVG Version: 6.00 Build 0)  -->
<!DOCTYPE svg PUBLIC "-//W3C//DTD SVG 1.1//EN" "http://www.w3.org/Graphics/SVG/1.1/DTD/svg11.dtd">
<svg version="1.1" id="Layer_1" xmlns:svgjs="http://svgjs.com/svgjs"
	 xmlns="http://www.w3.org/2000/svg" xmlns:xlink="http://www.w3.org/1999/xlink" x="0px" y="0px" width="50.083px"
	 height="50.041px" viewBox="165.969 180.91 50.083 50.041" enable-background="new 165.969 180.91 50.083 50.041"
	 xml:space="preserve">
<rect x="185.969" y="192.95" display="none" fill="#3083FC" width="35.094" height="35.002"/>
<g>
	<g>
		<ellipse fill="#172A7D" cx="190.911" cy="205.967" rx="23.11" ry="22.863"/>
	</g>
	<g>
		<path fill="#4F66D0" d="M190.886,226.481c-0.391,0-0.707-0.313-0.707-0.7c0-0.386,0.316-0.7,0.707-0.7
			c10.657,0,19.327-8.577,19.327-19.119c0-8.642-5.895-16.238-14.337-18.473c-0.377-0.099-0.602-0.483-0.5-0.856
			s0.489-0.595,0.866-0.495c9.061,2.397,15.386,10.549,15.386,19.825C211.628,217.277,202.323,226.481,190.886,226.481
			L190.886,226.481z"/>
	</g>
	<g>
		<path fill="#4F66D0" d="M170.871,207.914c-0.015,0-0.069-0.004-0.088-0.063c-0.177-0.533-0.368-0.925-0.627-1.231
			c0.075,2.291,0.539,4.527,1.348,6.625c0.337-0.328,0.796-0.533,1.303-0.545c-0.734-1.921-1.158-3.966-1.233-6.062
			c-0.251,0.303-0.438,0.69-0.612,1.212C170.942,207.909,170.888,207.914,170.871,207.914z"/>
		<path fill="#4F66D0" d="M186.396,186.632c-0.101-0.374-0.488-0.595-0.865-0.495c-8.615,2.28-14.758,9.764-15.34,18.468
			c0.24-0.3,0.422-0.677,0.591-1.187c0.019-0.058,0.074-0.063,0.088-0.063c0.018,0,0.071,0.005,0.09,0.063
			c0.182,0.545,0.376,0.942,0.643,1.251c0.554-8.099,6.274-15.059,14.292-17.181C186.274,187.39,186.498,187.006,186.396,186.632z"
			/>
		<path fill="#4F66D0" d="M179.81,221.62c-2.245-1.557-4.095-3.543-5.471-5.801c-0.304,0.364-0.744,0.613-1.241,0.676
			c1.479,2.441,3.476,4.589,5.898,6.271c0.124,0.087,0.266,0.127,0.405,0.127c0.224,0,0.442-0.103,0.58-0.298
			C180.207,222.279,180.129,221.843,179.81,221.62L179.81,221.62z"/>
	</g>
	<g>
		<path fill="#6C7FD8" d="M182.499,193.747c3.492-2.343,7.959-3.22,12.338-2.032c0.377,0.103,0.766-0.117,0.869-0.491
			c0.104-0.373-0.118-0.757-0.494-0.859c-4.853-1.317-9.803-0.317-13.646,2.319C181.999,192.907,182.335,193.287,182.499,193.747
			L182.499,193.747z"/>
		<path fill="#6C7FD8" d="M205.654,203.789c0.264-0.324,0.459-0.738,0.648-1.304c0.02-0.06,0.073-0.065,0.089-0.065
			s0.071,0.005,0.09,0.065c0.175,0.528,0.356,0.923,0.594,1.236c-0.241-1.688-0.751-3.343-1.528-4.9
			c-0.173-0.347-0.597-0.489-0.947-0.318c-0.351,0.17-0.494,0.59-0.321,0.937C204.968,200.822,205.427,202.29,205.654,203.789
			L205.654,203.789z"/>
		<path fill="#6C7FD8" d="M182.026,217.86c-1.657-1.21-3.058-2.764-4.11-4.591c-1.976-3.434-2.484-7.417-1.43-11.216
			c0.638-2.3,1.795-4.324,3.312-5.982c-0.433-0.222-0.77-0.603-0.935-1.064c-1.717,1.839-3.027,4.099-3.742,6.676
			c-1.153,4.16-0.598,8.521,1.565,12.279c1.167,2.029,2.728,3.749,4.578,5.081C181.385,218.571,181.657,218.158,182.026,217.86z"/>
		<path fill="#6C7FD8" d="M199.835,217.78c-2.549,1.885-5.685,2.957-8.953,2.957c-1.304,0-2.629-0.171-3.947-0.528
			c-0.416-0.113-0.824-0.243-1.224-0.39c-0.05,0.492-0.261,0.935-0.581,1.281c0.468,0.173,0.945,0.326,1.43,0.458
			c1.442,0.393,2.893,0.578,4.321,0.578c3.691,0,7.227-1.248,10.065-3.434C200.677,218.292,200.335,218.013,199.835,217.78
			L199.835,217.78z"/>
		<path fill="#6C7FD8" d="M206.481,207.234c-0.019,0.061-0.074,0.065-0.09,0.065s-0.069-0.005-0.089-0.065
			c-0.146-0.443-0.3-0.792-0.485-1.079c-0.016,1.246-0.191,2.495-0.529,3.714c-0.64,2.311-1.805,4.341-3.331,6.003
			c0.24,0.462,0.535,0.777,0.965,1.031c1.713-1.836,3.016-4.092,3.73-6.663c0.402-1.456,0.594-2.945,0.58-4.429
			C206.914,206.152,206.693,206.597,206.481,207.234L206.481,207.234z"/>
	</g>
	<g>
		<path fill="#8795DE" d="M200.136,198.478c-0.194,0.446-0.555,0.804-1.003,0.998c1.435,1.781,2.293,4.036,2.293,6.486
			c0,5.749-4.728,10.427-10.54,10.427c-0.391,0-0.707,0.313-0.707,0.699c0,0.387,0.316,0.701,0.707,0.701
			c6.592,0,11.955-5.306,11.955-11.827C202.842,203.125,201.826,200.518,200.136,198.478z"/>
		<path fill="#8795DE" d="M196.524,197.156c0.149-0.467,0.474-0.856,0.898-1.091c-1.879-1.22-4.125-1.929-6.536-1.929
			c-6.592,0-11.955,5.305-11.955,11.827c0,0.386,0.317,0.699,0.708,0.699c0.39,0,0.708-0.313,0.708-0.699
			c0-5.75,4.728-10.427,10.539-10.427C192.959,195.535,194.893,196.131,196.524,197.156z"/>
	</g>
	<g>
		<ellipse fill="#FEA613" cx="190.886" cy="205.962" rx="6.632" ry="6.56"/>
	</g>
	<path fill="#FE9901" d="M188.738,209.956c-1.259,0.282-2.516-0.492-2.813-1.737c-0.276-1.154,0.366-2.312,1.458-2.718
		c0.203-2.887,2.293-5.259,5.059-5.916c-0.5-0.118-1.019-0.183-1.555-0.183c-3.663,0-6.631,2.937-6.631,6.56
		c0,3.622,2.968,6.56,6.631,6.56c0.536,0,1.055-0.064,1.555-0.183C190.945,211.983,189.647,211.125,188.738,209.956L188.738,209.956
		z"/>
	<g>
		<ellipse fill="#97D729" cx="198.365" cy="197.727" rx="2.021" ry="2"/>
	</g>
	<g>
		<path fill="#8BC727" d="M197.89,197.727c0-0.834,0.517-1.547,1.249-1.848c-0.239-0.098-0.5-0.152-0.774-0.152
			c-1.116,0-2.023,0.896-2.023,2c0,1.105,0.907,2,2.023,2c0.274,0,0.535-0.055,0.774-0.153
			C198.407,199.273,197.89,198.559,197.89,197.727z"/>
	</g>
	<g>
		<ellipse fill="#97D729" cx="172.852" cy="214.605" rx="2.022" ry="2"/>
	</g>
	<g>
		<path fill="#8BC727" d="M172.423,214.606c0-0.826,0.505-1.534,1.226-1.84c-0.243-0.103-0.513-0.161-0.796-0.161
			c-1.116,0-2.021,0.896-2.021,2.001c0,1.104,0.905,2,2.021,2c0.283,0,0.553-0.058,0.796-0.161
			C172.928,216.138,172.423,215.431,172.423,214.606L172.423,214.606z"/>
	</g>
	<g>
		<ellipse fill="#925CB4" cx="190.886" cy="185.335" rx="3.291" ry="3.257"/>
	</g>
	<g>
		<path fill="#814BA2" d="M190.157,185.335c0-1.35,0.829-2.507,2.011-3.001c-0.395-0.165-0.826-0.256-1.281-0.256
			c-1.817,0-3.292,1.458-3.292,3.257c0,1.798,1.474,3.256,3.292,3.256c0.455,0,0.887-0.09,1.281-0.255
			C190.986,187.842,190.157,186.684,190.157,185.335L190.157,185.335z"/>
	</g>
	<g>
		<ellipse fill="#FED402" cx="183.458" cy="219.591" rx="2.359" ry="2.333"/>
	</g>
	<g>
		<path fill="#FAC600" d="M182.987,219.591c0-0.957,0.582-1.778,1.415-2.138c-0.289-0.126-0.608-0.195-0.944-0.195
			c-1.302,0-2.357,1.045-2.357,2.333c0,1.289,1.056,2.333,2.357,2.333c0.336,0,0.656-0.069,0.944-0.195
			C183.569,221.37,182.987,220.549,182.987,219.591z"/>
	</g>
	<g>
		<ellipse fill="#FED402" cx="192.878" cy="204.394" rx="2.535" ry="2.507"/>
	</g>
	<g>
		<ellipse fill="#FB8801" cx="188.218" cy="207.681" rx="2.358" ry="2.333"/>
	</g>
	<g>
		<ellipse fill="#FD4755" cx="180.681" cy="194.377" rx="2.021" ry="2"/>
	</g>
	<g>
		<path fill="#FB2B3A" d="M180.169,194.376c0-0.84,0.525-1.559,1.267-1.855c-0.234-0.093-0.488-0.145-0.755-0.145
			c-1.117,0-2.022,0.895-2.022,2c0,1.105,0.905,2.001,2.022,2.001c0.267,0,0.521-0.052,0.755-0.145
			C180.694,195.936,180.169,195.217,180.169,194.376L180.169,194.376z"/>
	</g>
	<g>
		<path fill="#FEA613" d="M209.196,189.076c-1.333,0.43-1.814,0.906-2.25,2.226c-0.057,0.173-0.302,0.173-0.359,0
			c-0.435-1.32-0.917-1.796-2.25-2.226c-0.174-0.056-0.174-0.299,0-0.356c1.334-0.43,1.816-0.907,2.25-2.226
			c0.057-0.173,0.303-0.173,0.359,0c0.436,1.319,0.917,1.795,2.25,2.226C209.371,188.777,209.371,189.02,209.196,189.076z"/>
	</g>
	<g>
		<path fill="#FE9901" d="M205.576,188.131c-0.312,0.238-0.708,0.417-1.24,0.589c-0.174,0.057-0.174,0.3,0,0.356
			c1.334,0.43,1.816,0.906,2.25,2.226c0.057,0.173,0.303,0.173,0.359,0c0.171-0.522,0.352-0.91,0.588-1.216
			C207.14,188.986,206.677,188.521,205.576,188.131z"/>
	</g>
	<g>
		<path fill="#FEA613" d="M184.844,211.845c-1.334,0.431-1.817,0.907-2.251,2.228c-0.057,0.172-0.303,0.172-0.358,0
			c-0.437-1.32-0.917-1.796-2.25-2.228c-0.175-0.055-0.175-0.298,0-0.355c1.333-0.429,1.813-0.906,2.25-2.227
			c0.056-0.172,0.302-0.172,0.358,0c0.434,1.32,0.917,1.797,2.251,2.227C185.018,211.546,185.018,211.79,184.844,211.845z"/>
	</g>
	<g>
		<path fill="#FE9901" d="M181.228,210.897c-0.313,0.239-0.709,0.421-1.244,0.593c-0.175,0.057-0.175,0.3,0,0.355
			c1.333,0.431,1.813,0.907,2.25,2.228c0.056,0.172,0.302,0.172,0.358,0c0.174-0.53,0.357-0.922,0.6-1.233
			C182.799,211.748,182.333,211.287,181.228,210.897L181.228,210.897z"/>
	</g>
	<g>
		<path fill="#FEA613" d="M208.822,205.037c-1.334,0.431-1.816,0.907-2.25,2.226c-0.058,0.174-0.302,0.174-0.359,0
			c-0.435-1.319-0.917-1.795-2.25-2.226c-0.174-0.056-0.174-0.298,0-0.356c1.333-0.43,1.815-0.905,2.25-2.225
			c0.057-0.173,0.302-0.173,0.359,0c0.434,1.319,0.917,1.795,2.25,2.225C208.996,204.739,208.996,204.981,208.822,205.037z"/>
	</g>
	<g>
		<path fill="#FEA613" d="M208.822,205.037c-1.334,0.431-1.816,0.907-2.25,2.226c-0.058,0.174-0.302,0.174-0.359,0
			c-0.435-1.319-0.917-1.795-2.25-2.226c-0.174-0.056-0.174-0.298,0-0.356c1.333-0.43,1.815-0.905,2.25-2.225
			c0.057-0.173,0.302-0.173,0.359,0c0.434,1.319,0.917,1.795,2.25,2.225C208.996,204.739,208.996,204.981,208.822,205.037z"/>
	</g>
	<g>
		<path fill="#FE9901" d="M205.204,204.091c-0.312,0.237-0.708,0.418-1.242,0.59c-0.174,0.058-0.174,0.3,0,0.356
			c1.333,0.431,1.815,0.907,2.25,2.227c0.057,0.173,0.302,0.173,0.359,0c0.17-0.521,0.351-0.909,0.587-1.217
			C206.765,204.948,206.303,204.48,205.204,204.091z"/>
	</g>
	<g>
		<path fill="#FEA613" d="M173.142,205.812c-1.23,0.401-1.686,0.85-2.091,2.067c-0.057,0.169-0.3,0.169-0.357,0
			c-0.406-1.217-0.859-1.667-2.09-2.067c-0.171-0.056-0.171-0.298,0-0.354c1.231-0.401,1.684-0.851,2.09-2.068
			c0.058-0.17,0.301-0.17,0.357,0c0.406,1.217,0.861,1.667,2.091,2.068C173.313,205.514,173.313,205.756,173.142,205.812z"/>
	</g>
	<g>
		<path fill="#FE9901" d="M169.809,204.862c-0.298,0.245-0.682,0.424-1.207,0.596c-0.171,0.056-0.171,0.298,0,0.354
			c1.231,0.401,1.684,0.85,2.09,2.067c0.058,0.169,0.301,0.169,0.357,0c0.173-0.52,0.356-0.898,0.603-1.195
			C171.283,205.664,170.844,205.228,169.809,204.862L169.809,204.862z"/>
	</g>
	<g>
		<path fill="#FFFFFF" d="M188.467,224.636c-0.76,0.269-1.083,0.588-1.355,1.339c-0.061,0.167-0.295,0.167-0.356,0
			c-0.272-0.751-0.594-1.07-1.354-1.339c-0.169-0.06-0.169-0.294,0-0.353c0.76-0.27,1.082-0.589,1.354-1.341
			c0.061-0.166,0.295-0.166,0.356,0c0.273,0.751,0.596,1.071,1.355,1.341C188.635,224.342,188.635,224.577,188.467,224.636z"/>
	</g>
	<g>
		<path fill="#F3F0F3" d="M187.478,225.261c-0.272-0.752-0.594-1.07-1.354-1.34c-0.002,0-0.003-0.002-0.006-0.003
			c-0.188,0.146-0.417,0.26-0.717,0.366c-0.169,0.059-0.169,0.293,0,0.353c0.76,0.269,1.082,0.588,1.354,1.339
			c0.061,0.167,0.296,0.167,0.356,0c0.107-0.297,0.223-0.525,0.371-0.71C187.48,225.264,187.48,225.263,187.478,225.261z"/>
	</g>
	<g>
		<path fill="#FFFFFF" d="M203.181,194.463c-0.759,0.269-1.083,0.589-1.354,1.341c-0.062,0.166-0.296,0.166-0.357,0
			c-0.272-0.752-0.594-1.072-1.354-1.341c-0.168-0.059-0.168-0.292,0-0.353c0.76-0.269,1.082-0.588,1.354-1.339
			c0.061-0.167,0.296-0.167,0.357,0c0.271,0.751,0.594,1.07,1.354,1.339C203.35,194.171,203.35,194.404,203.181,194.463z"/>
	</g>
	<g>
		<g>
			<path fill="#F3F0F3" d="M200.8,193.817c-0.015-0.005-0.025-0.012-0.037-0.02c-0.174,0.122-0.383,0.221-0.646,0.313
				c-0.168,0.06-0.168,0.293,0,0.353c0.76,0.269,1.082,0.589,1.354,1.341c0.061,0.166,0.296,0.166,0.356,0
				c0.096-0.266,0.2-0.478,0.325-0.652C201.88,194.404,201.557,194.086,200.8,193.817z"/>
		</g>
	</g>
	<g>
		<path fill="#FEA613" d="M185.296,227.661c-1.231,0.402-1.685,0.85-2.091,2.069c-0.056,0.168-0.301,0.168-0.357,0
			c-0.406-1.219-0.86-1.667-2.091-2.069c-0.171-0.056-0.171-0.297,0-0.354c1.231-0.401,1.685-0.85,2.091-2.068
			c0.056-0.169,0.301-0.169,0.357,0c0.406,1.218,0.859,1.667,2.091,2.068C185.468,227.364,185.468,227.605,185.296,227.661z"/>
	</g>
	<g>
		<path fill="#FE9901" d="M181.98,226.698c-0.3,0.251-0.688,0.435-1.223,0.609c-0.171,0.056-0.171,0.297,0,0.354
			c1.231,0.402,1.685,0.85,2.091,2.069c0.056,0.168,0.301,0.168,0.357,0c0.177-0.53,0.361-0.914,0.617-1.211
			C183.452,227.5,183.012,227.064,181.98,226.698z"/>
	</g>
	<g>
		<path fill="#FFFFFF" d="M203.96,217.6c-1.334,0.429-1.815,0.906-2.25,2.226c-0.058,0.172-0.304,0.172-0.36,0
			c-0.435-1.319-0.916-1.796-2.25-2.226c-0.174-0.058-0.174-0.299,0-0.356c1.334-0.43,1.815-0.906,2.25-2.225
			c0.056-0.174,0.302-0.174,0.36,0c0.435,1.319,0.916,1.795,2.25,2.225C204.135,217.3,204.135,217.542,203.96,217.6z"/>
	</g>
	<g>
		<path fill="#F3F0F3" d="M200.331,216.663c-0.312,0.232-0.704,0.411-1.231,0.581c-0.174,0.057-0.174,0.299,0,0.356
			c1.333,0.431,1.815,0.906,2.25,2.226c0.056,0.172,0.302,0.172,0.36,0c0.168-0.51,0.344-0.895,0.574-1.2
			C201.891,217.521,201.429,217.053,200.331,216.663z"/>
	</g>
	<g>
		<ellipse fill="#FED402" cx="190.532" cy="208.954" rx="1.403" ry="1.387"/>
	</g>
	<g>
		<path fill="#FED402" d="M180.583,208.894l-0.58,0.575c-0.05,0.049-0.13,0.049-0.18,0l-0.581-0.575
			c-0.049-0.048-0.049-0.128,0-0.176l0.581-0.575c0.049-0.048,0.13-0.048,0.18,0l0.58,0.575
			C180.634,208.765,180.634,208.846,180.583,208.894z"/>
	</g>
	<g>
		<path fill="#FED402" d="M186.63,214.127l-0.581,0.574c-0.05,0.05-0.13,0.05-0.18,0l-0.581-0.574c-0.05-0.048-0.05-0.128,0-0.176
			l0.581-0.574c0.05-0.049,0.13-0.049,0.18,0l0.581,0.574C186.678,213.999,186.678,214.079,186.63,214.127z"/>
	</g>
	<g>
		<path fill="#FED402" d="M205.023,196.585l-0.581,0.574c-0.05,0.049-0.13,0.049-0.179,0l-0.582-0.574
			c-0.048-0.05-0.048-0.129,0-0.178l0.582-0.575c0.049-0.048,0.129-0.048,0.179,0l0.581,0.575
			C205.072,196.456,205.072,196.535,205.023,196.585z"/>
	</g>
	<g>
		<path fill="#FED402" d="M198.892,192.572l-0.582,0.575c-0.049,0.048-0.129,0.048-0.179,0l-0.581-0.575
			c-0.049-0.049-0.049-0.128,0-0.178l0.581-0.574c0.05-0.048,0.13-0.048,0.179,0l0.582,0.574
			C198.941,192.444,198.941,192.522,198.892,192.572z"/>
	</g>
	<g>
		<path fill="#FFFFFF" d="M188.044,216.741l-0.581,0.574c-0.05,0.05-0.13,0.05-0.179,0l-0.581-0.574c-0.05-0.048-0.05-0.129,0-0.178
			l0.581-0.574c0.049-0.049,0.129-0.049,0.179,0l0.581,0.574C188.094,216.612,188.094,216.692,188.044,216.741z"/>
	</g>
</g>
<g display="none">
	<path display="inline" fill="#00AA79" d="M215.305,205.983c0.003,2.245-0.306,4.481-0.916,6.642l-0.699,0.07
		c-0.057,0.006-0.114,0.011-0.169,0.013l-0.591,0.027c-1.567,0.065-2.96,1.02-3.585,2.458l-0.151,0.346
		c-0.515,1.174-1.676,1.932-2.958,1.932h-2.513c-0.602,0.002-1.104-0.454-1.162-1.051l-0.101-1.004
		c-0.121-1.244-0.804-2.362-1.856-3.037c-0.412-0.264-0.66-0.721-0.66-1.21v-1.007c0-0.565,0.243-1.104,0.667-1.478l4.293-3.792
		c1.235-1.094,1.722-2.807,1.244-4.387c-0.495-1.632-1.904-2.819-3.597-3.027l-0.434-0.054c-0.517-0.063-0.993-0.315-1.335-0.707
		c-0.335-0.38-0.394-0.931-0.146-1.374l0.898-1.538c1.112-1.897,2.423-3.671,3.91-5.291l0.97-1.354
		C212.05,191.784,215.313,198.693,215.305,205.983z"/>
	<path display="inline" fill="#7BFFFB" d="M213.69,212.695l0.699-0.07c-2.891,10.231-12.297,17.728-23.453,17.728
		c-13.458,0-24.37-10.911-24.37-24.37c0-0.767,0.035-1.525,0.104-2.274l0.294,0.028l0.332-0.065c1.614-0.315,3.251,0.428,4.076,1.85
		c0.189,0.325,0.426,0.621,0.7,0.879l1.732,1.631c0.31,0.291,0.687,0.502,1.096,0.614l0.202,0.057
		c1.193,0.326,2.127,1.256,2.46,2.448l0.929,3.351c0.111,0.402,0.3,0.78,0.553,1.113l2.814,3.689c0.35,0.46,0.584,1,0.68,1.571
		l0.766,4.589c0.024,0.165,0.108,0.314,0.235,0.42c0.188,0.151,0.44,0.186,0.662,0.094c0.441-0.185,0.745-0.601,0.789-1.078
		c0.093-0.938,0.468-1.826,1.077-2.546l0.814-0.98c0.145-0.173,0.253-0.374,0.319-0.589l0.839-2.718
		c0.247-0.802,0.738-1.509,1.404-2.021l2.493-1.914c0.181-0.136,0.305-0.335,0.344-0.556c0.042-0.247-0.03-0.499-0.191-0.689
		l-1.66-1.952c-0.1-0.116-0.194-0.238-0.283-0.361l-1.269-1.768c-0.702-0.979-1.823-1.627-3.029-1.597
		c-0.12,0.003-0.24-0.028-0.344-0.091l-2.592-1.555c-0.759-0.452-1.699-0.476-2.478-0.062l-1.366,0.733
		c-1.24,0.664-2.782,0.259-3.536-0.931l-1.327-2.094c-0.614-0.97-0.594-2.212,0.049-3.162c0.688-1.021,1.893-1.566,3.114-1.408
		l1.991,0.253c0.709,0.097,1.409-0.238,1.778-0.853c0.635-1.093,1.863-1.699,3.117-1.539l0.87,0.111
		c0.621,0.078,1.237-0.177,1.621-0.674l0.767-0.994c0.694-0.896,0.726-2.137,0.079-3.068l-1.655-2.384
		c-0.634-0.915-1.46-1.68-2.421-2.242c-0.253-0.148-0.497-0.31-0.73-0.485l-1.394-1.046l-1.763-1.329
		c8.673-4.538,19.221-3.448,26.784,2.769l-0.97,1.354c-1.487,1.62-2.798,3.394-3.91,5.291l-0.898,1.538
		c-0.248,0.443-0.189,0.994,0.146,1.374c0.343,0.392,0.819,0.645,1.335,0.707l0.434,0.054c1.693,0.208,3.102,1.396,3.597,3.027
		c0.478,1.58-0.009,3.292-1.244,4.387l-4.293,3.792c-0.423,0.374-0.666,0.913-0.667,1.478v1.007c0,0.49,0.248,0.946,0.66,1.21
		c1.052,0.674,1.735,1.793,1.856,3.037l0.101,1.004c0.058,0.598,0.561,1.053,1.162,1.051h2.513c1.282,0,2.443-0.758,2.958-1.932
		l0.151-0.346c0.625-1.438,2.018-2.393,3.585-2.458l0.591-0.027C213.576,212.706,213.633,212.701,213.69,212.695z"/>
	<path display="inline" fill="#00AA79" d="M192.089,212.887c0.162,0.19,0.233,0.442,0.191,0.689c-0.04,0.221-0.163,0.42-0.344,0.556
		l-2.493,1.914c-0.667,0.511-1.157,1.218-1.404,2.021l-0.839,2.718c-0.066,0.216-0.175,0.417-0.319,0.589l-0.814,0.98
		c-0.609,0.72-0.984,1.608-1.077,2.546c-0.044,0.477-0.348,0.893-0.789,1.078c-0.222,0.092-0.475,0.057-0.662-0.094
		c-0.127-0.106-0.211-0.255-0.235-0.42l-0.766-4.589c-0.095-0.571-0.33-1.111-0.68-1.571l-2.814-3.689
		c-0.253-0.333-0.442-0.71-0.553-1.113l-0.929-3.351c-0.333-1.192-1.267-2.122-2.46-2.448l-0.202-0.057
		c-0.409-0.111-0.786-0.323-1.096-0.614l-1.732-1.631c-0.274-0.259-0.511-0.555-0.7-0.879c-0.825-1.422-2.461-2.166-4.076-1.85
		l-0.332,0.065l-0.294-0.028c0.77-8.218,5.646-15.488,12.958-19.318l1.763,1.329l1.394,1.046c0.233,0.175,0.477,0.337,0.73,0.485
		c0.961,0.562,1.787,1.327,2.421,2.242l1.655,2.384c0.647,0.931,0.616,2.172-0.079,3.068l-0.767,0.994
		c-0.383,0.497-1,0.752-1.621,0.674l-0.87-0.111c-1.254-0.161-2.482,0.446-3.117,1.539c-0.369,0.615-1.068,0.95-1.778,0.853
		l-1.991-0.253c-1.221-0.158-2.426,0.387-3.114,1.408c-0.643,0.95-0.663,2.192-0.049,3.162l1.327,2.094
		c0.753,1.189,2.296,1.595,3.536,0.931l1.366-0.733c0.779-0.415,1.719-0.391,2.478,0.062l2.592,1.555
		c0.104,0.063,0.224,0.094,0.344,0.091c1.206-0.031,2.327,0.617,3.029,1.597l1.269,1.768c0.088,0.123,0.183,0.245,0.283,0.361
		L192.089,212.887z"/>
	<path display="inline" fill="#53D5D1" d="M190.936,181.614c-3.939-0.006-7.82,0.947-11.307,2.777l1.763,1.329l1.394,1.046
		c0.228,0.17,0.465,0.329,0.711,0.472l0.108-0.063c7.13-3.727,15.64-3.7,22.746,0.069l0.061-0.085
		C202.057,183.566,196.582,181.604,190.936,181.614z"/>
	<path display="inline" fill="#53D5D1" d="M170.544,208.769c0-0.767,0.035-1.525,0.105-2.274l0.229-1.643
		c-0.906-0.992-2.263-1.439-3.582-1.18l-0.332,0.065l-0.294-0.028c-0.069,0.749-0.103,1.507-0.104,2.274
		c-0.003,8.824,4.766,16.96,12.465,21.268C173.638,222.625,170.537,215.873,170.544,208.769z"/>
	<path display="inline" fill="#005933" d="M170.861,204.834c1.233-7.517,5.905-14.025,12.633-17.597
		c-0.245-0.144-0.481-0.301-0.708-0.471l-1.394-1.046l-1.763-1.329c-7.312,3.831-12.189,11.101-12.958,19.318l0.294,0.028
		l0.332-0.065C168.607,203.414,169.955,203.854,170.861,204.834z"/>
	<path display="inline" fill="#280068" d="M190.936,181.017c-13.789,0-24.967,11.178-24.967,24.966
		c0,6.622,2.631,12.973,7.312,17.653c9.751,9.751,25.559,9.751,35.309,0c9.75-9.749,9.75-25.558,0-35.307
		C203.917,183.632,197.561,181,190.936,181.017z M174.125,189.173c1.612-1.613,3.444-2.986,5.444-4.08l2.859,2.15
		c0.251,0.188,0.515,0.362,0.786,0.523c0.885,0.519,1.647,1.225,2.233,2.066l1.653,2.385c0.5,0.716,0.475,1.675-0.059,2.364
		l-0.768,0.996c-0.253,0.327-0.661,0.496-1.072,0.444l-0.87-0.111c-1.492-0.193-2.954,0.529-3.71,1.83
		c-0.247,0.41-0.714,0.63-1.186,0.561l-1.991-0.253c-1.444-0.188-2.871,0.457-3.684,1.665c-0.778,1.147-0.8,2.645-0.059,3.815
		l1.326,2.096c0.924,1.447,2.806,1.941,4.322,1.136l1.365-0.731c0.595-0.316,1.312-0.299,1.89,0.045l2.592,1.556
		c0.201,0.12,0.433,0.182,0.667,0.176c0.959-0.028,1.905,0.478,2.527,1.347l1.27,1.767c0.098,0.137,0.203,0.272,0.313,0.401
		l1.66,1.952c0.049,0.058,0.07,0.134,0.057,0.208c-0.016,0.072-0.059,0.136-0.119,0.177l-2.492,1.915
		c-0.766,0.585-1.329,1.396-1.611,2.318l-0.838,2.717c-0.043,0.141-0.114,0.271-0.208,0.385l-0.816,0.979
		c-0.687,0.813-1.11,1.815-1.211,2.874c-0.024,0.259-0.188,0.481-0.426,0.582c-0.02,0.008-0.042,0.004-0.059-0.011
		c-0.011-0.015-0.017-0.031-0.02-0.05l-0.763-4.589c-0.114-0.667-0.385-1.298-0.796-1.835l-2.814-3.69
		c-0.208-0.271-0.361-0.581-0.452-0.91l-0.928-3.351c-0.39-1.393-1.482-2.48-2.877-2.865l-0.202-0.055
		c-0.315-0.087-0.606-0.249-0.844-0.473l-1.733-1.631c-0.232-0.219-0.433-0.471-0.593-0.746c-0.925-1.59-2.731-2.45-4.548-2.164
		C167.979,197.799,170.369,192.908,174.125,189.173z M207.746,222.794c-9.284,9.283-24.335,9.283-33.621,0
		c-4.458-4.458-6.963-10.505-6.962-16.811c0-0.566,0.021-1.129,0.06-1.689l0.19-0.038c1.364-0.265,2.748,0.364,3.445,1.566
		c0.219,0.374,0.49,0.715,0.806,1.013l1.733,1.631c0.381,0.357,0.843,0.617,1.348,0.755l0.204,0.055
		c0.989,0.273,1.763,1.043,2.039,2.033l0.93,3.351c0.132,0.476,0.353,0.921,0.653,1.314l2.814,3.69
		c0.292,0.383,0.486,0.832,0.565,1.309l0.765,4.589c0.092,0.611,0.618,1.063,1.236,1.063c0.165,0,0.329-0.034,0.481-0.097
		c0.647-0.27,1.091-0.875,1.153-1.574c0.082-0.818,0.409-1.591,0.942-2.218l0.814-0.98c0.194-0.234,0.342-0.504,0.431-0.796
		l0.838-2.718c0.209-0.685,0.628-1.287,1.197-1.723l2.493-1.914c0.303-0.227,0.507-0.562,0.57-0.936
		c0.068-0.419-0.051-0.846-0.326-1.17l-1.661-1.951c-0.087-0.104-0.172-0.213-0.251-0.323l-1.269-1.768
		c-0.854-1.191-2.174-1.88-3.529-1.844c-0.008,0-0.015-0.002-0.021-0.005l-2.593-1.556c-0.939-0.561-2.102-0.588-3.067-0.075
		l-1.366,0.731c-0.965,0.513-2.162,0.197-2.75-0.723l-1.326-2.096c-0.488-0.77-0.473-1.753,0.038-2.506
		c0.562-0.835,1.547-1.281,2.544-1.151l1.991,0.252c0.948,0.13,1.881-0.319,2.369-1.143c0.515-0.887,1.511-1.379,2.526-1.248
		l0.87,0.111c0.833,0.104,1.656-0.238,2.169-0.9l0.766-0.994c0.854-1.101,0.893-2.63,0.096-3.773l-1.653-2.385
		c-0.686-0.986-1.577-1.81-2.611-2.417c-0.233-0.136-0.457-0.286-0.673-0.446l-2.393-1.8c8.144-3.842,17.757-2.767,24.85,2.78
		l-0.622,0.866c-1.506,1.643-2.834,3.443-3.958,5.368l-0.904,1.543c-0.374,0.663-0.289,1.49,0.215,2.063
		c0.439,0.503,1.05,0.827,1.713,0.907l0.434,0.053c1.458,0.181,2.671,1.203,3.099,2.608c0.408,1.357-0.009,2.828-1.07,3.767
		l-4.271,3.793c-0.545,0.49-0.854,1.19-0.845,1.923v1.007c-0.01,0.688,0.333,1.334,0.911,1.712c0.896,0.576,1.477,1.533,1.575,2.592
		l0.095,0.981c0.088,0.897,0.849,1.578,1.751,1.564h2.513c1.515,0.01,2.892-0.879,3.505-2.265l0.151-0.332
		c0.535-1.229,1.726-2.044,3.066-2.097l0.591-0.024l0.019-0.001C212.408,216.882,210.413,220.137,207.746,222.794z M213.924,212.072
		l-0.293,0.029c-0.046,0.004-0.093,0.008-0.138,0.01l-0.591,0.027c-1.795,0.075-3.388,1.168-4.104,2.816l-0.151,0.319
		c-0.424,0.952-1.372,1.561-2.413,1.552h-2.513c-0.289,0.012-0.538-0.203-0.569-0.489l-0.1-0.993
		c-0.131-1.419-0.906-2.699-2.104-3.472c-0.236-0.154-0.374-0.42-0.365-0.703v-1.007c-0.007-0.391,0.154-0.767,0.443-1.03
		l4.281-3.792c1.41-1.25,1.963-3.206,1.417-5.009c-0.565-1.857-2.17-3.208-4.098-3.445l-0.435-0.054
		c-0.372-0.045-0.714-0.227-0.961-0.509c-0.166-0.187-0.197-0.459-0.079-0.679l0.899-1.537c1.089-1.861,2.375-3.602,3.833-5.19
		c0.016-0.018,0.031-0.036,0.045-0.057l0.593-0.828c0.419,0.365,0.826,0.746,1.224,1.141c4.472,4.448,6.979,10.501,6.963,16.811
		C214.71,208.039,214.446,210.084,213.924,212.072L213.924,212.072z"/>
</g>
<g display="none">
	<g display="inline">
		<path fill="#97DE3D" d="M216.06,201.428h-8.593c-6.012,0-11.555,2.933-14.986,7.829v14.361h-2.933v-5.563
			c-3.431-4.896-8.974-7.83-14.986-7.83h-8.592c0.205-0.294,1.906-8.798,10.381-8.798c5.425,0,9.883,4.253,10.235,9.59
			c1.056,0.732,2.053,1.555,2.962,2.463V199.96c0-4.046-3.284-7.332-7.332-7.332h-7.331v-1.466c0-4.048,3.285-7.332,7.331-7.332
			c4.048,0,7.332,3.284,7.332,7.332c0,0.499-0.058,0.997-0.146,1.466c0.293,0.293,0.527,0.616,0.792,0.938
			c0.235-0.615,0.499-1.201,0.822-1.759c0.439-0.762,0.996-1.495,1.612-2.112c-0.088-0.468-0.147-0.967-0.147-1.465
			c0-4.047,3.286-7.332,7.332-7.332c4.048,0,7.332,3.285,7.332,7.332v1.465h-7.332c-4.046,0-7.332,3.285-7.332,7.333v7.653
			c0.909-0.909,1.907-1.73,2.962-2.462c0.411-5.426,4.839-9.59,10.236-9.59C214.182,192.629,215.824,201.076,216.06,201.428
			L216.06,201.428z"/>
		<g>
			<path fill="#59C36A" d="M216.06,201.428h-8.593c-6.012,0-11.555,2.933-14.986,7.829v14.361h-1.465v-31.811
				c0.439-0.762,0.996-1.495,1.612-2.112c-0.088-0.468-0.147-0.967-0.147-1.465c0-4.047,3.286-7.332,7.332-7.332
				c4.048,0,7.331,3.285,7.331,7.332v1.465h-7.331c-4.046,0-7.332,3.285-7.332,7.333v7.653c0.909-0.909,1.907-1.73,2.962-2.462
				c0.411-5.426,4.839-9.59,10.236-9.59C214.182,192.629,215.824,201.076,216.06,201.428L216.06,201.428z"/>
		</g>
		<path fill="#704C55" d="M208.611,228.017c-3.955,0-5.823-1.244-7.985-2.686c-2.234-1.491-4.768-3.179-9.61-3.179
			c-4.844,0-7.378,1.688-9.611,3.179c-2.163,1.442-4.032,2.686-7.986,2.686h-4.398v2.933h43.99v-2.933H208.611z"/>
		<path fill="#5A344B" d="M213.009,230.95v-2.933h-4.398c-3.955,0-5.823-1.244-7.985-2.686c-2.234-1.491-4.768-3.179-9.61-3.179
			v8.798C191.533,230.95,213.97,230.95,213.009,230.95z"/>
	</g>
</g>
<g display="none">
	<path display="inline" fill="#A79BA7" d="M210.764,204.894c-0.168,0-0.336-0.057-0.476-0.172c-0.315-0.262-0.358-0.731-0.097-1.046
		l3.442-4.137c0.547-0.658,0.849-1.491,0.849-2.346c0-2.022-1.646-3.668-3.668-3.668h-8.025c-3.467,0-6.287-2.82-6.287-6.286
		s2.82-6.287,6.287-6.287h12.437c0.41,0,0.743,0.333,0.743,0.743c0,0.411-0.333,0.743-0.743,0.743h-12.437
		c-2.646,0-4.8,2.153-4.8,4.8c0,2.647,2.153,4.8,4.8,4.8h8.025c2.842,0,5.154,2.313,5.154,5.155c0,1.202-0.424,2.373-1.192,3.296
		l-3.441,4.137C211.188,204.802,210.977,204.894,210.764,204.894z"/>
	<path display="inline" fill="#B5ADB6" d="M209.244,207.847l-2.102-2.101l2.5-2.498c0.58-0.58,1.521-0.58,2.101,0
		c0.581,0.58,0.581,1.521,0,2.102L209.244,207.847z"/>
	<path display="inline" fill="#B5ADB6" d="M180.088,216.152l-2.102,2.103l-2.498-2.5c-0.58-0.58-0.58-1.521,0-2.102
		c0.581-0.58,1.522-0.58,2.102,0L180.088,216.152z"/>
	<path display="inline" fill="#B5ADB6" d="M201.208,221.799h-8.17v-2.853c0-0.436,0.353-0.788,0.787-0.788h6.596
		c0.435,0,0.787,0.353,0.787,0.788V221.799z"/>
	<path display="inline" fill="#FEE97D" d="M215.192,222.589c-1.604-5.507-3.209-11.015-4.814-16.522
		c-0.313-1.074-1.334-1.782-2.451-1.701c-5.389,0.394-12.529,1.667-20.064,5.321c-2.93,1.421-5.473,2.985-7.646,4.527
		c-4.289,3.237-7.875,7.312-10.542,11.976l-0.752,1.316l-0.996,1.486l41.929-1.486l0.572-1.227c0.682-1.458,2.146-2.391,3.758-2.391
		C214.865,223.89,215.364,223.247,215.192,222.589z M206.854,220.583l-14.693,0.966c-2.06,0.136-3.805-1.498-3.805-3.562l0,0
		c0-1.297,0.703-2.493,1.838-3.121c1.666-0.922,3.554-1.849,5.66-2.702c3.143-1.273,6.072-2.103,8.625-2.651
		c0.836-0.18,1.664,0.336,1.865,1.166l1.937,7.961C208.512,219.591,207.83,220.519,206.854,220.583z"/>
	<path display="inline" fill="#FEDF30" d="M215.192,222.589c-1.604-5.507-3.209-11.015-4.814-16.522
		c-0.312-1.071-1.329-1.783-2.441-1.702c-0.194,0.014-0.391,0.03-0.588,0.046c0.02,0.055,0.04,0.111,0.057,0.169
		c1.604,5.507,3.209,11.014,4.814,16.522c0.17,0.658-0.325,1.299-1.004,1.301c-1.578,0.004-3.035,0.84-3.703,2.27
		c-0.385,0.822-1.209,1.347-2.117,1.347h-35.62c-0.033,0.058-0.068,0.114-0.101,0.171l-0.752,1.316l-0.996,1.486l41.929-1.486
		l0.629-1.348c0.693-1.379,2.125-2.266,3.703-2.27C214.867,223.888,215.363,223.247,215.192,222.589z"/>
	<path display="inline" fill="#B5ADB6" d="M210.117,230.95h-44.148c0-1.902,1.542-3.443,3.444-3.443h40.705
		c0.951,0,1.722,0.771,1.722,1.721C211.839,230.179,211.069,230.95,210.117,230.95z"/>
	<path display="inline" fill="#A79BA7" d="M210.117,227.507h-2.974c0.951,0,1.722,0.771,1.722,1.721
		c0,0.951-0.771,1.723-1.722,1.723h2.974c0.951,0,1.722-0.771,1.722-1.723C211.839,228.277,211.069,227.507,210.117,227.507z"/>
	<path display="inline" fill="#FEDF30" d="M191.445,221.524C191.445,221.524,191.445,221.524,191.445,221.524
		c-1.732-0.234-3.089-1.718-3.089-3.537l0,0c0-1.297,0.703-2.492,1.838-3.121c1.666-0.922,3.554-1.848,5.66-2.702
		c3.143-1.272,6.072-2.103,8.625-2.651c0.404-0.086,0.806-0.01,1.137,0.186l0,0c-1.242-1.63-2.271-1.813-2.745-1.824
		c-0.239-0.006-0.614,0.049-1.366,0.152c-2.042,0.283-3.095,0.41-8.623,2.651c-2.107,0.854-3.995,1.779-5.661,2.702
		c-1.135,0.628-1.838,1.824-1.838,3.121c0.108,0.633,0.371,1.606,1.076,2.553C188.166,221.347,190.994,221.506,191.445,221.524z"/>
</g>
</svg>
